{
classes = (
{
code = "zero one two three four five six seven eight nine A B C D E F G H I J K L M N O P Q R S T U V W X Y Z uni0410 uni0411 uni0412 uni0413 uni0414 uni0415 uni0416 uni0417 uni0418 uni0419 uni041A uni041B uni041C uni041D uni041E uni041F uni0420 uni0421 uni0422 uni0423 uni0424 uni0425 uni0426 uni0427 uni0428 uni0429 uni042A uni042B uni042C uni042D uni042E uni042F uni0401 K_alt W_alt Acircumflex Adieresis Ccedilla Ecircumflex Icircumflex Odieresis Udieresis Abreve Idotaccent Scedilla uni0162 uni0218 uni021A uni04C1";
name = calt1;
},
{
code = "o a c d e g q s u y t acircumflex adieresis ccedilla ecircumflex odieresis udieresis u_alt y_alt s_alt c_alt t_alt t2.alt g_alt a_alt abreve scedilla uni0163 uni0219 uni021B uni0430 uni0431 uni0435 uni0437 uni043E uni0441 uni0444 uni044D uni0451 space zero one three five six seven eight nine f v endash emdash uni00AD hyphen.uc uni00AD.uc endash.uc emdash.uc minus hyphen t0163.alt t021b.alt a2_alt a00E2.alt a00E4.alt a0103.alt";
name = calt2;
},
{
code = "uniE000 uniE001 uniE002 uniE003 uniE004 uniE005 uniE006 uniE007 uniE008 uniE009 uniE010 uniE011 uniE012 uniE013 uniE014 uniE015 uniE016 uniE017 uniE018 uniE019 uniE020 uniE021 uniE022";
name = tnum1;
},
{
code = "zero one two three four five six seven eight nine period comma colon semicolon quotesingle quotedbl quoteright quotedblright quoteleft quotedblleft quotesinglbase quotedblbase colon.uc";
name = pnum1;
}
);
copyright = "Copyright (c) 2021-2022, Dmitri Voloshin, Andrey Kudryavtsev";
designer = "Andrey Kudryavtsev";
designerURL = "https://onest.md";
familyName = Onest;
customParameters = (
{
name = glyphOrder;
value = (
.notdef,
NULL,
CR,
space,
B,
D,
E,
F,
H,
I,
L,
M,
N,
P,
R,
U,
V,
W,
X,
Y,
Z,
b,
d,
h,
i,
l,
m,
n,
p,
q,
u,
v,
w,
x,
z,
period,
comma,
A,
breve,
circumflex,
uni0326,
exclam,
quotedbl,
quotesingle,
numbersign,
percent,
asterisk,
plus,
slash,
colon,
semicolon,
less,
equal,
greater,
at,
bracketleft,
bracketright,
backslash,
asciicircum,

glyphs = (
{
color = (153, 249, 255, 255);
glyphname = B;
layers = (
{
layerId = "890F39B9-B224-45DC-BFF4-46A200F8FC77";
paths = (
{
closed = 1;
nodes = (
"73 0 LINE",
"73 708 LINE",
"406 708 LINE",
"449 708 OFFCURVE",
"528 689 OFFCURVE",
"588 646 OFFCURVE",
"624 576 OFFCURVE",
"624 525 QCURVE",
"624 481 OFFCURVE",
"589 408 OFFCURVE",
"551 385 QCURVE",
"603 365 OFFCURVE",
"656 278 OFFCURVE",
"656 217 QCURVE",
"656 151 OFFCURVE",
"601 67 OFFCURVE",
"516 19 OFFCURVE",
"410 0 OFFCURVE",
"358 0 QCURVE"
);
},
{
closed = 1;
nodes = (
"351 427 LINE",
"401 427 OFFCURVE",
"464 458 OFFCURVE",
"464 498 QCURVE",
"464 518 OFFCURVE",
"447 543 OFFCURVE",
"420 556 OFFCURVE",
"385 560 OFFCURVE",
"366 560 QCURVE",
"236 560 LINE",
"236 427 LINE"
);
},
{
closed = 1;
nodes = (
"236 147 LINE",
"359 147 LINE",
"387 147 OFFCURVE",
"436 153 OFFCURVE",
"472 169 OFFCURVE",
"493 200 OFFCURVE",
"493 225 QCURVE",
"493 247 OFFCURVE",
"474 274 OFFCURVE",
"442 288 OFFCURVE",
"400 292 OFFCURVE",
"377 292 QCURVE",
"236 292 LINE"
);
}
);
width = 692;
}
);
leftKerningGroup = _kern1;
unicode = 0042;
},
{
color = (153, 249, 255, 255);
glyphname = D;
layers = (
{
layerId = "890F39B9-B224-45DC-BFF4-46A200F8FC77";
paths = (
{
closed = 1;
nodes = (
"74 0 LINE",
"74 708 LINE",
"343 708 LINE",
"426 708 OFFCURVE",
"559 663 OFFCURVE",
"652 573 OFFCURVE",
"702 441 OFFCURVE",
"702 354 QCURVE",
"702 179 OFFCURVE",
"519 0 OFFCURVE",
"347 0 QCURVE"
);
},
{
closed = 1;
nodes = (
"349 147 LINE",
"400 147 OFFCURVE",
"471 176 OFFCURVE",
"516 230 OFFCURVE",
"536 306 OFFCURVE",
"536 353 QCURVE",
"536 455 OFFCURVE",
"441 559 OFFCURVE",
"341 559 QCURVE",
"237 559 LINE",
"237 147 LINE"
);
}
);
width = 738;
}
);
leftKerningGroup = _kern1;
rightKerningGroup = _kern4;
unicode = 0044;
},
{
color = (153, 249, 255, 255);
glyphname = E;
layers = (
{
layerId = "890F39B9-B224-45DC-BFF4-46A200F8FC77";
paths = (
{
closed = 1;
nodes = (
"594 708 LINE",
"594 559 LINE",
"237 559 LINE",
"237 423 LINE",
"540 423 LINE",
"540 278 LINE",
"237 278 LINE",
"237 147 LINE",
"594 147 LINE",
"594 0 LINE",
"74 0 LINE",
"74 708 LINE"
);
}
);
width = 629;
}
);
leftKerningGroup = _kern1;
unicode = 0045;
},
{
color = (153, 249, 255, 255);
glyphname = F;
layers = (
{
layerId = "890F39B9-B224-45DC-BFF4-46A200F8FC77";
paths = (
{
closed = 1;
nodes = (
"582 708 LINE",
"582 559 LINE",
"237 559 LINE",
"237 403 LINE",
"524 403 LINE",
"524 257 LINE",
"237 257 LINE",
"237 0 LINE",
"74 0 LINE",
"74 708 LINE"
);
}
);
width = 606;
}
);
leftKerningGroup = _kern1;
unicode = 0046;
},
{
color = (153, 249, 255, 255);
glyphname = H;
layers = (
{
layerId = "890F39B9-B224-45DC-BFF4-46A200F8FC77";
paths = (
{
closed = 1;
nodes = (
"237 423 LINE",
"522 423 LINE",
"522 708 LINE",
"685 708 LINE",
"685 0 LINE",
"522 0 LINE",
"522 276 LINE",
"237 276 LINE",
"237 0 LINE",
"74 0 LINE",
"74 708 LINE",
"237 708 LINE"
);
}
);
width = 759;
}
);
leftKerningGroup = _kern1;
rightKerningGroup = _kern2;
unicode = 0048;
},
{
color = (153, 249, 255, 255);
glyphname = I;
layers = (
{
layerId = "890F39B9-B224-45DC-BFF4-46A200F8FC77";
paths = (
{
closed = 1;
nodes = (
"237 0 LINE",
"74 0 LINE",
"74 708 LINE",
"237 708 LINE"
);
}
);
width = 311;
}
);
leftKerningGroup = _kern1;
rightKerningGroup = _kern2;
unicode = 0049;
},
{
color = (153, 249, 255, 255);
glyphname = L;
layers = (
{
layerId = "890F39B9-B224-45DC-BFF4-46A200F8FC77";
paths = (
{
closed = 1;
nodes = (
"237 147 LINE",
"580 147 LINE",
"580 0 LINE",
"74 0 LINE",
"74 708 LINE",
"237 708 LINE"
);
}
);
width = 607;
}
);
unicode = 004C;
},
{
color = (153, 249, 255, 255);
glyphname = M;
layers = (
{
layerId = "890F39B9-B224-45DC-BFF4-46A200F8FC77";
paths = (
{
closed = 1;
nodes = (
"268 708 LINE",
"461 386 LINE",
"652 708 LINE",
"840 708 LINE",
"840 0 LINE",
"677 0 LINE",
"677 469 LINE",
"492 161 LINE",
"424 161 LINE",
"237 469 LINE",
"237 0 LINE",
"74 0 LINE",
"74 708 LINE"
);
}
);
width = 914;
}
);
leftKerningGroup = _kern1;
rightKerningGroup = _kern2;
unicode = 004D;
},
{
color = (153, 249, 255, 255);
glyphname = N;
layers = (
{
layerId = "890F39B9-B224-45DC-BFF4-46A200F8FC77";
paths = (
{
closed = 1;
nodes = (
"230 708 LINE",
"547 270 LINE",
"547 708 LINE",
"710 708 LINE",
"710 0 LINE",
"557 0 LINE",
"237 435 LINE",
"237 0 LINE",
"74 0 LINE",
"74 708 LINE"
);
}
);
width = 784;
}
);
leftKerningGroup = _kern1;
rightKerningGroup = _kern2;
unicode = 004E;
},
{
color = (153, 249, 255, 255);
glyphname = P;
layers = (
{
layerId = "890F39B9-B224-45DC-BFF4-46A200F8FC77";
paths = (
{
closed = 1;
nodes = (
"358 708 LINE",
"420 708 OFFCURVE",
"523 682 OFFCURVE",
"597 624 OFFCURVE",
"638 530 OFFCURVE",
"638 462 QCURVE",
"638 397 OFFCURVE",
"596 301 OFFCURVE",
"521 236 OFFCURVE",
"419 204 OFFCURVE",
"360 204 QCURVE",
"237 204 LINE",
"237 0 LINE",
"74 0 LINE",
"74 708 LINE"
);
},
{
closed = 1;
nodes = (
"356 348 LINE",
"410 348 OFFCURVE",
"476 402 OFFCURVE",
"478 453 QCURVE",
"478 510 OFFCURVE",
"416 559 OFFCURVE",
"355 559 QCURVE",
"237 559 LINE",
"237 348 LINE"
);
}
);
width = 674;
}
);
leftKerningGroup = _kern1;
unicode = 0050;
},
{
color = (153, 249, 255, 255);
glyphname = R;
layers = (
{
layerId = "890F39B9-B224-45DC-BFF4-46A200F8FC77";
paths = (
{
closed = 1;
nodes = (
"367 708 LINE",
"416 708 OFFCURVE",
"516 690 OFFCURVE",
"596 640 OFFCURVE",
"646 551 OFFCURVE",
"646 481 QCURVE",
"644 403 OFFCURVE",
"572 289 OFFCURVE",
"501 267 QCURVE",
"661 0 LINE",
"477 0 LINE",
"338 246 LINE",
"237 246 LINE",
"237 0 LINE",
"74 0 LINE",
"74 708 LINE"
);
},
{
closed = 1;
nodes = (
"366 387 LINE",
"419 387 OFFCURVE",
"483 427 OFFCURVE",
"485 475 QCURVE",
"486 500 OFFCURVE",
"468 533 OFFCURVE",
"437 552 OFFCURVE",
"394 559 OFFCURVE",
"369 559 QCURVE",
"237 559 LINE",
"237 387 LINE"
);
}
);
width = 701;
}
);
leftKerningGroup = _kern1;
unicode = 0052;
},
{
color = (153, 249, 255, 255);
glyphname = U;
layers = (
{
layerId = "890F39B9-B224-45DC-BFF4-46A200F8FC77";
paths = (
{
closed = 1;
nodes = (
"296 -8 OFFCURVE",
"179 37 OFFCURVE",
"104 123 OFFCURVE",
"69 247 OFFCURVE",
"69 327 QCURVE",
"69 708 LINE",
"232 708 LINE",
"232 315 LINE",
"232 281 OFFCURVE",
"246 218 OFFCURVE",
"280 170 OFFCURVE",
"337 141 OFFCURVE",
"379 141 QCURVE",
"422 141 OFFCURVE",
"478 171 OFFCURVE",
"511 219 OFFCURVE",
"523 282 OFFCURVE",
"523 315 QCURVE",
"523 708 LINE",
"686 708 LINE",
"686 327 LINE",
"686 248 OFFCURVE",
"651 123 OFFCURVE",
"576 37 OFFCURVE",
"459 -8 OFFCURVE",
"377 -8 QCURVE"
);
}
);
width = 755;
}
);
unicode = 0055;
},
{
color = (153, 249, 255, 255);
glyphname = V;
layers = (
{
layerId = "890F39B9-B224-45DC-BFF4-46A200F8FC77";
paths = (
{
closed = 1;
nodes = (
"539 708 LINE",
"716 708 LINE",
"440 0 LINE",
"276 0 LINE",
"1 708 LINE",
"180 708 LINE",
"362 204 LINE"
);
}
);
width = 717;
}
);
unicode = 0056;
},
{
color = (153, 249, 255, 255);
glyphname = W;
layers = (
{
layerId = "890F39B9-B224-45DC-BFF4-46A200F8FC77";
paths = (
{
closed = 1;
nodes = (
"389 0 LINE",
"176 0 LINE",
"0 708 LINE",
"184 708 LINE",
"284 206 LINE",
"395 708 LINE",
"603 708 LINE",
"712 206 LINE",
"812 708 LINE",
"995 708 LINE",
"819 0 LINE",
"604 0 LINE",
"497 492 LINE"
);
}
);
width = 995;
}
);
leftKerningGroup = _kern19;
rightKerningGroup = _kern19;
unicode = 0057;
},
{
color = (153, 249, 255, 255);
glyphname = X;
layers = (
{
layerId = "890F39B9-B224-45DC-BFF4-46A200F8FC77";
paths = (
{
closed = 1;
nodes = (
"496 708 LINE",
"686 708 LINE",
"447 354 LINE",
"692 0 LINE",
"499 0 LINE",
"345 234 LINE",
"185 0 LINE",
"1 0 LINE",
"249 355 LINE",
"9 708 LINE",
"202 708 LINE",
"350 473 LINE"
);
}
);
width = 693;
}
);
unicode = 0058;
},
{
color = (153, 249, 255, 255);
glyphname = Y;
layers = (
{
layerId = "890F39B9-B224-45DC-BFF4-46A200F8FC77";
paths = (
{
closed = 1;
nodes = (
"355 414 LINE",
"396 488 OFFCURVE",
"477 634 OFFCURVE",
"519 708 QCURVE",
"703 708 LINE",
"435 264 LINE",
"434 264 LINE",
"435 264 LINE",
"435 0 LINE",
"272 0 LINE",
"272 263 LINE",
"1 708 LINE",
"189 708 LINE"
);
}
);
width = 704;
}
);
leftKerningGroup = _kern31;
rightKerningGroup = _kern31;
unicode = 0059;
},
{
color = (153, 249, 255, 255);
glyphname = Z;
layers = (
{
layerId = "890F39B9-B224-45DC-BFF4-46A200F8FC77";
paths = (
{
closed = 1;
nodes = (
"39 559 LINE",
"39 708 LINE",
"604 708 LINE",
"604 580 LINE",
"241 147 LINE",
"597 147 LINE",
"597 0 LINE",
"31 0 LINE",
"31 128 LINE",
"394 559 LINE"
);
}
);
width = 635;
}
);
unicode = 005A;
},
{
color = (153, 249, 255, 255);
glyphname = b;
layers = (
{
layerId = "890F39B9-B224-45DC-BFF4-46A200F8FC77";
paths = (
{
closed = 1;
nodes = (
"212 467 LINE",
"244 502 OFFCURVE",
"332 538 OFFCURVE",
"381 538 QCURVE",
"434 538 OFFCURVE",
"519 499 OFFCURVE",
"578 428 OFFCURVE",
"608 329 OFFCURVE",
"608 268 QCURVE",
"608 206 OFFCURVE",
"579 105 OFFCURVE",
"520 32 OFFCURVE",
"434 -8 OFFCURVE",
"379 -8 QCURVE",
"324 -8 OFFCURVE",
"244 27 OFFCURVE",
"211 62 QCURVE",
"212 0 LINE",
"55 0 LINE",
"55 708 LINE",
"212 708 LINE"
);
},
{
closed = 1;
nodes = (
"303 394 OFFCURVE",
"258 372 OFFCURVE",
"228 337 OFFCURVE",
"212 292 OFFCURVE",
"212 267 QCURVE",
"212 212 OFFCURVE",
"274 136 OFFCURVE",
"335 134 QCURVE",
"367 134 OFFCURVE",
"411 156 OFFCURVE",
"438 192 OFFCURVE",
"450 239 OFFCURVE",
"450 266 QCURVE",
"450 290 OFFCURVE",
"436 336 OFFCURVE",
"408 373 OFFCURVE",
"364 394 OFFCURVE",
"332 394 QCURVE"
);
}
);
width = 642;
}
);
rightKerningGroup = _kern6;
unicode = 0062;
},
{
color = (153, 249, 255, 255);
glyphname = d;
layers = (
{
layerId = "890F39B9-B224-45DC-BFF4-46A200F8FC77";
paths = (
{
closed = 1;
nodes = (
"438 0 LINE",
"434 57 LINE",
"403 23 OFFCURVE",
"329 -6 OFFCURVE",
"273 -8 QCURVE",
"214 -8 OFFCURVE",
"126 33 OFFCURVE",
"65 106 OFFCURVE",
"34 205 OFFCURVE",
"34 262 QCURVE",
"34 322 OFFCURVE",
"69 423 OFFCURVE",
"133 497 OFFCURVE",
"224 538 OFFCURVE",
"284 538 QCURVE",
"328 538 OFFCURVE",
"402 514 OFFCURVE",
"430 489 QCURVE",
"430 708 LINE",
"588 708 LINE",
"588 0 LINE"
);
},
{
closed = 1;
nodes = (
"341 134 OFFCURVE",
"386 156 OFFCURVE",
"416 191 OFFCURVE",
"430 237 OFFCURVE",
"430 264 QCURVE",
"430 290 OFFCURVE",
"416 336 OFFCURVE",
"387 372 OFFCURVE",
"341 392 OFFCURVE",
"311 392 QCURVE",
"279 392 OFFCURVE",
"234 371 OFFCURVE",
"205 334 OFFCURVE",
"192 287 OFFCURVE",
"192 262 QCURVE",
"192 235 OFFCURVE",
"206 189 OFFCURVE",
"235 155 OFFCURVE",
"280 133 OFFCURVE",
"311 133 QCURVE"
);
}
);
width = 642;
}
);
leftKerningGroup = _kern5;
unicode = 0064;
},
{
color = (153, 249, 255, 255);
glyphname = h;
layers = (
{
layerId = "890F39B9-B224-45DC-BFF4-46A200F8FC77";
paths = (
{
closed = 1;
nodes = (
"212 474 LINE",
"230 493 OFFCURVE",
"271 518 OFFCURVE",
"311 533 OFFCURVE",
"349 538 OFFCURVE",
"366 538 QCURVE",
"420 538 OFFCURVE",
"497 501 OFFCURVE",
"544 434 OFFCURVE",
"567 343 OFFCURVE",
"567 290 QCURVE",
"567 0 LINE",
"409 0 LINE",
"409 277 LINE",
"409 295 OFFCURVE",
"400 336 OFFCURVE",
"378 372 OFFCURVE",
"339 394 OFFCURVE",
"311 394 QCURVE",
"282 394 OFFCURVE",
"244 372 OFFCURVE",
"221 335 OFFCURVE",
"212 292 OFFCURVE",
"212 271 QCURVE",
"212 0 LINE",
"55 0 LINE",
"55 708 LINE",
"212 708 LINE"
);
}
);
width = 618;
}
);
unicode = 0068;
},
{
color = (153, 249, 255, 255);
glyphname = i;
layers = (
{
layerId = "890F39B9-B224-45DC-BFF4-46A200F8FC77";
paths = (
{
closed = 1;
nodes = (
"222 0 LINE",
"65 0 LINE",
"65 527 LINE",
"222 527 LINE"
);
},
{
closed = 1;
nodes = (
"185 774 OFFCURVE",
"240 724 OFFCURVE",
"240 680 QCURVE",
"240 634 OFFCURVE",
"185 585 OFFCURVE",
"143 585 QCURVE",
"103 585 OFFCURVE",
"46 633 OFFCURVE",
"46 680 QCURVE",
"46 724 OFFCURVE",
"104 774 OFFCURVE",
"143 774 QCURVE"
);
}
);
width = 287;
}
);
unicode = 0069;
},
{
color = (153, 249, 255, 255);
glyphname = l;
layers = (
{
layerId = "890F39B9-B224-45DC-BFF4-46A200F8FC77";
paths = (
{
closed = 1;
nodes = (
"212 0 LINE",
"55 0 LINE",
"55 708 LINE",
"212 708 LINE"
);
}
);
width = 267;
}
);
unicode = 006C;
},
{
color = (153, 249, 255, 255);
glyphname = m;
layers = (
{
layerId = "890F39B9-B224-45DC-BFF4-46A200F8FC77";
paths = (
{
closed = 1;
nodes = (
"210 465 LINE",
"242 507 OFFCURVE",
"318 537 OFFCURVE",
"355 537 QCURVE",
"401 537 OFFCURVE",
"470 502 OFFCURVE",
"493 460 QCURVE",
"528 503 OFFCURVE",
"610 537 OFFCURVE",
"655 537 QCURVE",
"702 537 OFFCURVE",
"766 507 OFFCURVE",
"807 452 OFFCURVE",
"826 377 OFFCURVE",
"826 331 QCURVE",
"826 0 LINE",
"669 0 LINE",
"669 300 LINE",
"669 313 OFFCURVE",
"665 345 OFFCURVE",
"650 374 OFFCURVE",
"621 394 OFFCURVE",
"597 394 QCURVE",
"568 394 OFFCURVE",
"532 361 OFFCURVE",
"520 315 OFFCURVE",
"520 268 OFFCURVE",
"520 254 QCURVE",
"520 0 LINE",
"363 0 LINE",
"363 300 LINE",
"363 310 OFFCURVE",
"361 342 OFFCURVE",
"346 373 OFFCURVE",
"318 394 OFFCURVE",
"293 394 QCURVE",
"267 394 OFFCURVE",
"232 372 OFFCURVE",
"216 338 OFFCURVE",
"212 297 OFFCURVE",
"212 278 QCURVE",
"212 0 LINE",
"55 0 LINE",
"55 527 LINE",
"198 527 LINE"
);
}
);
width = 876;
}
);
unicode = 006D;
},
{
color = (153, 249, 255, 255);
glyphname = n;
layers = (
{
layerId = "890F39B9-B224-45DC-BFF4-46A200F8FC77";
paths = (
{
closed = 1;
nodes = (
"210 469 LINE",
"245 507 OFFCURVE",
"327 537 OFFCURVE",
"365 538 QCURVE",
"415 538 OFFCURVE",
"490 505 OFFCURVE",
"516 476 QCURVE",
"545 441 OFFCURVE",
"567 347 OFFCURVE",
"567 290 QCURVE",
"567 0 LINE",
"409 0 LINE",
"409 277 LINE",
"409 299 OFFCURVE",
"401 341 OFFCURVE",
"379 375 OFFCURVE",
"341 394 OFFCURVE",
"313 394 QCURVE",
"285 394 OFFCURVE",
"243 369 OFFCURVE",
"221 332 OFFCURVE",
"212 288 OFFCURVE",
"212 266 QCURVE",
"212 0 LINE",
"55 0 LINE",
"55 527 LINE",
"202 527 LINE"
);
}
);
width = 618;
}
);
unicode = 006E;
},
{
color = (153, 249, 255, 255);
glyphname = p;
layers = (
{
layerId = "890F39B9-B224-45DC-BFF4-46A200F8FC77";
paths = (
{
closed = 1;
nodes = (
"211 465 LINE",
"243 504 OFFCURVE",
"328 538 OFFCURVE",
"375 538 QCURVE",
"429 538 OFFCURVE",
"515 499 OFFCURVE",
"576 428 OFFCURVE",
"608 329 OFFCURVE",
"608 269 QCURVE",
"608 208 OFFCURVE",
"577 106 OFFCURVE",
"518 33 OFFCURVE",
"431 -8 OFFCURVE",
"377 -8 QCURVE",
"272 -8 OFFCURVE",
"212 52 QCURVE",
"212 -210 LINE",
"55 -210 LINE",
"55 527 LINE",
"202 527 LINE"
);
},
{
closed = 1;
nodes = (
"303 394 OFFCURVE",
"259 373 OFFCURVE",
"228 337 OFFCURVE",
"212 292 OFFCURVE",
"212 267 QCURVE",
"212 212 OFFCURVE",
"274 136 OFFCURVE",
"335 134 QCURVE",
"367 134 OFFCURVE",
"411 156 OFFCURVE",
"438 192 OFFCURVE",
"450 239 OFFCURVE",
"450 266 QCURVE",
"450 290 OFFCURVE",
"436 336 OFFCURVE",
"408 373 OFFCURVE",
"364 394 OFFCURVE",
"332 394 QCURVE"
);
}
);
width = 642;
}
);
rightKerningGroup = _kern6;
unicode = 0070;
},
{
color = (153, 249, 255, 255);
glyphname = q;
layers = (
{
layerId = "890F39B9-B224-45DC-BFF4-46A200F8FC77";
paths = (
{
closed = 1;
nodes = (
"431 43 LINE",
"402 14 OFFCURVE",
"321 -9 OFFCURVE",
"280 -9 QCURVE",
"219 -9 OFFCURVE",
"125 34 OFFCURVE",
"65 108 OFFCURVE",
"34 206 OFFCURVE",
"34 263 QCURVE",
"34 323 OFFCURVE",
"70 424 OFFCURVE",
"136 497 OFFCURVE",
"230 538 OFFCURVE",
"289 538 QCURVE",
"334 538 OFFCURVE",
"410 508 OFFCURVE",
"436 475 QCURVE",
"447 527 LINE",
"589 527 LINE",
"589 -210 LINE",
"431 -210 LINE"
);
},
{
closed = 1;
nodes = (
"341 133 OFFCURVE",
"386 155 OFFCURVE",
"415 190 OFFCURVE",
"430 237 OFFCURVE",
"430 264 QCURVE",
"430 318 OFFCURVE",
"371 392 OFFCURVE",
"312 392 QCURVE",
"282 392 OFFCURVE",
"236 372 OFFCURVE",
"206 336 OFFCURVE",
"192 290 OFFCURVE",
"192 265 QCURVE",
"192 238 OFFCURVE",
"207 191 OFFCURVE",
"236 155 OFFCURVE",
"282 133 OFFCURVE",
"312 133 QCURVE"
);
}
);
width = 643;
}
);
leftKerningGroup = _kern5;
unicode = 0071;
},
{
color = (153, 249, 255, 255);
glyphname = u;
layers = (
{
layerId = "890F39B9-B224-45DC-BFF4-46A200F8FC77";
paths = (
{
closed = 1;
nodes = (
"326 134 OFFCURVE",
"361 153 OFFCURVE",
"380 183 OFFCURVE",
"387 223 OFFCURVE",
"387 245 QCURVE",
"387 527 LINE",
"544 527 LINE",
"544 236 LINE",
"544 169 OFFCURVE",
"507 75 OFFCURVE",
"441 17 OFFCURVE",
"350 -8 OFFCURVE",
"298 -8 QCURVE",
"241 -8 OFFCURVE",
"149 20 OFFCURVE",
"86 80 OFFCURVE",
"53 173 OFFCURVE",
"53 236 QCURVE",
"53 527 LINE",
"210 527 LINE",
"210 245 LINE",
"210 197 OFFCURVE",
"250 135 OFFCURVE",
"299 134 QCURVE"
);
}
);
width = 597;
}
);
unicode = 0075;
},
{
color = (153, 249, 255, 255);
glyphname = v;
layers = (
{
layerId = "890F39B9-B224-45DC-BFF4-46A200F8FC77";
paths = (
{
closed = 1;
nodes = (
"401 527 LINE",
"574 527 LINE",
"380 0 LINE",
"195 0 LINE",
"1 527 LINE",
"175 527 LINE",
"288 174 LINE"
);
}
);
width = 575;
}
);
unicode = 0076;
},
{
color = (153, 249, 255, 255);
glyphname = w;
layers = (
{
layerId = "890F39B9-B224-45DC-BFF4-46A200F8FC77";
paths = (
{
closed = 1;
nodes = (
"166 0 LINE",
"1 527 LINE",
"175 527 LINE",
"262 186 LINE",
"359 527 LINE",
"522 527 LINE",
"619 186 LINE",
"705 527 LINE",
"872 527 LINE",
"707 0 LINE",
"534 0 LINE",
"437 328 LINE",
"341 0 LINE"
);
}
);
width = 873;
}
);
leftKerningGroup = _kern20;
rightKerningGroup = _kern20;
unicode = 0077;
},
{
color = (153, 249, 255, 255);
glyphname = x;
layers = (
{
layerId = "890F39B9-B224-45DC-BFF4-46A200F8FC77";
paths = (
{
closed = 1;
nodes = (
"372 527 LINE",
"550 527 LINE",
"379 266 LINE",
"562 0 LINE",
"379 0 LINE",
"278 164 LINE",
"178 0 LINE",
"1 0 LINE",
"179 268 LINE",
"10 527 LINE",
"193 527 LINE",
"283 370 LINE"
);
}
);
width = 563;
}
);
unicode = 0078;
},
{
color = (153, 249, 255, 255);
glyphname = z;
layers = (
{
layerId = "890F39B9-B224-45DC-BFF4-46A200F8FC77";
paths = (
{
closed = 1;
nodes = (
"480 412 LINE",
"240 140 LINE",
"480 140 LINE",
"480 0 LINE",
"34 0 LINE",
"34 115 LINE",
"273 387 LINE",
"34 387 LINE",
"34 527 LINE",
"480 527 LINE"
);
}
);
width = 514;
}
);
unicode = 007A;
},
{
color = (153, 249, 255, 255);
glyphname = period;
layers = (
{
layerId = "890F39B9-B224-45DC-BFF4-46A200F8FC77";
paths = (
{
closed = 1;
nodes = (
"189 180 OFFCURVE",
"243 130 OFFCURVE",
"243 83 QCURVE",
"243 35 OFFCURVE",
"189 -13 OFFCURVE",
"149 -13 QCURVE",
"108 -13 OFFCURVE",
"54 35 OFFCURVE",
"54 83 QCURVE",
"54 129 OFFCURVE",
"109 180 OFFCURVE",
"149 180 QCURVE"
);
}
);
width = 297;
}
);
leftKerningGroup = _kern14;
rightKerningGroup = _kern14;
unicode = 002E;
},
{
color = (153, 249, 255, 255);
glyphname = comma;
layers = (
{
layerId = "890F39B9-B224-45DC-BFF4-46A200F8FC77";
paths = (
{
closed = 1;
nodes = (
"114 -6 OFFCURVE",
"64 39 OFFCURVE",
"64 81 QCURVE",
"64 128 OFFCURVE",
"124 176 OFFCURVE",
"164 176 QCURVE",
"216 176 OFFCURVE",
"269 102 OFFCURVE",
"267 48 QCURVE",
"266 9 OFFCURVE",
"236 -64 OFFCURVE",
"188 -123 OFFCURVE",
"128 -165 OFFCURVE",
"97 -175 QCURVE",
"54 -110 LINE",
"67 -103 OFFCURVE",
"96 -81 OFFCURVE",
"123 -54 OFFCURVE",
"143 -24 OFFCURVE",
"148 -9 QCURVE"
);
}
);
width = 322;
}
);
leftKerningGroup = _kern14;
rightKerningGroup = _kern14;
unicode = 002C;
},
{
color = (153, 249, 255, 255);
glyphname = A;
layers = (
{
layerId = "890F39B9-B224-45DC-BFF4-46A200F8FC77";
paths = (
{
closed = 1;
nodes = (
"269 263 LINE",
"459 263 LINE",
"365 530 LINE"
);
},
{
closed = 1;
nodes = (
"219 117 LINE",
"176 0 LINE",
"0 0 LINE",
"279 708 LINE",
"453 708 LINE",
"728 0 LINE",
"551 0 LINE",
"509 117 LINE"
);
}
);
width = 730;
}
);
leftKerningGroup = _kern30;
rightKerningGroup = _kern30;
unicode = 0041;
},
{
color = (248, 153, 255, 255);
glyphname = breve;
layers = (
{
layerId = "890F39B9-B224-45DC-BFF4-46A200F8FC77";
paths = (
{
closed = 1;
nodes = (
"226 760 LINE",
"227 726 OFFCURVE",
"260 690 OFFCURVE",
"295 690 QCURVE",
"330 690 OFFCURVE",
"363 726 OFFCURVE",
"364 760 QCURVE",
"490 760 LINE",
"489 668 OFFCURVE",
"383 583 OFFCURVE",
"295 583 QCURVE",
"207 583 OFFCURVE",
"101 668 OFFCURVE",
"100 760 QCURVE"
);
}
);
width = 590;
}
);
unicode = 02D8;
},
{
color = (248, 153, 255, 255);
glyphname = circumflex;
layers = (
{
layerId = "890F39B9-B224-45DC-BFF4-46A200F8FC77";
paths = (
{
closed = 1;
nodes = (
"520 584 LINE",
"374 584 LINE",
"309 671 LINE",
"246 584 LINE",
"100 584 LINE",
"258 769 LINE",
"360 769 LINE"
);
}
);
width = 620;
}
);
unicode = 02C6;
},
{
color = (248, 153, 255, 255);
glyphname = uni0326;
layers = (
{
layerId = "890F39B9-B224-45DC-BFF4-46A200F8FC77";
paths = (
{
closed = 1;
nodes = (
"-326 -178 OFFCURVE",
"-363 -145 OFFCURVE",
"-363 -115 QCURVE",
"-363 -82 OFFCURVE",
"-322 -46 OFFCURVE",
"-290 -46 QCURVE",
"-252 -46 OFFCURVE",
"-210 -100 OFFCURVE",
"-210 -136 QCURVE",
"-210 -165 OFFCURVE",
"-231 -217 OFFCURVE",
"-266 -261 OFFCURVE",
"-313 -292 OFFCURVE",
"-337 -301 QCURVE",
"-370 -253 LINE",
"-360 -247 OFFCURVE",
"-337 -231 OFFCURVE",
"-318 -212 OFFCURVE",
"-303 -190 OFFCURVE",
"-300 -180 QCURVE"
);
}
);
width = 0;
}
);
unicode = 0326;
},
{
color = (153, 249, 255, 255);
glyphname = exclam;
layers = (
{
layerId = "890F39B9-B224-45DC-BFF4-46A200F8FC77";
paths = (
{
closed = 1;
nodes = (
"201 179 OFFCURVE",
"256 131 OFFCURVE",
"256 84 QCURVE",
"256 61 OFFCURVE",
"240 26 OFFCURVE",
"214 3 OFFCURVE",
"180 -9 OFFCURVE",
"161 -9 QCURVE",
"122 -9 OFFCURVE",
"64 37 OFFCURVE",
"64 84 QCURVE",
"64 131 OFFCURVE",
"121 179 OFFCURVE",
"161 179 QCURVE"
);
},
{
closed = 1;
nodes = (
"233 242 LINE",
"88 242 LINE",
"76 708 LINE",
"246 708 LINE"
);
}
);
width = 320;
}
);
unicode = 0021;
},
{
color = (153, 249, 255, 255);
glyphname = quotedbl;
layers = (
{
layerId = "890F39B9-B224-45DC-BFF4-46A200F8FC77";
paths = (
{
closed = 1;
nodes = (
"367 425 LINE",
"261 425 LINE",
"241 708 LINE",
"391 708 LINE"
);
},
{
closed = 1;
nodes = (
"171 425 LINE",
"65 425 LINE",
"46 708 LINE",
"194 708 LINE"
);
}
);
width = 437;
}
);
unicode = 0022;
},
{
color = (153, 249, 255, 255);
glyphname = quotesingle;
layers = (
{
layerId = "890F39B9-B224-45DC-BFF4-46A200F8FC77";
paths = (
{
closed = 1;
nodes = (
"182 425 LINE",
"76 425 LINE",
"54 708 LINE",
"206 708 LINE"
);
}
);
width = 260;
}
);
unicode = 0027;
},
{
color = (153, 249, 255, 255);
glyphname = numbersign;
layers = (
{
layerId = "890F39B9-B224-45DC-BFF4-46A200F8FC77";
paths = (
{
closed = 1;
nodes = (
"548 542 LINE",
"640 542 LINE",
"640 406 LINE",
"532 406 LINE",
"519 301 LINE",
"611 301 LINE",
"611 165 LINE",
"503 165 LINE",
"497 122 OFFCURVE",
"487 42 OFFCURVE",
"482 0 QCURVE",
"354 0 LINE",
"373 165 LINE",
"268 165 LINE",
"248 0 LINE",
"117 0 LINE",
"138 165 LINE",
"46 165 LINE",
"46 301 LINE",
"155 301 LINE",
"154 301 LINE",
"167 406 LINE",
"74 406 LINE",
"74 542 LINE",
"183 542 LINE",
"204 708 LINE",
"332 708 LINE",
"313 542 LINE",
"418 542 LINE",
"439 708 LINE",
"568 708 LINE"
);
},
{
closed = 1;
nodes = (
"390 301 LINE",
"402 406 LINE",
"296 406 LINE",
"284 301 LINE"
);
}
);
width = 686;
}
);
unicode = 0023;
},
{
color = (153, 249, 255, 255);
glyphname = percent;
layers = (
{
layerId = "890F39B9-B224-45DC-BFF4-46A200F8FC77";
paths = (
{
closed = 1;
nodes = (
"641 -11 OFFCURVE",
"575 15 OFFCURVE",
"528 62 OFFCURVE",
"502 127 OFFCURVE",
"502 167 QCURVE",
"502 208 OFFCURVE",
"528 275 OFFCURVE",
"575 322 OFFCURVE",
"641 348 OFFCURVE",
"682 348 QCURVE",
"764 348 OFFCURVE",
"861 251 OFFCURVE",
"861 167 QCURVE",
"861 127 OFFCURVE",
"835 62 OFFCURVE",
"788 15 OFFCURVE",
"722 -11 OFFCURVE",
"682 -11 QCURVE"
);
},
{
closed = 1;
nodes = (
"184 361 OFFCURVE",
"117 387 OFFCURVE",
"71 434 OFFCURVE",
"46 500 OFFCURVE",
"46 540 QCURVE",
"46 580 OFFCURVE",
"72 647 OFFCURVE",
"118 694 OFFCURVE",
"184 720 OFFCURVE",
"225 720 QCURVE",
"307 720 OFFCURVE",
"404 623 OFFCURVE",
"404 540 QCURVE",
"404 500 OFFCURVE",
"378 434 OFFCURVE",
"332 387 OFFCURVE",
"265 361 OFFCURVE",
"225 361 QCURVE"
);
},
{
closed = 1;
nodes = (
"138 0 LINE",
"604 708 LINE",
"764 708 LINE",
"301 0 LINE"
);
},
{
closed = 1;
nodes = (
"193 603 OFFCURVE",
"165 566 OFFCURVE",
"165 542 QCURVE",
"165 516 OFFCURVE",
"191 477 OFFCURVE",
"225 477 QCURVE",
"257 477 OFFCURVE",
"284 515 OFFCURVE",
"284 540 QCURVE",
"284 564 OFFCURVE",
"257 603 OFFCURVE",
"225 603 QCURVE"
);
},
{
closed = 1;
nodes = (
"651 231 OFFCURVE",
"622 193 OFFCURVE",
"622 168 QCURVE",
"622 142 OFFCURVE",
"648 104 OFFCURVE",
"682 104 QCURVE",
"714 104 OFFCURVE",
"741 142 OFFCURVE",
"741 167 QCURVE",
"741 192 OFFCURVE",
"714 231 OFFCURVE",
"682 231 QCURVE"
);
}
);
width = 907;
}
);
unicode = 0025;
},
{
color = (153, 249, 255, 255);
glyphname = asterisk;
layers = (
{
layerId = "890F39B9-B224-45DC-BFF4-46A200F8FC77";
paths = (
{
closed = 1;
nodes = (
"189 627 LINE",
"186 653 OFFCURVE",
"181 702 OFFCURVE",
"179 727 QCURVE",
"308 727 LINE",
"305 702 OFFCURVE",
"300 653 OFFCURVE",
"298 627 QCURVE",
"391 668 LINE",
"431 545 LINE",
"332 523 LINE",
"349 504 OFFCURVE",
"382 466 OFFCURVE",
"399 447 QCURVE",
"294 371 LINE",
"243 458 LINE",
"192 371 LINE",
"87 447 LINE",
"155 523 LINE",
"56 545 LINE",
"96 668 LINE"
);
}
);
width = 487;
}
);
unicode = 002A;
},
{
color = (153, 249, 255, 255);
glyphname = plus;
layers = (
{
layerId = "890F39B9-B224-45DC-BFF4-46A200F8FC77";
paths = (
{
closed = 1;
nodes = (
"370 292 LINE",
"370 117 LINE",
"233 117 LINE",
"233 292 LINE",
"61 292 LINE",
"61 430 LINE",
"233 430 LINE",
"233 603 LINE",
"370 603 LINE",
"370 430 LINE",
"543 430 LINE",
"543 292 LINE"
);
}
);
width = 604;
}
);
unicode = 002B;
},
{
color = (153, 249, 255, 255);
glyphname = slash;
layers = (
{
layerId = "890F39B9-B224-45DC-BFF4-46A200F8FC77";
paths = (
{
closed = 1;
nodes = (
"26 -165 LINE",
"104 73 OFFCURVE",
"260 543 OFFCURVE",
"339 781 QCURVE",
"493 781 LINE",
"180 -165 LINE"
);
}
);
width = 519;
}
);
unicode = 002F;
},
{
color = (153, 249, 255, 255);
glyphname = colon;
layers = (
{
layerId = "890F39B9-B224-45DC-BFF4-46A200F8FC77";
paths = (
{
closed = 1;
nodes = (
"192 528 OFFCURVE",
"246 475 OFFCURVE",
"246 430 QCURVE",
"246 382 OFFCURVE",
"192 334 OFFCURVE",
"150 334 QCURVE",
"109 334 OFFCURVE",
"54 382 OFFCURVE",
"54 430 QCURVE",
"54 475 OFFCURVE",
"110 528 OFFCURVE",
"150 528 QCURVE"
);
},
{
closed = 1;
nodes = (
"192 184 OFFCURVE",
"246 132 OFFCURVE",
"246 87 QCURVE",
"246 39 OFFCURVE",
"192 -9 OFFCURVE",
"150 -9 QCURVE",
"109 -9 OFFCURVE",
"54 39 OFFCURVE",
"54 87 QCURVE",
"54 132 OFFCURVE",
"110 184 OFFCURVE",
"150 184 QCURVE"
);
}
);
width = 300;
}
);
leftKerningGroup = _kern15;
unicode = 003A;
},
{
color = (153, 249, 255, 255);
glyphname = semicolon;
layers = (
{
layerId = "890F39B9-B224-45DC-BFF4-46A200F8FC77";
paths = (
{
closed = 1;
nodes = (
"113 -5 OFFCURVE",
"65 41 OFFCURVE",
"65 82 QCURVE",
"65 130 OFFCURVE",
"123 177 OFFCURVE",
"164 177 QCURVE",
"191 177 OFFCURVE",
"229 157 OFFCURVE",
"255 122 OFFCURVE",
"267 76 OFFCURVE",
"267 51 QCURVE",
"267 12 OFFCURVE",
"239 -60 OFFCURVE",
"192 -120 OFFCURVE",
"131 -164 OFFCURVE",
"98 -175 QCURVE",
"54 -109 LINE",
"67 -102 OFFCURVE",
"97 -79 OFFCURVE",
"123 -52 OFFCURVE",
"143 -22 OFFCURVE",
"148 -8 QCURVE"
);
},
{
closed = 1;
nodes = (
"206 528 OFFCURVE",
"260 475 OFFCURVE",
"260 430 QCURVE",
"260 382 OFFCURVE",
"206 334 OFFCURVE",
"165 334 QCURVE",
"123 334 OFFCURVE",
"68 382 OFFCURVE",
"68 430 QCURVE",
"68 475 OFFCURVE",
"124 528 OFFCURVE",
"165 528 QCURVE"
);
}
);
width = 321;
}
);
leftKerningGroup = _kern15;
unicode = 003B;
},
{
color = (153, 249, 255, 255);
glyphname = less;
layers = (
{
layerId = "890F39B9-B224-45DC-BFF4-46A200F8FC77";
paths = (
{
closed = 1;
nodes = (
"443 491 LINE",
"221 363 LINE",
"443 232 LINE",
"443 71 LINE",
"26 318 LINE",
"26 398 LINE",
"443 648 LINE"
);
}
);
width = 499;
}
);
unicode = 003C;
},
{
color = (153, 249, 255, 255);
glyphname = equal;
layers = (
{
layerId = "890F39B9-B224-45DC-BFF4-46A200F8FC77";
paths = (
{
closed = 1;
nodes = (
"56 410 LINE",
"56 547 LINE",
"520 547 LINE",
"520 410 LINE"
);
},
{
closed = 1;
nodes = (
"56 156 LINE",
"56 294 LINE",
"520 294 LINE",
"520 156 LINE"
);
}
);
width = 576;
}
);
unicode = 003D;
},
{
color = (153, 249, 255, 255);
glyphname = greater;
layers = (
{
layerId = "890F39B9-B224-45DC-BFF4-46A200F8FC77";
paths = (
{
closed = 1;
nodes = (
"56 230 LINE",
"277 359 LINE",
"56 489 LINE",
"56 649 LINE",
"472 403 LINE",
"472 323 LINE",
"56 72 LINE"
);
}
);
width = 498;
}
);
unicode = 003E;
},
{
color = (153, 249, 255, 255);
glyphname = at;
layers = (
{
layerId = "890F39B9-B224-45DC-BFF4-46A200F8FC77";
paths = (
{
closed = 1;
nodes = (
"402 236 OFFCURVE",
"443 170 OFFCURVE",
"489 168 QCURVE",
"518 168 OFFCURVE",
"556 194 OFFCURVE",
"579 233 OFFCURVE",
"588 279 OFFCURVE",
"588 299 QCURVE",
"588 317 OFFCURVE",
"579 352 OFFCURVE",
"559 380 OFFCURVE",
"529 397 OFFCURVE",
"508 397 QCURVE",
"482 397 OFFCURVE",
"443 378 OFFCURVE",
"417 346 OFFCURVE",
"403 303 OFFCURVE",
"402 280 QCURVE"
);
},
{
closed = 1;
nodes = (
"387 -161 OFFCURVE",
"231 -102 OFFCURVE",
"119 6 OFFCURVE",
"57 162 OFFCURVE",
"57 261 QCURVE",
"57 377 OFFCURVE",
"132 552 OFFCURVE",
"261 668 OFFCURVE",
"432 726 OFFCURVE",
"527 726 QCURVE",
"620 726 OFFCURVE",
"776 671 OFFCURVE",
"887 566 OFFCURVE",
"949 413 OFFCURVE",
"949 315 QCURVE",
"949 263 OFFCURVE",
"926 166 OFFCURVE",
"878 91 OFFCURVE",
"804 45 OFFCURVE",
"753 44 QCURVE",
"736 44 OFFCURVE",
"697 50 OFFCURVE",
"660 68 OFFCURVE",
"629 101 OFFCURVE",
"619 127 QCURVE",
"606 107 OFFCURVE",
"570 77 OFFCURVE",
"530 58 OFFCURVE",
"487 49 OFFCURVE",
"468 49 QCURVE",
"422 49 OFFCURVE",
"352 83 OFFCURVE",
"304 143 OFFCURVE",
"279 223 OFFCURVE",
"279 270 QCURVE",
"280 325 OFFCURVE",
"314 415 OFFCURVE",
"373 480 OFFCURVE",
"452 516 OFFCURVE",
"499 516 QCURVE",
"517 516 OFFCURVE",
"555 509 OFFCURVE",
"591 493 OFFCURVE",
"620 466 OFFCURVE",
"628 447 QCURVE",
"648 494 LINE",
"736 483 LINE",
"722 411 OFFCURVE",
"701 284 OFFCURVE",
"701 235 QCURVE",
"701 223 OFFCURVE",
"705 198 OFFCURVE",
"716 179 OFFCURVE",
"735 166 OFFCURVE",
"751 165 QCURVE",
"773 165 OFFCURVE",
"801 195 OFFCURVE",
"817 239 OFFCURVE",
"822 290 OFFCURVE",
"822 312 QCURVE",
"822 379 OFFCURVE",
"783 485 OFFCURVE",
"708 560 OFFCURVE",
"598 600 OFFCURVE",
"527 600 QCURVE",
"446 600 OFFCURVE",
"322 550 OFFCURVE",
"237 462 OFFCURVE",
"192 343 OFFCURVE",
"191 273 QCURVE",
"191 207 OFFCURVE",
"229 96 OFFCURVE",
"303 15 OFFCURVE",
"413 -31 OFFCURVE",
"485 -31 QCURVE",
"526 -31 OFFCURVE",
"581 -23 OFFCURVE",
"611 -15 QCURVE",
"629 -143 LINE",
"557 -162 OFFCURVE",
"480 -162 QCURVE"
);
}
);
width = 1005;
}
);
unicode = 0040;
},
{
color = (153, 249, 255, 255);
glyphname = bracketleft;
layers = (
{
layerId = "890F39B9-B224-45DC-BFF4-46A200F8FC77";
paths = (
{
closed = 1;
nodes = (
"74 781 LINE",
"347 781 LINE",
"347 645 LINE",
"227 645 LINE",
"227 -30 LINE",
"347 -30 LINE",
"347 -166 LINE",
"74 -166 LINE"
);
}
);
width = 369;
}
);
unicode = 005B;
},
{
color = (153, 249, 255, 255);
glyphname = bracketright;
layers = (
{
layerId = "890F39B9-B224-45DC-BFF4-46A200F8FC77";
paths = (
{
closed = 1;
nodes = (
"294 -166 LINE",
"22 -166 LINE",
"22 -30 LINE",
"141 -30 LINE",
"141 645 LINE",
"22 645 LINE",
"22 781 LINE",
"294 781 LINE"
);
}
);
width = 368;
}
);
unicode = 005D;
},
{
color = (153, 249, 255, 255);
glyphname = backslash;
layers = (
{
layerId = "890F39B9-B224-45DC-BFF4-46A200F8FC77";
paths = (
{
closed = 1;
nodes = (
"339 -166 LINE",
"26 781 LINE",
"180 781 LINE",
"494 -166 LINE"
);
}
);
width = 520;
}
);
unicode = 005C;
},
{
color = (153, 249, 255, 255);
glyphname = asciicircum;
layers = (
{
layerId = "890F39B9-B224-45DC-BFF4-46A200F8FC77";
paths = (
{
closed = 1;
nodes = (
"363 444 LINE",
"279 585 LINE",
"193 444 LINE",
"46 444 LINE",
"222 709 LINE",
"332 709 LINE",
"514 444 LINE"
);
}
);
width = 560;
}
);
unicode = 005E;
},
{
color = (153, 249, 255, 255);
glyphname = underscore;
layers = (
{
layerId = "890F39B9-B224-45DC-BFF4-46A200F8FC77";
paths = (
{
closed = 1;
nodes = (
"-16 -153 LINE",
"-16 -17 LINE",
"448 -17 LINE",
"448 -153 LINE"
);
}
);
width = 432;
}
);
unicode = 005F;
},
{
color = (153, 249, 255, 255);
glyphname = braceleft;
layers = (
{
layerId = "890F39B9-B224-45DC-BFF4-46A200F8FC77";
paths = (
{
closed = 1;
nodes = (
"246 292 OFFCURVE",
"267 223 OFFCURVE",
"267 189 QCURVE",
"267 24 LINE",
"267 16 OFFCURVE",
"269 -3 OFFCURVE",
"278 -19 OFFCURVE",
"296 -29 OFFCURVE",
"313 -29 QCURVE",
"377 -29 LINE",
"377 -165 LINE",
"260 -165 LINE",
"194 -165 OFFCURVE",
"116 -105 OFFCURVE",
"116 -31 QCURVE",
"116 163 LINE",
"116 173 OFFCURVE",
"114 199 OFFCURVE",
"103 223 OFFCURVE",
"79 240 OFFCURVE",
"57 240 QCURVE",
"24 240 LINE",
"24 376 LINE",
"57 376 LINE",
"79 376 OFFCURVE",
"103 393 OFFCURVE",
"114 417 OFFCURVE",
"116 444 OFFCURVE",
"116 454 QCURVE",
"116 648 LINE",
"116 721 OFFCURVE",
"193 781 OFFCURVE",
"260 781 QCURVE",
"377 781 LINE",
"377 645 LINE",
"313 645 LINE",
"296 645 OFFCURVE",
"278 635 OFFCURVE",
"269 620 OFFCURVE",
"267 601 OFFCURVE",
"267 592 QCURVE",
"267 427 LINE",
"267 392 OFFCURVE",
"246 324 OFFCURVE",
"218 308 QCURVE"
);
}
);
width = 423;
}
);
unicode = 007B;
},
{
color = (153, 249, 255, 255);
glyphname = bar;
layers = (
{
layerId = "890F39B9-B224-45DC-BFF4-46A200F8FC77";
paths = (
{
closed = 1;
nodes = (
"74 -169 LINE",
"74 797 LINE",
"219 797 LINE",
"219 -169 LINE"
);
}
);
width = 293;
}
);
unicode = 007C;
},
{
color = (153, 249, 255, 255);
glyphname = braceright;
layers = (
{
layerId = "890F39B9-B224-45DC-BFF4-46A200F8FC77";
paths = (
{
closed = 1;
nodes = (
"191 314 OFFCURVE",
"172 340 OFFCURVE",
"161 373 OFFCURVE",
"156 410 OFFCURVE",
"156 427 QCURVE",
"156 592 LINE",
"156 601 OFFCURVE",
"154 620 OFFCURVE",
"145 635 OFFCURVE",
"126 645 OFFCURVE",
"110 645 QCURVE",
"46 645 LINE",
"46 781 LINE",
"164 781 LINE",
"232 781 OFFCURVE",
"307 720 OFFCURVE",
"307 648 QCURVE",
"307 454 LINE",
"307 443 OFFCURVE",
"309 416 OFFCURVE",
"320 392 OFFCURVE",
"344 376 OFFCURVE",
"366 376 QCURVE",
"399 376 LINE",
"399 240 LINE",
"366 240 LINE",
"344 240 OFFCURVE",
"320 223 OFFCURVE",
"309 199 OFFCURVE",
"307 173 OFFCURVE",
"307 163 QCURVE",
"307 -31 LINE",
"307 -103 OFFCURVE",
"231 -165 OFFCURVE",
"164 -165 QCURVE",
"46 -165 LINE",
"46 -29 LINE",
"110 -29 LINE",
"126 -29 OFFCURVE",
"145 -19 OFFCURVE",
"154 -4 OFFCURVE",
"156 16 OFFCURVE",
"156 25 QCURVE",
"156 189 LINE",
"156 205 OFFCURVE",
"161 241 OFFCURVE",
"173 273 OFFCURVE",
"192 300 OFFCURVE",
"206 308 QCURVE"
);
}
);
width = 423;
}
);
unicode = 007D;
},
{
color = (153, 249, 255, 255);
glyphname = Euro;
layers = (
{
layerId = "890F39B9-B224-45DC-BFF4-46A200F8FC77";
paths = (
{
closed = 1;
nodes = (
"415 -8 OFFCURVE",
"311 20 OFFCURVE",
"227 76 OFFCURVE",
"168 157 OFFCURVE",
"154 210 QCURVE",
"36 210 LINE",
"60 331 LINE",
"136 331 LINE",
"136 378 LINE",
"43 378 LINE",
"48 408 OFFCURVE",
"61 468 OFFCURVE",
"66 499 QCURVE",
"156 499 LINE",
"175 553 OFFCURVE",
"238 634 OFFCURVE",
"320 688 OFFCURVE",
"418 715 OFFCURVE",
"472 715 QCURVE",
"545 715 OFFCURVE",
"656 676 OFFCURVE",
"707 625 QCURVE",
"626 516 LINE",
"612 529 OFFCURVE",
"582 550 OFFCURVE",
"547 566 OFFCURVE",
"505 575 OFFCURVE",
"478 575 QCURVE",
"434 575 OFFCURVE",
"351 539 OFFCURVE",
"329 499 QCURVE",
"567 499 LINE",
"544 378 LINE",
"296 378 LINE",
"295 366 OFFCURVE",
"296 342 OFFCURVE",
"296 331 QCURVE",
"538 331 LINE",
"532 300 OFFCURVE",
"520 241 OFFCURVE",
"515 210 QCURVE",
"328 210 LINE",
"345 172 OFFCURVE",
"429 137 OFFCURVE",
"478 137 QCURVE",
"525 137 OFFCURVE",
"600 167 OFFCURVE",
"632 199 QCURVE",
"715 88 LINE",
"669 37 OFFCURVE",
"550 -8 OFFCURVE",
"475 -8 QCURVE"
);
}
);
width = 751;
}
);
unicode = 20AC;
},
{
color = (153, 249, 255, 255);
glyphname = quotedblbase;
layers = (
{
layerId = "890F39B9-B224-45DC-BFF4-46A200F8FC77";
paths = (
{
closed = 1;
nodes = (
"109 -5 OFFCURVE",
"64 40 OFFCURVE",
"64 79 QCURVE",
"64 124 OFFCURVE",
"119 169 OFFCURVE",
"158 169 QCURVE",
"183 169 OFFCURVE",
"220 149 OFFCURVE",
"244 116 OFFCURVE",
"256 73 OFFCURVE",
"256 49 QCURVE",
"256 12 OFFCURVE",
"229 -56 OFFCURVE",
"184 -113 OFFCURVE",
"126 -155 OFFCURVE",
"95 -165 QCURVE",
"54 -104 LINE",
"67 -97 OFFCURVE",
"95 -74 OFFCURVE",
"120 -49 OFFCURVE",
"139 -21 OFFCURVE",
"143 -7 QCURVE"
);
},
{
closed = 1;
nodes = (
"348 -5 OFFCURVE",
"303 40 OFFCURVE",
"303 79 QCURVE",
"303 124 OFFCURVE",
"359 169 OFFCURVE",
"398 169 QCURVE",
"423 169 OFFCURVE",
"460 149 OFFCURVE",
"484 116 OFFCURVE",
"495 73 OFFCURVE",
"495 49 QCURVE",
"495 12 OFFCURVE",
"468 -56 OFFCURVE",
"423 -113 OFFCURVE",
"365 -155 OFFCURVE",
"334 -165 QCURVE",
"293 -104 LINE",
"306 -97 OFFCURVE",
"334 -74 OFFCURVE",
"359 -49 OFFCURVE",
"378 -21 OFFCURVE",
"382 -7 QCURVE"
);
}
);
width = 550;
}
);
leftKerningGroup = _kern14;
rightKerningGroup = _kern14;
unicode = 201E;
},
{
color = (153, 249, 255, 255);
glyphname = quotesinglbase;
layers = (
{
layerId = "890F39B9-B224-45DC-BFF4-46A200F8FC77";
paths = (
{
closed = 1;
nodes = (
"109 -5 OFFCURVE",
"64 40 OFFCURVE",
"64 79 QCURVE",
"64 124 OFFCURVE",
"119 169 OFFCURVE",
"158 169 QCURVE",
"183 169 OFFCURVE",
"220 149 OFFCURVE",
"244 116 OFFCURVE",
"256 73 OFFCURVE",
"256 49 QCURVE",
"256 12 OFFCURVE",
"228 -57 OFFCURVE",
"183 -114 OFFCURVE",
"125 -156 OFFCURVE",
"95 -165 QCURVE",
"54 -104 LINE",
"67 -97 OFFCURVE",
"95 -74 OFFCURVE",
"120 -49 OFFCURVE",
"139 -21 OFFCURVE",
"142 -7 QCURVE"
);
}
);
width = 311;
}
);
unicode = 201A;
},
{
color = (153, 249, 255, 255);
glyphname = quotedblright;
layers = (
{
layerId = "890F39B9-B224-45DC-BFF4-46A200F8FC77";
paths = (
{
closed = 1;
nodes = (
"109 565 OFFCURVE",
"64 610 OFFCURVE",
"64 649 QCURVE",
"64 694 OFFCURVE",
"119 739 OFFCURVE",
"158 739 QCURVE",
"183 739 OFFCURVE",
"220 719 OFFCURVE",
"244 686 OFFCURVE",
"256 643 OFFCURVE",
"256 619 QCURVE",
"256 582 OFFCURVE",
"229 513 OFFCURVE",
"184 457 OFFCURVE",
"126 415 OFFCURVE",
"95 405 QCURVE",
"85 421 OFFCURVE",
"64 451 OFFCURVE",
"54 467 QCURVE",
"67 474 OFFCURVE",
"95 496 OFFCURVE",
"120 522 OFFCURVE",
"139 550 OFFCURVE",
"143 563 QCURVE"
);
},
{
closed = 1;
nodes = (
"348 565 OFFCURVE",
"303 610 OFFCURVE",
"303 649 QCURVE",
"303 694 OFFCURVE",
"359 739 OFFCURVE",
"398 739 QCURVE",
"423 739 OFFCURVE",
"460 719 OFFCURVE",
"484 686 OFFCURVE",
"495 643 OFFCURVE",
"495 619 QCURVE",
"495 582 OFFCURVE",
"468 513 OFFCURVE",
"423 457 OFFCURVE",
"365 415 OFFCURVE",
"334 405 QCURVE",
"324 421 OFFCURVE",
"303 451 OFFCURVE",
"293 467 QCURVE",
"306 474 OFFCURVE",
"334 496 OFFCURVE",
"359 522 OFFCURVE",
"378 550 OFFCURVE",
"382 563 QCURVE"
);
}
);
width = 550;
}
);
unicode = 201D;
},
{
color = (153, 249, 255, 255);
glyphname = quoteright;
layers = (
{
layerId = "890F39B9-B224-45DC-BFF4-46A200F8FC77";
paths = (
{
closed = 1;
nodes = (
"109 565 OFFCURVE",
"64 610 OFFCURVE",
"64 649 QCURVE",
"64 694 OFFCURVE",
"119 739 OFFCURVE",
"158 739 QCURVE",
"183 739 OFFCURVE",
"220 719 OFFCURVE",
"244 686 OFFCURVE",
"256 643 OFFCURVE",
"256 619 QCURVE",
"256 582 OFFCURVE",
"228 513 OFFCURVE",
"183 456 OFFCURVE",
"125 414 OFFCURVE",
"95 405 QCURVE",
"85 421 OFFCURVE",
"64 451 OFFCURVE",
"54 467 QCURVE",
"67 474 OFFCURVE",
"95 496 OFFCURVE",
"120 522 OFFCURVE",
"139 550 OFFCURVE",
"142 563 QCURVE"
);
}
);
width = 311;
}
);
unicode = 2019;
},
{
color = (153, 249, 255, 255);
glyphname = quotedblleft;
layers = (
{
layerId = "890F39B9-B224-45DC-BFF4-46A200F8FC77";
paths = (
{
closed = 1;
nodes = (
"441 606 OFFCURVE",
"486 561 OFFCURVE",
"486 523 QCURVE",
"486 478 OFFCURVE",
"430 431 OFFCURVE",
"392 432 QCURVE",
"366 432 OFFCURVE",
"329 452 OFFCURVE",
"305 485 OFFCURVE",
"294 529 OFFCURVE",
"294 553 QCURVE",
"294 590 OFFCURVE",
"321 658 OFFCURVE",
"366 714 OFFCURVE",
"424 756 OFFCURVE",
"455 767 QCURVE",
"465 751 OFFCURVE",
"486 721 OFFCURVE",
"496 705 QCURVE",
"483 697 OFFCURVE",
"455 676 OFFCURVE",
"430 650 OFFCURVE",
"411 622 OFFCURVE",
"407 608 QCURVE"
);
},
{
closed = 1;
nodes = (
"202 606 OFFCURVE",
"247 561 OFFCURVE",
"247 523 QCURVE",
"247 478 OFFCURVE",
"191 431 OFFCURVE",
"152 432 QCURVE",
"127 432 OFFCURVE",
"90 452 OFFCURVE",
"66 485 OFFCURVE",
"55 529 OFFCURVE",
"55 553 QCURVE",
"55 590 OFFCURVE",
"82 658 OFFCURVE",
"127 714 OFFCURVE",
"185 756 OFFCURVE",
"216 767 QCURVE",
"226 751 OFFCURVE",
"247 721 OFFCURVE",
"257 705 QCURVE",
"244 697 OFFCURVE",
"216 676 OFFCURVE",
"191 650 OFFCURVE",
"172 622 OFFCURVE",
"168 608 QCURVE"
);
}
);
width = 550;
}
);
unicode = 201C;
},
{
color = (153, 249, 255, 255);
glyphname = quoteleft;
layers = (
{
layerId = "890F39B9-B224-45DC-BFF4-46A200F8FC77";
paths = (
{
closed = 1;
nodes = (
"201 606 OFFCURVE",
"247 561 OFFCURVE",
"247 523 QCURVE",
"247 478 OFFCURVE",
"190 431 OFFCURVE",
"152 432 QCURVE",
"127 432 OFFCURVE",
"90 452 OFFCURVE",
"66 485 OFFCURVE",
"55 529 OFFCURVE",
"55 553 QCURVE",
"55 590 OFFCURVE",
"82 658 OFFCURVE",
"127 714 OFFCURVE",
"184 756 OFFCURVE",
"215 767 QCURVE",
"257 705 LINE",
"244 697 OFFCURVE",
"216 676 OFFCURVE",
"191 650 OFFCURVE",
"172 622 OFFCURVE",
"168 608 QCURVE"
);
}
);
width = 311;
}
);
unicode = 2018;
},
{
color = (153, 249, 255, 255);
glyphname = minus;
layers = (
{
layerId = "890F39B9-B224-45DC-BFF4-46A200F8FC77";
paths = (
{
closed = 1;
nodes = (
"61 292 LINE",
"61 430 LINE",
"524 430 LINE",
"524 292 LINE"
);
}
);
width = 585;
}
);
unicode = 2212;
},
{
color = (153, 249, 255, 255);
glyphname = hyphen;
layers = (
{
layerId = "890F39B9-B224-45DC-BFF4-46A200F8FC77";
paths = (
{
closed = 1;
nodes = (
"406 224 LINE",
"61 224 LINE",
"61 362 LINE",
"406 362 LINE"
);
}
);
width = 467;
}
);
unicode = 002D;
},
{
color = (153, 249, 255, 255);
glyphname = endash;
layers = (
{
layerId = "890F39B9-B224-45DC-BFF4-46A200F8FC77";
paths = (
{
closed = 1;
nodes = (
"574 224 LINE",
"61 224 LINE",
"61 362 LINE",
"574 362 LINE"
);
}
);
width = 635;
}
);
unicode = 2013;
},
{
color = (153, 249, 255, 255);
glyphname = emdash;
layers = (
{
layerId = "890F39B9-B224-45DC-BFF4-46A200F8FC77";
paths = (
{
closed = 1;
nodes = (
"795 224 LINE",
"61 224 LINE",
"61 362 LINE",
"795 362 LINE"
);
}
);
width = 856;
}
);
unicode = 2014;
},
{
color = (248, 153, 255, 255);
glyphname = grave;
layers = (
{
layerId = "890F39B9-B224-45DC-BFF4-46A200F8FC77";
paths = (
{
closed = 1;
nodes = (
"199 584 LINE",
"46 769 LINE",
"209 769 LINE",
"329 584 LINE"
);
}
);
width = 421;
}
);
unicode = 0060;
},
{
color = (248, 153, 255, 255);
glyphname = acute;
layers = (
{
layerId = "890F39B9-B224-45DC-BFF4-46A200F8FC77";
paths = (
{
closed = 1;
nodes = (
"92 584 LINE",
"212 769 LINE",
"375 769 LINE",
"222 584 LINE"
);
}
);
width = 421;
}
);
unicode = 00B4;
},
{
color = (153, 249, 255, 255);
glyphname = guillemotright;
layers = (
{
layerId = "890F39B9-B224-45DC-BFF4-46A200F8FC77";
paths = (
{
closed = 1;
nodes = (
"46 468 LINE",
"197 468 LINE",
"332 273 LINE",
"197 79 LINE",
"46 79 LINE",
"184 273 LINE"
);
},
{
closed = 1;
nodes = (
"288 468 LINE",
"439 468 LINE",
"576 273 LINE",
"439 79 LINE",
"288 79 LINE",
"426 273 LINE"
);
}
);
width = 602;
}
);
unicode = 00BB;
},
{
color = (153, 249, 255, 255);
glyphname = guilsinglright;
layers = (
{
layerId = "890F39B9-B224-45DC-BFF4-46A200F8FC77";
paths = (
{
closed = 1;
nodes = (
"46 468 LINE",
"210 468 LINE",
"346 274 LINE",
"210 79 LINE",
"46 79 LINE",
"185 274 LINE"
);
}
);
width = 372;
}
);
unicode = 203A;
},
{
color = (153, 249, 255, 255);
glyphname = guillemotleft;
layers = (
{
layerId = "890F39B9-B224-45DC-BFF4-46A200F8FC77";
paths = (
{
closed = 1;
nodes = (
"176 274 LINE",
"314 79 LINE",
"162 79 LINE",
"26 274 LINE",
"162 468 LINE",
"314 468 LINE"
);
},
{
closed = 1;
nodes = (
"418 274 LINE",
"556 79 LINE",
"403 79 LINE",
"268 274 LINE",
"403 468 LINE",
"556 468 LINE"
);
}
);
width = 602;
}
);
unicode = 00AB;
},
{
color = (153, 249, 255, 255);
glyphname = guilsinglleft;
layers = (
{
layerId = "890F39B9-B224-45DC-BFF4-46A200F8FC77";
paths = (
{
closed = 1;
nodes = (
"187 274 LINE",
"325 79 LINE",
"161 79 LINE",
"26 274 LINE",
"161 468 LINE",
"325 468 LINE"
);
}
);
width = 371;
}
);
unicode = 2039;
},
{
color = (153, 249, 255, 255);
glyphname = uni00AD;
layers = (
{
layerId = "890F39B9-B224-45DC-BFF4-46A200F8FC77";
paths = (
{
closed = 1;
nodes = (
"406 225 LINE",
"61 225 LINE",
"61 361 LINE",
"406 361 LINE"
);
}
);
width = 467;
}
);
unicode = 00AD;
},
{
color = (153, 249, 255, 255);
glyphname = ellipsis;
layers = (
{
layerId = "890F39B9-B224-45DC-BFF4-46A200F8FC77";
paths = (
{
closed = 1;
nodes = (
"181 184 OFFCURVE",
"236 133 OFFCURVE",
"236 87 QCURVE",
"236 39 OFFCURVE",
"181 -9 OFFCURVE",
"140 -9 QCURVE",
"100 -9 OFFCURVE",
"44 39 OFFCURVE",
"44 87 QCURVE",
"44 133 OFFCURVE",
"101 184 OFFCURVE",
"140 184 QCURVE"
);
},
{
closed = 1;
nodes = (
"442 184 OFFCURVE",
"497 133 OFFCURVE",
"497 87 QCURVE",
"497 39 OFFCURVE",
"442 -9 OFFCURVE",
"401 -9 QCURVE",
"361 -9 OFFCURVE",
"305 39 OFFCURVE",
"305 87 QCURVE",
"305 133 OFFCURVE",
"362 184 OFFCURVE",
"401 184 QCURVE"
);
},
{
closed = 1;
nodes = (
"701 184 OFFCURVE",
"756 133 OFFCURVE",
"756 87 QCURVE",
"756 39 OFFCURVE",
"701 -9 OFFCURVE",
"661 -9 QCURVE",
"620 -9 OFFCURVE",
"564 39 OFFCURVE",
"564 87 QCURVE",
"564 133 OFFCURVE",
"622 184 OFFCURVE",
"661 184 QCURVE"
);
}
);
width = 800;
}
);
unicode = 2026;
},
{
color = (153, 249, 255, 255);
glyphname = uni0445;
layers = (
{
layerId = "890F39B9-B224-45DC-BFF4-46A200F8FC77";
paths = (
{
closed = 1;
nodes = (
"372 527 LINE",
"550 527 LINE",
"379 266 LINE",
"562 0 LINE",
"379 0 LINE",
"278 164 LINE",
"178 0 LINE",
"1 0 LINE",
"179 268 LINE",
"10 527 LINE",
"193 527 LINE",
"283 370 LINE"
);
}
);
width = 563;
}
);
unicode = 0445;
},
{
color = (153, 249, 255, 255);
glyphname = uni0431;
layers = (
{
layerId = "890F39B9-B224-45DC-BFF4-46A200F8FC77";
paths = (
{
closed = 1;
nodes = (
"34 433 OFFCURVE",
"74 589 OFFCURVE",
"127 644 QCURVE",
"154 670 OFFCURVE",
"216 703 OFFCURVE",
"286 721 OFFCURVE",
"362 732 OFFCURVE",
"399 735 QCURVE",
"430 738 OFFCURVE",
"485 745 OFFCURVE",
"523 751 OFFCURVE",
"551 755 OFFCURVE",
"563 760 QCURVE",
"563 600 LINE",
"539 592 OFFCURVE",
"479 586 OFFCURVE",
"446 584 QCURVE",
"420 583 OFFCURVE",
"360 580 OFFCURVE",
"301 571 OFFCURVE",
"246 553 OFFCURVE",
"205 518 OFFCURVE",
"181 464 OFFCURVE",
"181 422 QCURVE",
"199 445 OFFCURVE",
"242 477 OFFCURVE",
"291 496 OFFCURVE",
"340 504 OFFCURVE",
"364 504 QCURVE",
"417 504 OFFCURVE",
"503 468 OFFCURVE",
"563 403 OFFCURVE",
"594 316 OFFCURVE",
"594 265 QCURVE",
"594 201 OFFCURVE",
"553 100 OFFCURVE",
"481 29 OFFCURVE",
"379 -8 OFFCURVE",
"318 -8 QCURVE",
"239 -7 OFFCURVE",
"131 53 OFFCURVE",
"65 148 OFFCURVE",
"35 271 OFFCURVE",
"34 334 QCURVE"
);
},
{
closed = 1;
nodes = (
"347 133 OFFCURVE",
"392 152 OFFCURVE",
"420 182 OFFCURVE",
"435 225 OFFCURVE",
"435 246 QCURVE",
"435 292 OFFCURVE",
"379 358 OFFCURVE",
"324 358 QCURVE",
"271 358 OFFCURVE",
"204 297 OFFCURVE",
"204 249 QCURVE",
"204 228 OFFCURVE",
"217 186 OFFCURVE",
"244 154 OFFCURVE",
"289 133 OFFCURVE",
"319 133 QCURVE"
);
}
);
width = 628;
}
);
rightKerningGroup = _kern10;
unicode = 0431;
},
{
color = (153, 249, 255, 255);
glyphname = uni0432;
layers = (
{
layerId = "890F39B9-B224-45DC-BFF4-46A200F8FC77";
paths = (
{
closed = 1;
nodes = (
"344 527 LINE",
"376 527 OFFCURVE",
"440 515 OFFCURVE",
"492 483 OFFCURVE",
"524 427 OFFCURVE",
"524 385 QCURVE",
"524 354 OFFCURVE",
"494 297 OFFCURVE",
"468 282 QCURVE",
"504 267 OFFCURVE",
"541 204 OFFCURVE",
"541 162 QCURVE",
"541 111 OFFCURVE",
"499 47 OFFCURVE",
"434 12 OFFCURVE",
"358 0 OFFCURVE",
"324 0 QCURVE",
"55 0 LINE",
"55 527 LINE"
);
},
{
closed = 1;
nodes = (
"322 124 LINE",
"346 124 OFFCURVE",
"384 145 OFFCURVE",
"384 171 QCURVE",
"384 192 OFFCURVE",
"357 211 OFFCURVE",
"332 211 QCURVE",
"212 211 LINE",
"212 124 LINE"
);
},
{
closed = 1;
nodes = (
"322 323 LINE",
"342 323 OFFCURVE",
"372 344 OFFCURVE",
"372 363 QCURVE",
"373 381 OFFCURVE",
"347 403 OFFCURVE",
"325 403 QCURVE",
"212 403 LINE",
"212 323 LINE"
);
}
);
width = 578;
}
);
leftKerningGroup = _kern11;
unicode = 0432;
},
{
color = (153, 249, 255, 255);
glyphname = uni0433;
layers = (
{
layerId = "890F39B9-B224-45DC-BFF4-46A200F8FC77";
paths = (
{
closed = 1;
nodes = (
"446 527 LINE",
"446 387 LINE",
"212 387 LINE",
"212 0 LINE",
"55 0 LINE",
"55 527 LINE"
);
}
);
width = 457;
}
);
leftKerningGroup = _kern11;
rightKerningGroup = _kern24;
unicode = 0433;
},
{
color = (153, 249, 255, 255);
glyphname = uni0434;
layers = (
{
layerId = "890F39B9-B224-45DC-BFF4-46A200F8FC77";
paths = (
{
closed = 1;
nodes = (
"563 527 LINE",
"563 140 LINE",
"630 140 LINE",
"630 -142 LINE",
"474 -142 LINE",
"474 0 LINE",
"164 0 LINE",
"164 -142 LINE",
"9 -142 LINE",
"9 138 LINE",
"33 138 OFFCURVE",
"67 168 OFFCURVE",
"90 211 OFFCURVE",
"102 262 OFFCURVE",
"105 284 QCURVE",
"113 345 OFFCURVE",
"117 467 OFFCURVE",
"117 527 QCURVE"
);
},
{
closed = 1;
nodes = (
"405 140 LINE",
"405 387 LINE",
"257 387 LINE",
"255 358 OFFCURVE",
"254 294 OFFCURVE",
"248 229 OFFCURVE",
"235 168 OFFCURVE",
"222 140 QCURVE"
);
}
);
width = 639;
}
);
rightKerningGroup = _kern13;
unicode = 0434;
},
{
color = (153, 249, 255, 255);
glyphname = uni0436;
layers = (
{
layerId = "890F39B9-B224-45DC-BFF4-46A200F8FC77";
paths = (
{
closed = 1;
nodes = (
"508 191 LINE",
"508 0 LINE",
"350 0 LINE",
"350 191 LINE",
"274 191 LINE",
"182 0 LINE",
"1 0 LINE",
"146 276 LINE",
"9 527 LINE",
"182 527 LINE",
"278 331 LINE",
"350 331 LINE",
"350 527 LINE",
"508 527 LINE",
"508 331 LINE",
"581 331 LINE",
"675 527 LINE",
"849 527 LINE",
"710 276 LINE",
"857 0 LINE",
"676 0 LINE",
"585 191 LINE"
);
}
);
width = 859;
}
);
unicode = 0436;
},
{
color = (153, 249, 255, 255);
glyphname = uni043A;
layers = (
{
layerId = "890F39B9-B224-45DC-BFF4-46A200F8FC77";
paths = (
{
closed = 1;
nodes = (
"212 191 LINE",
"212 0 LINE",
"55 0 LINE",
"55 527 LINE",
"212 527 LINE",
"212 332 LINE",
"286 332 LINE",
"398 527 LINE",
"579 527 LINE",
"422 279 LINE",
"581 0 LINE",
"397 0 LINE",
"292 191 LINE"
);
}
);
width = 581;
}
);
leftKerningGroup = _kern11;
unicode = 043A;
},
{
color = (153, 249, 255, 255);
glyphname = uni0438;
layers = (
{
layerId = "890F39B9-B224-45DC-BFF4-46A200F8FC77";
paths = (
{
closed = 1;
nodes = (
"212 244 LINE",
"437 527 LINE",
"569 527 LINE",
"569 0 LINE",
"411 0 LINE",
"411 272 LINE",
"194 0 LINE",
"55 0 LINE",
"55 527 LINE",
"212 527 LINE"
);
}
);
width = 623;
}
);
leftKerningGroup = _kern11;
unicode = 0438;
},
{
color = (153, 249, 255, 255);
glyphname = uni0439;
layers = (
{
layerId = "890F39B9-B224-45DC-BFF4-46A200F8FC77";
paths = (
{
closed = 1;
nodes = (
"279 562 OFFCURVE",
"208 583 OFFCURVE",
"156 625 OFFCURVE",
"123 689 OFFCURVE",
"120 731 QCURVE",
"253 731 LINE",
"258 702 OFFCURVE",
"295 672 OFFCURVE",
"321 672 QCURVE",
"381 672 OFFCURVE",
"390 731 QCURVE",
"522 731 LINE",
"514 645 OFFCURVE",
"407 562 OFFCURVE",
"321 562 QCURVE"
);
},
{
closed = 1;
nodes = (
"212 244 LINE",
"437 527 LINE",
"569 527 LINE",
"569 0 LINE",
"411 0 LINE",
"411 272 LINE",
"194 0 LINE",
"55 0 LINE",
"55 527 LINE",
"212 527 LINE"
);
}
);
width = 623;
}
);
unicode = 0439;
},
{
color = (153, 249, 255, 255);
glyphname = uni043B;
layers = (
{
layerId = "890F39B9-B224-45DC-BFF4-46A200F8FC77";
paths = (
{
closed = 1;
nodes = (
"534 527 LINE",
"534 0 LINE",
"377 0 LINE",
"377 386 LINE",
"246 386 LINE",
"245 331 OFFCURVE",
"242 207 OFFCURVE",
"231 148 QCURVE",
"223 101 OFFCURVE",
"188 42 OFFCURVE",
"140 10 OFFCURVE",
"81 0 OFFCURVE",
"48 0 QCURVE",
"6 0 LINE",
"6 137 LINE",
"32 137 OFFCURVE",
"67 165 OFFCURVE",
"86 210 OFFCURVE",
"96 272 OFFCURVE",
"98 306 QCURVE",
"100 333 OFFCURVE",
"102 400 OFFCURVE",
"103 458 OFFCURVE",
"103 509 OFFCURVE",
"103 527 QCURVE"
);
}
);
width = 589;
}
);
unicode = 043B;
},
{
color = (153, 249, 255, 255);
glyphname = uni043C;
layers = (
{
layerId = "890F39B9-B224-45DC-BFF4-46A200F8FC77";
paths = (
{
closed = 1;
nodes = (
"351 94 LINE",
"212 299 LINE",
"212 0 LINE",
"55 0 LINE",
"55 527 LINE",
"227 527 LINE",
"373 307 LINE",
"518 527 LINE",
"688 527 LINE",
"688 0 LINE",
"530 0 LINE",
"530 298 LINE",
"394 94 LINE"
);
}
);
width = 742;
}
);
leftKerningGroup = _kern11;
unicode = 043C;
},
{
color = (153, 249, 255, 255);
glyphname = uni043D;
layers = (
{
layerId = "890F39B9-B224-45DC-BFF4-46A200F8FC77";
paths = (
{
closed = 1;
nodes = (
"212 333 LINE",
"392 333 LINE",
"392 527 LINE",
"549 527 LINE",
"549 0 LINE",
"392 0 LINE",
"392 193 LINE",
"212 193 LINE",
"212 0 LINE",
"55 0 LINE",
"55 527 LINE",
"212 527 LINE"
);
}
);
width = 604;
}
);
leftKerningGroup = _kern11;
unicode = 043D;
},
{
color = (153, 249, 255, 255);
glyphname = uni043F;
layers = (
{
layerId = "890F39B9-B224-45DC-BFF4-46A200F8FC77";
paths = (
{
closed = 1;
nodes = (
"546 527 LINE",
"546 0 LINE",
"389 0 LINE",
"389 387 LINE",
"212 387 LINE",
"212 0 LINE",
"55 0 LINE",
"55 527 LINE"
);
}
);
width = 601;
}
);
leftKerningGroup = _kern11;
unicode = 043F;
},
{
color = (153, 249, 255, 255);
glyphname = uni0442;
layers = (
{
layerId = "890F39B9-B224-45DC-BFF4-46A200F8FC77";
paths = (
{
closed = 1;
nodes = (
"-4 387 LINE",
"-4 527 LINE",
"495 527 LINE",
"495 387 LINE",
"324 387 LINE",
"324 0 LINE",
"167 0 LINE",
"167 387 LINE"
);
}
);
width = 491;
}
);
unicode = 0442;
},
{
color = (153, 249, 255, 255);
glyphname = uni0444;
layers = (
{
layerId = "890F39B9-B224-45DC-BFF4-46A200F8FC77";
paths = (
{
closed = 1;
nodes = (
"481 705 LINE",
"481 537 LINE",
"544 536 OFFCURVE",
"652 502 OFFCURVE",
"730 433 OFFCURVE",
"773 330 OFFCURVE",
"773 261 QCURVE",
"771 194 OFFCURVE",
"726 96 OFFCURVE",
"649 30 OFFCURVE",
"543 -4 OFFCURVE",
"481 -7 QCURVE",
"481 -211 LINE",
"323 -211 LINE",
"323 -6 LINE",
"261 -4 OFFCURVE",
"155 30 OFFCURVE",
"77 97 OFFCURVE",
"32 197 OFFCURVE",
"31 264 QCURVE",
"30 331 OFFCURVE",
"74 434 OFFCURVE",
"152 503 OFFCURVE",
"260 537 OFFCURVE",
"323 537 QCURVE",
"323 705 LINE"
);
},
{
closed = 1;
nodes = (
"323 395 LINE",
"260 395 OFFCURVE",
"192 323 OFFCURVE",
"192 265 QCURVE",
"192 206 OFFCURVE",
"261 134 OFFCURVE",
"323 133 QCURVE"
);
},
{
closed = 1;
nodes = (
"481 133 LINE",
"543 134 OFFCURVE",
"612 206 OFFCURVE",
"612 265 QCURVE",
"612 323 OFFCURVE",
"544 395 OFFCURVE",
"481 395 QCURVE"
);
}
);
width = 803;
}
);
leftKerningGroup = _kern9;
rightKerningGroup = _kern10;
unicode = 0444;
},
{
color = (153, 249, 255, 255);
glyphname = uni0446;
layers = (
{
layerId = "890F39B9-B224-45DC-BFF4-46A200F8FC77";
paths = (
{
closed = 1;
nodes = (
"55 0 LINE",
"55 527 LINE",
"212 527 LINE",
"212 140 LINE",
"393 140 LINE",
"393 527 LINE",
"550 527 LINE",
"550 140 LINE",
"621 140 LINE",
"621 -142 LINE",
"467 -142 LINE",
"467 0 LINE"
);
}
);
width = 630;
}
);
leftKerningGroup = _kern11;
rightKerningGroup = _kern13;
unicode = 0446;
},
{
color = (153, 249, 255, 255);
glyphname = uni0447;
layers = (
{
layerId = "890F39B9-B224-45DC-BFF4-46A200F8FC77";
paths = (
{
closed = 1;
nodes = (
"31 527 LINE",
"189 527 LINE",
"189 396 LINE",
"189 374 OFFCURVE",
"195 340 OFFCURVE",
"212 317 OFFCURVE",
"244 306 OFFCURVE",
"271 305 QCURVE",
"291 305 OFFCURVE",
"332 309 OFFCURVE",
"347 311 QCURVE",
"347 527 LINE",
"505 527 LINE",
"505 0 LINE",
"347 0 LINE",
"347 170 LINE",
"315 166 OFFCURVE",
"270 163 OFFCURVE",
"243 163 QCURVE",
"192 165 OFFCURVE",
"110 189 OFFCURVE",
"82 218 QCURVE",
"55 246 OFFCURVE",
"31 326 OFFCURVE",
"31 386 QCURVE"
);
}
);
width = 560;
}
);
leftKerningGroup = _kern11;
unicode = 0447;
},
{
color = (153, 249, 255, 255);
glyphname = uni0448;
layers = (
{
layerId = "890F39B9-B224-45DC-BFF4-46A200F8FC77";
paths = (
{
closed = 1;
nodes = (
"55 0 LINE",
"55 527 LINE",
"212 527 LINE",
"212 140 LINE",
"350 140 LINE",
"350 527 LINE",
"508 527 LINE",
"508 140 LINE",
"646 140 LINE",
"646 527 LINE",
"804 527 LINE",
"804 0 LINE"
);
}
);
width = 859;
}
);
leftKerningGroup = _kern11;
unicode = 0448;
},
{
color = (153, 249, 255, 255);
glyphname = uni0449;
layers = (
{
layerId = "890F39B9-B224-45DC-BFF4-46A200F8FC77";
paths = (
{
closed = 1;
nodes = (
"55 0 LINE",
"55 527 LINE",
"212 527 LINE",
"212 140 LINE",
"351 140 LINE",
"351 527 LINE",
"509 527 LINE",
"509 140 LINE",
"647 140 LINE",
"647 527 LINE",
"805 527 LINE",
"805 140 LINE",
"876 140 LINE",
"876 -142 LINE",
"720 -142 LINE",
"720 0 LINE"
);
}
);
width = 885;
}
);
leftKerningGroup = _kern11;
rightKerningGroup = _kern13;
unicode = 0449;
},
{
color = (153, 249, 255, 255);
glyphname = uni044A;
layers = (
{
layerId = "890F39B9-B224-45DC-BFF4-46A200F8FC77";
paths = (
{
closed = 1;
nodes = (
"1 387 LINE",
"1 527 LINE",
"274 527 LINE",
"274 375 LINE",
"373 375 LINE",
"418 375 OFFCURVE",
"496 357 OFFCURVE",
"553 316 OFFCURVE",
"587 247 OFFCURVE",
"587 198 QCURVE",
"587 138 OFFCURVE",
"541 62 OFFCURVE",
"471 17 OFFCURVE",
"384 0 OFFCURVE",
"342 0 QCURVE",
"116 0 LINE",
"116 387 LINE"
);
},
{
closed = 1;
nodes = (
"354 136 LINE",
"389 136 OFFCURVE",
"429 162 OFFCURVE",
"429 192 QCURVE",
"429 218 OFFCURVE",
"391 241 OFFCURVE",
"363 241 QCURVE",
"274 241 LINE",
"274 136 LINE"
);
}
);
width = 614;
}
);
unicode = 044A;
},
{
color = (153, 249, 255, 255);
glyphname = uni044B;
layers = (
{
layerId = "890F39B9-B224-45DC-BFF4-46A200F8FC77";
paths = (
{
closed = 1;
nodes = (
"212 527 LINE",
"212 375 LINE",
"294 375 LINE",
"337 375 OFFCURVE",
"415 358 OFFCURVE",
"473 317 OFFCURVE",
"507 247 OFFCURVE",
"507 196 QCURVE",
"507 137 OFFCURVE",
"462 62 OFFCURVE",
"392 17 OFFCURVE",
"307 0 OFFCURVE",
"268 0 QCURVE",
"55 0 LINE",
"55 527 LINE"
);
},
{
closed = 1;
nodes = (
"275 136 LINE",
"310 136 OFFCURVE",
"349 163 OFFCURVE",
"349 192 QCURVE",
"349 219 OFFCURVE",
"309 241 OFFCURVE",
"283 241 QCURVE",
"212 241 LINE",
"212 136 LINE"
);
},
{
closed = 1;
nodes = (
"724 0 LINE",
"567 0 LINE",
"567 527 LINE",
"724 527 LINE"
);
}
);
width = 779;
}
);
leftKerningGroup = _kern11;
unicode = 044B;
},
{
color = (153, 249, 255, 255);
glyphname = uni044C;
layers = (
{
layerId = "890F39B9-B224-45DC-BFF4-46A200F8FC77";
paths = (
{
closed = 1;
nodes = (
"212 527 LINE",
"212 375 LINE",
"322 375 LINE",
"368 375 OFFCURVE",
"445 357 OFFCURVE",
"503 314 OFFCURVE",
"535 245 OFFCURVE",
"535 196 QCURVE",
"535 137 OFFCURVE",
"490 62 OFFCURVE",
"419 17 OFFCURVE",
"334 0 OFFCURVE",
"294 0 QCURVE",
"55 0 LINE",
"55 527 LINE"
);
},
{
closed = 1;
nodes = (
"303 136 LINE",
"335 136 OFFCURVE",
"377 163 OFFCURVE",
"377 192 QCURVE",
"377 221 OFFCURVE",
"337 241 OFFCURVE",
"310 241 QCURVE",
"212 241 LINE",
"212 136 LINE"
);
}
);
width = 567;
}
);
leftKerningGroup = _kern11;
unicode = 044C;
},
{
color = (153, 249, 255, 255);
glyphname = uni044E;
layers = (
{
layerId = "890F39B9-B224-45DC-BFF4-46A200F8FC77";
paths = (
{
closed = 1;
nodes = (
"497 394 OFFCURVE",
"456 372 OFFCURVE",
"428 335 OFFCURVE",
"415 288 OFFCURVE",
"415 263 QCURVE",
"415 236 OFFCURVE",
"428 190 OFFCURVE",
"456 156 OFFCURVE",
"497 134 OFFCURVE",
"526 134 QCURVE",
"554 134 OFFCURVE",
"596 156 OFFCURVE",
"623 191 OFFCURVE",
"635 237 OFFCURVE",
"635 263 QCURVE",
"635 288 OFFCURVE",
"623 335 OFFCURVE",
"597 372 OFFCURVE",
"556 394 OFFCURVE",
"526 394 QCURVE"
);
},
{
closed = 1;
nodes = (
"212 334 LINE",
"273 334 LINE",
"290 427 OFFCURVE",
"420 538 OFFCURVE",
"526 538 QCURVE",
"587 538 OFFCURVE",
"685 501 OFFCURVE",
"754 430 OFFCURVE",
"792 328 OFFCURVE",
"792 265 QCURVE",
"792 134 OFFCURVE",
"653 -8 OFFCURVE",
"526 -8 QCURVE",
"419 -8 OFFCURVE",
"289 97 OFFCURVE",
"273 193 QCURVE",
"212 193 LINE",
"212 0 LINE",
"55 0 LINE",
"55 527 LINE",
"212 527 LINE"
);
}
);
width = 822;
}
);
leftKerningGroup = _kern11;
rightKerningGroup = _kern10;
unicode = 044E;
},
{
color = (153, 249, 255, 255);
glyphname = uni044F;
layers = (
{
layerId = "890F39B9-B224-45DC-BFF4-46A200F8FC77";
paths = (
{
closed = 1;
nodes = (
"536 527 LINE",
"536 0 LINE",
"379 0 LINE",
"379 159 LINE",
"319 159 LINE",
"210 0 LINE",
"21 0 LINE",
"167 188 LINE",
"115 205 OFFCURVE",
"52 290 OFFCURVE",
"52 347 QCURVE",
"52 400 OFFCURVE",
"89 469 OFFCURVE",
"152 510 OFFCURVE",
"231 527 OFFCURVE",
"273 527 QCURVE"
);
},
{
closed = 1;
nodes = (
"379 288 LINE",
"379 394 LINE",
"275 394 LINE",
"245 394 OFFCURVE",
"211 368 OFFCURVE",
"211 342 QCURVE",
"211 326 OFFCURVE",
"225 305 OFFCURVE",
"246 293 OFFCURVE",
"274 288 OFFCURVE",
"287 288 QCURVE"
);
}
);
width = 591;
}
);
leftKerningGroup = _kern11;
unicode = 044F;
},
{
color = (153, 249, 255, 255);
glyphname = u_alt;
layers = (
{
layerId = "890F39B9-B224-45DC-BFF4-46A200F8FC77";
paths = (
{
closed = 1;
nodes = (
"414 64 LINE",
"383 20 OFFCURVE",
"296 -8 OFFCURVE",
"251 -8 QCURVE",
"192 -8 OFFCURVE",
"113 31 OFFCURVE",
"67 98 OFFCURVE",
"49 186 OFFCURVE",
"49 235 QCURVE",
"49 527 LINE",
"207 527 LINE",
"207 254 LINE",
"207 232 OFFCURVE",
"214 189 OFFCURVE",
"235 155 OFFCURVE",
"274 133 OFFCURVE",
"304 134 QCURVE",
"334 135 OFFCURVE",
"375 161 OFFCURVE",
"386 178 QCURVE",
"399 198 OFFCURVE",
"405 250 OFFCURVE",
"405 267 QCURVE",
"405 527 LINE",
"563 527 LINE",
"563 0 LINE",
"419 0 LINE"
);
}
);
width = 617;
}
);
},
{
color = (153, 249, 255, 255);
glyphname = uni0410;
layers = (
{
layerId = "890F39B9-B224-45DC-BFF4-46A200F8FC77";
paths = (
{
closed = 1;
nodes = (
"269 263 LINE",
"459 263 LINE",
"436 330 OFFCURVE",
"389 463 OFFCURVE",
"365 530 QCURVE"
);
},
{
closed = 1;
nodes = (
"219 117 LINE",
"176 0 LINE",
"0 0 LINE",
"279 708 LINE",
"453 708 LINE",
"728 0 LINE",
"551 0 LINE",
"509 117 LINE"
);
}
);
width = 730;
}
);
leftKerningGroup = _kern30;
rightKerningGroup = _kern30;
unicode = 0410;
},
{
color = (153, 249, 255, 255);
glyphname = uni0415;
layers = (
{
layerId = "890F39B9-B224-45DC-BFF4-46A200F8FC77";
paths = (
{
closed = 1;
nodes = (
"594 708 LINE",
"594 559 LINE",
"237 559 LINE",
"237 423 LINE",
"540 423 LINE",
"540 278 LINE",
"237 278 LINE",
"237 147 LINE",
"594 147 LINE",
"594 0 LINE",
"74 0 LINE",
"74 708 LINE"
);
}
);
width = 629;
}
);
unicode = 0415;
},
{
color = (153, 249, 255, 255);
glyphname = uni041C;
layers = (
{
layerId = "890F39B9-B224-45DC-BFF4-46A200F8FC77";
paths = (
{
closed = 1;
nodes = (
"269 708 LINE",
"461 386 LINE",
"651 708 LINE",
"840 708 LINE",
"840 0 LINE",
"677 0 LINE",
"677 470 LINE",
"492 161 LINE",
"424 161 LINE",
"237 470 LINE",
"237 0 LINE",
"74 0 LINE",
"74 708 LINE"
);
}
);
width = 914;
}
);
unicode = 041C;
},
{
color = (153, 249, 255, 255);
glyphname = uni041D;
layers = (
{
layerId = "890F39B9-B224-45DC-BFF4-46A200F8FC77";
paths = (
{
closed = 1;
nodes = (
"237 423 LINE",
"515 423 LINE",
"515 708 LINE",
"678 708 LINE",
"678 0 LINE",
"515 0 LINE",
"515 276 LINE",
"237 276 LINE",
"237 0 LINE",
"74 0 LINE",
"74 708 LINE",
"237 708 LINE"
);
}
);
width = 752;
}
);
unicode = 041D;
},
{
color = (153, 249, 255, 255);
glyphname = uni0420;
layers = (
{
layerId = "890F39B9-B224-45DC-BFF4-46A200F8FC77";
paths = (
{
closed = 1;
nodes = (
"358 708 LINE",
"420 708 OFFCURVE",
"523 682 OFFCURVE",
"597 624 OFFCURVE",
"638 530 OFFCURVE",
"638 462 QCURVE",
"638 397 OFFCURVE",
"596 301 OFFCURVE",
"521 236 OFFCURVE",
"419 204 OFFCURVE",
"360 204 QCURVE",
"237 204 LINE",
"237 0 LINE",
"74 0 LINE",
"74 708 LINE"
);
},
{
closed = 1;
nodes = (
"356 348 LINE",
"409 348 OFFCURVE",
"476 402 OFFCURVE",
"478 453 QCURVE",
"478 510 OFFCURVE",
"416 559 OFFCURVE",
"355 559 QCURVE",
"237 559 LINE",
"237 348 LINE"
);
}
);
width = 669;
}
);
unicode = 0420;
},
{
color = (153, 249, 255, 255);
glyphname = uni0422;
layers = (
{
layerId = "890F39B9-B224-45DC-BFF4-46A200F8FC77";
paths = (
{
closed = 1;
nodes = (
"5 559 LINE",
"5 708 LINE",
"601 708 LINE",
"601 559 LINE",
"384 559 LINE",
"384 0 LINE",
"221 0 LINE",
"221 559 LINE"
);
}
);
width = 606;
}
);
leftKerningGroup = _kern28;
rightKerningGroup = _kern28;
unicode = 0422;
},
{
color = (153, 249, 255, 255);
glyphname = uni0425;
layers = (
{
layerId = "890F39B9-B224-45DC-BFF4-46A200F8FC77";
paths = (
{
closed = 1;
nodes = (
"496 708 LINE",
"686 708 LINE",
"447 354 LINE",
"692 0 LINE",
"499 0 LINE",
"345 234 LINE",
"185 0 LINE",
"1 0 LINE",
"249 355 LINE",
"9 708 LINE",
"202 708 LINE",
"350 473 LINE"
);
}
);
width = 693;
}
);
unicode = 0425;
},
{
color = (153, 249, 255, 255);
glyphname = T;
layers = (
{
layerId = "890F39B9-B224-45DC-BFF4-46A200F8FC77";
paths = (
{
closed = 1;
nodes = (
"5 559 LINE",
"5 708 LINE",
"600 708 LINE",
"600 559 LINE",
"384 559 LINE",
"384 0 LINE",
"221 0 LINE",
"221 559 LINE"
);
}
);
width = 605;
}
);
leftKerningGroup = _kern28;
rightKerningGroup = _kern28;
unicode = 0054;
},
{
color = (153, 249, 255, 255);
glyphname = uni0412;
layers = (
{
layerId = "890F39B9-B224-45DC-BFF4-46A200F8FC77";
paths = (
{
closed = 1;
nodes = (
"73 0 LINE",
"73 708 LINE",
"406 708 LINE",
"449 708 OFFCURVE",
"528 689 OFFCURVE",
"588 646 OFFCURVE",
"624 576 OFFCURVE",
"624 525 QCURVE",
"624 481 OFFCURVE",
"589 408 OFFCURVE",
"551 385 QCURVE",
"603 365 OFFCURVE",
"656 278 OFFCURVE",
"656 217 QCURVE",
"656 151 OFFCURVE",
"601 67 OFFCURVE",
"516 19 OFFCURVE",
"410 0 OFFCURVE",
"358 0 QCURVE"
);
},
{
closed = 1;
nodes = (
"351 427 LINE",
"401 427 OFFCURVE",
"464 458 OFFCURVE",
"464 498 QCURVE",
"464 518 OFFCURVE",
"447 543 OFFCURVE",
"420 556 OFFCURVE",
"385 560 OFFCURVE",
"366 560 QCURVE",
"236 560 LINE",
"236 427 LINE"
);
},
{
closed = 1;
nodes = (
"236 147 LINE",
"359 147 LINE",
"387 147 OFFCURVE",
"436 153 OFFCURVE",
"472 169 OFFCURVE",
"493 200 OFFCURVE",
"493 225 QCURVE",
"493 247 OFFCURVE",
"474 274 OFFCURVE",
"442 288 OFFCURVE",
"400 292 OFFCURVE",
"377 292 QCURVE",
"236 292 LINE"
);
}
);
width = 692;
}
);
unicode = 0412;
},
{
color = (153, 249, 255, 255);
glyphname = uni041F;
layers = (
{
layerId = "890F39B9-B224-45DC-BFF4-46A200F8FC77";
paths = (
{
closed = 1;
nodes = (
"674 708 LINE",
"674 0 LINE",
"511 0 LINE",
"511 560 LINE",
"237 560 LINE",
"237 0 LINE",
"74 0 LINE",
"74 708 LINE"
);
}
);
width = 748;
}
);
unicode = 041F;
},
{
color = (153, 249, 255, 255);
glyphname = uni0413;
layers = (
{
layerId = "890F39B9-B224-45DC-BFF4-46A200F8FC77";
paths = (
{
closed = 1;
nodes = (
"74 0 LINE",
"74 708 LINE",
"575 708 LINE",
"575 559 LINE",
"237 559 LINE",
"237 0 LINE"
);
}
);
width = 595;
}
);
leftKerningGroup = _kern23;
rightKerningGroup = _kern23;
unicode = 0413;
},
{
color = (153, 249, 255, 255);
glyphname = uni041B;
layers = (
{
layerId = "890F39B9-B224-45DC-BFF4-46A200F8FC77";
paths = (
{
closed = 1;
nodes = (
"270 559 LINE",
"269 390 LINE",
"269 354 OFFCURVE",
"267 273 OFFCURVE",
"258 193 OFFCURVE",
"240 118 OFFCURVE",
"223 88 QCURVE",
"196 40 OFFCURVE",
"98 -1 OFFCURVE",
"30 -1 QCURVE",
"1 -1 LINE",
"1 148 LINE",
"35 148 OFFCURVE",
"74 171 OFFCURVE",
"96 208 OFFCURVE",
"107 257 OFFCURVE",
"109 283 QCURVE",
"113 348 OFFCURVE",
"116 457 OFFCURVE",
"117 558 OFFCURVE",
"117 655 OFFCURVE",
"118 708 QCURVE",
"628 708 LINE",
"628 0 LINE",
"465 0 LINE",
"465 559 LINE"
);
}
);
width = 702;
}
);
unicode = 041B;
},
{
color = (153, 249, 255, 255);
glyphname = uni0414;
layers = (
{
layerId = "890F39B9-B224-45DC-BFF4-46A200F8FC77";
paths = (
{
closed = 1;
nodes = (
"491 147 LINE",
"491 559 LINE",
"284 559 LINE",
"283 485 OFFCURVE",
"282 392 OFFCURVE",
"280 352 QCURVE",
"280 332 OFFCURVE",
"276 275 OFFCURVE",
"267 216 OFFCURVE",
"254 163 OFFCURVE",
"245 147 QCURVE"
);
},
{
closed = 1;
nodes = (
"740 -173 LINE",
"580 -173 LINE",
"580 0 LINE",
"168 0 LINE",
"168 -173 LINE",
"9 -173 LINE",
"9 147 LINE",
"45 150 OFFCURVE",
"87 188 OFFCURVE",
"110 242 OFFCURVE",
"119 307 OFFCURVE",
"121 338 QCURVE",
"124 384 OFFCURVE",
"129 492 OFFCURVE",
"132 594 OFFCURVE",
"133 682 OFFCURVE",
"133 708 QCURVE",
"654 708 LINE",
"654 147 LINE",
"740 147 LINE"
);
}
);
width = 749;
}
);
rightKerningGroup = _kern12;
unicode = 0414;
},
{
color = (153, 249, 255, 255);
glyphname = uni0411;
layers = (
{
layerId = "890F39B9-B224-45DC-BFF4-46A200F8FC77";
paths = (
{
closed = 1;
nodes = (
"74 0 LINE",
"74 708 LINE",
"604 708 LINE",
"604 559 LINE",
"237 559 LINE",
"237 442 LINE",
"394 442 LINE",
"450 442 OFFCURVE",
"544 422 OFFCURVE",
"612 373 OFFCURVE",
"650 292 OFFCURVE",
"650 231 QCURVE",
"649 161 OFFCURVE",
"595 72 OFFCURVE",
"511 21 OFFCURVE",
"406 1 OFFCURVE",
"355 0 QCURVE"
);
},
{
closed = 1;
nodes = (
"237 147 LINE",
"359 147 LINE",
"382 147 OFFCURVE",
"428 152 OFFCURVE",
"466 168 OFFCURVE",
"489 201 OFFCURVE",
"489 228 QCURVE",
"489 253 OFFCURVE",
"468 281 OFFCURVE",
"434 296 OFFCURVE",
"390 300 OFFCURVE",
"367 300 QCURVE",
"237 300 LINE"
);
}
);
width = 692;
}
);
unicode = 0411;
},
{
color = (153, 249, 255, 255);
glyphname = uni0416;
layers = (
{
layerId = "890F39B9-B224-45DC-BFF4-46A200F8FC77";
paths = (
{
closed = 1;
nodes = (
"581 279 LINE",
"581 0 LINE",
"418 0 LINE",
"418 279 LINE",
"334 279 LINE",
"189 0 LINE",
"1 0 LINE",
"205 369 LINE",
"2 708 LINE",
"188 708 LINE",
"341 425 LINE",
"418 425 LINE",
"418 708 LINE",
"581 708 LINE",
"581 425 LINE",
"657 425 LINE",
"812 708 LINE",
"997 708 LINE",
"794 369 LINE",
"998 0 LINE",
"809 0 LINE",
"665 279 LINE"
);
}
);
width = 999;
}
);
unicode = 0416;
},
{
color = (153, 249, 255, 255);
glyphname = uni0417;
layers = (
{
layerId = "890F39B9-B224-45DC-BFF4-46A200F8FC77";
paths = (
{
closed = 1;
nodes = (
"186 232 LINE",
"192 204 OFFCURVE",
"225 170 OFFCURVE",
"270 151 OFFCURVE",
"323 144 OFFCURVE",
"349 144 QCURVE",
"372 144 OFFCURVE",
"417 151 OFFCURVE",
"453 169 OFFCURVE",
"476 201 OFFCURVE",
"476 225 QCURVE",
"476 247 OFFCURVE",
"457 274 OFFCURVE",
"426 289 OFFCURVE",
"387 294 OFFCURVE",
"367 294 QCURVE",
"255 294 LINE",
"255 427 LINE",
"337 427 LINE",
"360 427 OFFCURVE",
"401 434 OFFCURVE",
"432 450 OFFCURVE",
"451 479 OFFCURVE",
"451 500 QCURVE",
"450 521 OFFCURVE",
"428 547 OFFCURVE",
"394 562 OFFCURVE",
"352 568 OFFCURVE",
"333 568 QCURVE",
"279 568 OFFCURVE",
"207 531 OFFCURVE",
"202 489 QCURVE",
"46 489 LINE",
"48 552 OFFCURVE",
"97 638 OFFCURVE",
"177 692 OFFCURVE",
"281 716 OFFCURVE",
"338 716 QCURVE",
"383 716 OFFCURVE",
"480 699 OFFCURVE",
"560 656 OFFCURVE",
"612 582 OFFCURVE",
"612 525 QCURVE",
"612 434 OFFCURVE",
"537 383 QCURVE",
"591 363 OFFCURVE",
"638 277 OFFCURVE",
"638 223 QCURVE",
"638 154 OFFCURVE",
"583 65 OFFCURVE",
"497 13 OFFCURVE",
"394 -7 OFFCURVE",
"345 -7 QCURVE",
"284 -7 OFFCURVE",
"174 17 OFFCURVE",
"90 73 OFFCURVE",
"36 165 OFFCURVE",
"31 232 QCURVE"
);
}
);
width = 674;
}
);
leftKerningGroup = _kern7;
rightKerningGroup = _kern8;
unicode = 0417;
},
{
color = (153, 249, 255, 255);
glyphname = uni0418;
layers = (
{
layerId = "890F39B9-B224-45DC-BFF4-46A200F8FC77";
paths = (
{
closed = 1;
nodes = (
"237 281 LINE",
"566 708 LINE",
"696 708 LINE",
"696 0 LINE",
"533 0 LINE",
"533 421 LINE",
"204 0 LINE",
"74 0 LINE",
"74 708 LINE",
"237 708 LINE"
);
}
);
width = 770;
}
);
unicode = 0418;
},
{
color = (153, 249, 255, 255);
glyphname = uni0419;
layers = (
{
layerId = "890F39B9-B224-45DC-BFF4-46A200F8FC77";
paths = (
{
closed = 1;
nodes = (
"307 745 OFFCURVE",
"199 828 OFFCURVE",
"192 916 QCURVE",
"324 916 LINE",
"328 887 OFFCURVE",
"365 857 OFFCURVE",
"392 857 QCURVE",
"420 857 OFFCURVE",
"456 887 OFFCURVE",
"459 916 QCURVE",
"592 916 LINE",
"584 828 OFFCURVE",
"476 745 OFFCURVE",
"392 745 QCURVE"
);
},
{
closed = 1;
nodes = (
"237 281 LINE",
"566 708 LINE",
"696 708 LINE",
"696 0 LINE",
"533 0 LINE",
"533 421 LINE",
"204 0 LINE",
"74 0 LINE",
"74 708 LINE",
"237 708 LINE"
);
}
);
width = 770;
}
);
unicode = 0419;
},
{
color = (153, 249, 255, 255);
glyphname = uni041A;
layers = (
{
layerId = "890F39B9-B224-45DC-BFF4-46A200F8FC77";
paths = (
{
closed = 1;
nodes = (
"237 278 LINE",
"237 0 LINE",
"74 0 LINE",
"74 708 LINE",
"237 708 LINE",
"237 426 LINE",
"324 426 LINE",
"503 708 LINE",
"690 708 LINE",
"460 370 LINE",
"691 0 LINE",
"501 0 LINE",
"333 278 LINE"
);
}
);
width = 692;
}
);
unicode = 041A;
},
{
color = (153, 249, 255, 255);
glyphname = uni0423;
layers = (
{
layerId = "890F39B9-B224-45DC-BFF4-46A200F8FC77";
paths = (
{
closed = 1;
nodes = (
"482 708 LINE",
"660 708 LINE",
"612 596 OFFCURVE",
"518 377 OFFCURVE",
"470 266 QCURVE",
"446 212 OFFCURVE",
"399 115 OFFCURVE",
"332 42 OFFCURVE",
"233 0 OFFCURVE",
"158 0 QCURVE",
"114 0 LINE",
"114 150 LINE",
"142 150 LINE",
"161 150 OFFCURVE",
"198 155 OFFCURVE",
"231 169 OFFCURVE",
"260 195 OFFCURVE",
"272 217 QCURVE",
"17 708 LINE",
"206 708 LINE",
"357 378 LINE"
);
}
);
width = 655;
}
);
unicode = 0423;
},
{
color = (153, 249, 255, 255);
glyphname = uni0424;
layers = (
{
layerId = "890F39B9-B224-45DC-BFF4-46A200F8FC77";
paths = (
{
closed = 1;
nodes = (
"360 639 LINE",
"360 737 LINE",
"523 737 LINE",
"523 639 LINE",
"594 639 OFFCURVE",
"713 608 OFFCURVE",
"800 542 OFFCURVE",
"849 439 OFFCURVE",
"849 367 QCURVE",
"848 292 OFFCURVE",
"803 188 OFFCURVE",
"719 122 OFFCURVE",
"598 92 OFFCURVE",
"523 92 QCURVE",
"523 -17 LINE",
"360 -17 LINE",
"360 92 LINE",
"288 92 OFFCURVE",
"168 122 OFFCURVE",
"83 187 OFFCURVE",
"35 290 OFFCURVE",
"35 363 QCURVE",
"36 433 OFFCURVE",
"79 537 OFFCURVE",
"158 605 OFFCURVE",
"270 639 OFFCURVE",
"339 639 QCURVE"
);
},
{
closed = 1;
nodes = (
"523 500 LINE",
"523 231 LINE",
"608 231 OFFCURVE",
"690 294 OFFCURVE",
"690 365 QCURVE",
"690 426 OFFCURVE",
"614 500 OFFCURVE",
"542 500 QCURVE"
);
},
{
closed = 1;
nodes = (
"360 231 LINE",
"360 500 LINE",
"323 500 OFFCURVE",
"261 487 OFFCURVE",
"217 457 OFFCURVE",
"193 405 OFFCURVE",
"193 366 QCURVE",
"193 303 OFFCURVE",
"269 231 OFFCURVE",
"341 231 QCURVE"
);
}
);
width = 884;
}
);
leftKerningGroup = _kern7;
rightKerningGroup = _kern8;
unicode = 0424;
},
{
color = (153, 249, 255, 255);
glyphname = uni0426;
layers = (
{
layerId = "890F39B9-B224-45DC-BFF4-46A200F8FC77";
paths = (
{
closed = 1;
nodes = (
"499 147 LINE",
"499 708 LINE",
"662 708 LINE",
"662 147 LINE",
"746 147 LINE",
"746 -174 LINE",
"583 -174 LINE",
"583 0 LINE",
"74 0 LINE",
"74 708 LINE",
"237 708 LINE",
"237 147 LINE"
);
}
);
width = 752;
}
);
rightKerningGroup = _kern12;
unicode = 0426;
},
{
color = (153, 249, 255, 255);
glyphname = uni0427;
layers = (
{
layerId = "890F39B9-B224-45DC-BFF4-46A200F8FC77";
paths = (
{
closed = 1;
nodes = (
"51 708 LINE",
"214 708 LINE",
"214 488 LINE",
"214 454 OFFCURVE",
"229 410 OFFCURVE",
"262 384 OFFCURVE",
"313 374 OFFCURVE",
"348 374 QCURVE",
"378 374 OFFCURVE",
"434 379 OFFCURVE",
"466 385 QCURVE",
"466 708 LINE",
"629 708 LINE",
"629 0 LINE",
"466 0 LINE",
"466 233 LINE",
"427 227 OFFCURVE",
"351 222 OFFCURVE",
"314 223 QCURVE",
"260 224 OFFCURVE",
"163 248 OFFCURVE",
"126 277 QCURVE",
"86 309 OFFCURVE",
"51 408 OFFCURVE",
"51 474 QCURVE"
);
}
);
width = 703;
}
);
unicode = 0427;
},
{
color = (153, 249, 255, 255);
glyphname = uni0428;
layers = (
{
layerId = "890F39B9-B224-45DC-BFF4-46A200F8FC77";
paths = (
{
closed = 1;
nodes = (
"74 0 LINE",
"74 708 LINE",
"237 708 LINE",
"237 147 LINE",
"428 147 LINE",
"428 708 LINE",
"591 708 LINE",
"591 147 LINE",
"782 147 LINE",
"782 708 LINE",
"945 708 LINE",
"945 0 LINE"
);
}
);
width = 1019;
}
);
unicode = 0428;
},
{
color = (153, 249, 255, 255);
glyphname = uni0429;
layers = (
{
layerId = "890F39B9-B224-45DC-BFF4-46A200F8FC77";
paths = (
{
closed = 1;
nodes = (
"74 0 LINE",
"74 708 LINE",
"237 708 LINE",
"237 147 LINE",
"428 147 LINE",
"428 708 LINE",
"591 708 LINE",
"591 147 LINE",
"781 147 LINE",
"781 708 LINE",
"944 708 LINE",
"944 147 LINE",
"1028 147 LINE",
"1028 -174 LINE",
"865 -174 LINE",
"865 0 LINE"
);
}
);
width = 1034;
}
);
rightKerningGroup = _kern12;
unicode = 0429;
},
{
color = (153, 249, 255, 255);
glyphname = uni042A;
layers = (
{
layerId = "890F39B9-B224-45DC-BFF4-46A200F8FC77";
paths = (
{
closed = 1;
nodes = (
"159 0 LINE",
"159 559 LINE",
"1 559 LINE",
"1 708 LINE",
"322 708 LINE",
"322 459 LINE",
"474 459 LINE",
"526 459 OFFCURVE",
"620 438 OFFCURVE",
"692 386 OFFCURVE",
"734 300 OFFCURVE",
"734 236 QCURVE",
"734 167 OFFCURVE",
"685 76 OFFCURVE",
"604 22 OFFCURVE",
"499 0 OFFCURVE",
"444 0 QCURVE"
);
},
{
closed = 1;
nodes = (
"322 147 LINE",
"438 147 LINE",
"465 147 OFFCURVE",
"515 153 OFFCURVE",
"552 172 OFFCURVE",
"575 208 OFFCURVE",
"575 237 QCURVE",
"575 282 OFFCURVE",
"511 315 OFFCURVE",
"463 315 QCURVE",
"322 315 LINE"
);
}
);
width = 771;
}
);
unicode = 042A;
},
{
color = (153, 249, 255, 255);
glyphname = uni042B;
layers = (
{
layerId = "890F39B9-B224-45DC-BFF4-46A200F8FC77";
paths = (
{
closed = 1;
nodes = (
"74 0 LINE",
"74 708 LINE",
"237 708 LINE",
"237 459 LINE",
"351 459 LINE",
"404 459 OFFCURVE",
"499 436 OFFCURVE",
"571 384 OFFCURVE",
"613 299 OFFCURVE",
"613 236 QCURVE",
"611 167 OFFCURVE",
"562 76 OFFCURVE",
"480 22 OFFCURVE",
"373 0 OFFCURVE",
"315 0 QCURVE"
);
},
{
closed = 1;
nodes = (
"237 147 LINE",
"318 147 LINE",
"345 147 OFFCURVE",
"394 154 OFFCURVE",
"431 174 OFFCURVE",
"453 209 OFFCURVE",
"453 237 QCURVE",
"453 262 OFFCURVE",
"433 293 OFFCURVE",
"398 309 OFFCURVE",
"354 315 OFFCURVE",
"330 315 QCURVE",
"237 315 LINE"
);
},
{
closed = 1;
nodes = (
"699 708 LINE",
"862 708 LINE",
"862 0 LINE",
"699 0 LINE"
);
}
);
width = 936;
}
);
unicode = 042B;
},
{
color = (153, 249, 255, 255);
glyphname = uni042C;
layers = (
{
layerId = "890F39B9-B224-45DC-BFF4-46A200F8FC77";
paths = (
{
closed = 1;
nodes = (
"73 0 LINE",
"73 708 LINE",
"236 708 LINE",
"236 459 LINE",
"386 459 LINE",
"444 459 OFFCURVE",
"540 436 OFFCURVE",
"609 383 OFFCURVE",
"647 298 OFFCURVE",
"647 236 QCURVE",
"647 167 OFFCURVE",
"596 76 OFFCURVE",
"512 22 OFFCURVE",
"404 0 OFFCURVE",
"346 0 QCURVE"
);
},
{
closed = 1;
nodes = (
"236 147 LINE",
"353 147 LINE",
"380 147 OFFCURVE",
"428 154 OFFCURVE",
"466 173 OFFCURVE",
"487 208 OFFCURVE",
"487 237 QCURVE",
"487 261 OFFCURVE",
"468 291 OFFCURVE",
"437 308 OFFCURVE",
"395 315 OFFCURVE",
"371 315 QCURVE",
"236 315 LINE"
);
}
);
width = 684;
}
);
unicode = 042C;
},
{
color = (153, 249, 255, 255);
glyphname = uni042D;
layers = (
{
layerId = "890F39B9-B224-45DC-BFF4-46A200F8FC77";
paths = (
{
closed = 1;
nodes = (
"518 425 LINE",
"516 453 OFFCURVE",
"495 505 OFFCURVE",
"456 545 OFFCURVE",
"397 568 OFFCURVE",
"357 568 QCURVE",
"291 568 OFFCURVE",
"209 512 OFFCURVE",
"197 464 QCURVE",
"39 464 LINE",
"46 527 OFFCURVE",
"103 621 OFFCURVE",
"190 685 OFFCURVE",
"299 717 OFFCURVE",
"358 717 QCURVE",
"442 717 OFFCURVE",
"567 662 OFFCURVE",
"650 565 OFFCURVE",
"690 432 OFFCURVE",
"690 355 QCURVE",
"690 275 OFFCURVE",
"646 142 OFFCURVE",
"561 46 OFFCURVE",
"435 -7 OFFCURVE",
"353 -7 QCURVE",
"297 -7 OFFCURVE",
"189 22 OFFCURVE",
"101 83 OFFCURVE",
"42 178 OFFCURVE",
"35 244 QCURVE",
"192 244 LINE",
"200 214 OFFCURVE",
"237 175 OFFCURVE",
"284 152 OFFCURVE",
"335 143 OFFCURVE",
"357 143 QCURVE",
"431 145 OFFCURVE",
"515 220 OFFCURVE",
"519 283 QCURVE",
"257 283 LINE",
"257 425 LINE"
);
}
);
width = 725;
}
);
leftKerningGroup = _kern7;
rightKerningGroup = _kern8;
unicode = 042D;
},
{
color = (153, 249, 255, 255);
glyphname = uni042E;
layers = (
{
layerId = "890F39B9-B224-45DC-BFF4-46A200F8FC77";
paths = (
{
closed = 1;
nodes = (
"473 316 OFFCURVE",
"492 239 OFFCURVE",
"534 179 OFFCURVE",
"602 142 OFFCURVE",
"650 142 QCURVE",
"698 142 OFFCURVE",
"766 179 OFFCURVE",
"809 239 OFFCURVE",
"829 316 OFFCURVE",
"829 355 QCURVE",
"829 394 OFFCURVE",
"810 470 OFFCURVE",
"768 530 OFFCURVE",
"699 567 OFFCURVE",
"650 567 QCURVE",
"601 567 OFFCURVE",
"533 529 OFFCURVE",
"491 468 OFFCURVE",
"473 393 OFFCURVE",
"473 356 QCURVE"
);
},
{
closed = 1;
nodes = (
"237 422 LINE",
"317 422 LINE",
"324 487 OFFCURVE",
"378 595 OFFCURVE",
"464 673 OFFCURVE",
"580 716 OFFCURVE",
"649 716 QCURVE",
"731 716 OFFCURVE",
"860 665 OFFCURVE",
"949 571 OFFCURVE",
"996 438 OFFCURVE",
"996 357 QCURVE",
"996 277 OFFCURVE",
"950 142 OFFCURVE",
"861 46 OFFCURVE",
"732 -8 OFFCURVE",
"650 -7 QCURVE",
"579 -7 OFFCURVE",
"463 34 OFFCURVE",
"379 109 OFFCURVE",
"327 214 OFFCURVE",
"319 277 QCURVE",
"237 277 LINE",
"237 0 LINE",
"74 0 LINE",
"74 708 LINE",
"237 708 LINE"
);
}
);
width = 1031;
}
);
rightKerningGroup = _kern8;
unicode = 042E;
},
{
color = (153, 249, 255, 255);
glyphname = uni042F;
layers = (
{
layerId = "890F39B9-B224-45DC-BFF4-46A200F8FC77";
paths = (
{
closed = 1;
nodes = (
"644 708 LINE",
"644 0 LINE",
"481 0 LINE",
"481 232 LINE",
"397 232 LINE",
"235 0 LINE",
"42 0 LINE",
"234 254 LINE",
"151 277 OFFCURVE",
"70 387 OFFCURVE",
"70 470 QCURVE",
"70 540 OFFCURVE",
"118 632 OFFCURVE",
"198 686 OFFCURVE",
"304 708 OFFCURVE",
"363 708 QCURVE"
);
},
{
closed = 1;
nodes = (
"481 375 LINE",
"481 559 LINE",
"338 559 LINE",
"315 558 OFFCURVE",
"276 547 OFFCURVE",
"246 525 OFFCURVE",
"230 491 OFFCURVE",
"230 466 QCURVE",
"230 439 OFFCURVE",
"255 404 OFFCURVE",
"294 383 OFFCURVE",
"342 375 OFFCURVE",
"367 375 QCURVE"
);
}
);
width = 718;
}
);
unicode = 042F;
},
{
color = (153, 249, 255, 255);
glyphname = uni0440;
layers = (
{
layerId = "890F39B9-B224-45DC-BFF4-46A200F8FC77";
paths = (
{
closed = 1;
nodes = (
"211 464 LINE",
"243 503 OFFCURVE",
"329 537 OFFCURVE",
"375 537 QCURVE",
"429 537 OFFCURVE",
"515 499 OFFCURVE",
"576 428 OFFCURVE",
"608 329 OFFCURVE",
"608 269 QCURVE",
"608 208 OFFCURVE",
"577 106 OFFCURVE",
"518 33 OFFCURVE",
"431 -8 OFFCURVE",
"377 -8 QCURVE",
"272 -8 OFFCURVE",
"212 52 QCURVE",
"212 -210 LINE",
"55 -210 LINE",
"55 527 LINE",
"202 527 LINE"
);
},
{
closed = 1;
nodes = (
"303 394 OFFCURVE",
"259 373 OFFCURVE",
"228 337 OFFCURVE",
"212 292 OFFCURVE",
"212 267 QCURVE",
"212 212 OFFCURVE",
"274 136 OFFCURVE",
"335 134 QCURVE",
"367 134 OFFCURVE",
"411 156 OFFCURVE",
"438 192 OFFCURVE",
"450 239 OFFCURVE",
"450 266 QCURVE",
"450 290 OFFCURVE",
"436 336 OFFCURVE",
"408 373 OFFCURVE",
"364 394 OFFCURVE",
"332 394 QCURVE"
);
}
);
width = 638;
}
);
leftKerningGroup = _kern11;
rightKerningGroup = _kern10;
unicode = 0440;
},
{
color = (153, 249, 255, 255);
glyphname = O;
layers = (
{
layerId = "890F39B9-B224-45DC-BFF4-46A200F8FC77";
paths = (
{
closed = 1;
nodes = (
"473 717 OFFCURVE",
"604 666 OFFCURVE",
"697 571 OFFCURVE",
"747 439 OFFCURVE",
"747 358 QCURVE",
"747 278 OFFCURVE",
"697 144 OFFCURVE",
"604 46 OFFCURVE",
"472 -8 OFFCURVE",
"390 -7 QCURVE",
"307 -7 OFFCURVE",
"176 46 OFFCURVE",
"84 142 OFFCURVE",
"35 275 OFFCURVE",
"35 355 QCURVE",
"35 436 OFFCURVE",
"86 569 OFFCURVE",
"179 665 OFFCURVE",
"311 717 OFFCURVE",
"392 717 QCURVE"
);
},
{
closed = 1;
nodes = (
"202 315 OFFCURVE",
"225 239 OFFCURVE",
"272 180 OFFCURVE",
"344 144 OFFCURVE",
"394 143 QCURVE",
"442 143 OFFCURVE",
"512 179 OFFCURVE",
"558 239 OFFCURVE",
"580 315 OFFCURVE",
"580 354 QCURVE",
"580 393 OFFCURVE",
"559 469 OFFCURVE",
"513 529 OFFCURVE",
"442 567 OFFCURVE",
"392 567 QCURVE",
"343 567 OFFCURVE",
"271 531 OFFCURVE",
"225 472 OFFCURVE",
"202 396 OFFCURVE",
"202 356 QCURVE"
);
}
);
width = 782;
}
);
leftKerningGroup = _kern3;
rightKerningGroup = _kern4;
unicode = 004F;
},
{
color = (153, 249, 255, 255);
glyphname = be_alt;
layers = (
{
layerId = "890F39B9-B224-45DC-BFF4-46A200F8FC77";
paths = (
{
closed = 1;
nodes = (
"416 762 OFFCURVE",
"488 794 OFFCURVE",
"502 808 QCURVE",
"585 695 LINE",
"565 655 OFFCURVE",
"520 634 QCURVE",
"486 618 OFFCURVE",
"411 597 OFFCURVE",
"339 576 OFFCURVE",
"274 553 OFFCURVE",
"222 520 OFFCURVE",
"190 471 OFFCURVE",
"187 435 QCURVE",
"223 473 OFFCURVE",
"310 503 OFFCURVE",
"361 503 QCURVE",
"409 503 OFFCURVE",
"492 471 OFFCURVE",
"551 409 OFFCURVE",
"586 320 OFFCURVE",
"586 265 QCURVE",
"586 201 OFFCURVE",
"546 100 OFFCURVE",
"475 29 OFFCURVE",
"374 -8 OFFCURVE",
"312 -8 QCURVE",
"232 -7 OFFCURVE",
"124 53 OFFCURVE",
"60 149 OFFCURVE",
"31 272 OFFCURVE",
"31 334 QCURVE",
"31 397 OFFCURVE",
"47 503 OFFCURVE",
"86 589 OFFCURVE",
"150 658 OFFCURVE",
"199 684 QCURVE",
"239 704 OFFCURVE",
"325 731 OFFCURVE",
"370 746 QCURVE"
);
},
{
closed = 1;
nodes = (
"342 134 OFFCURVE",
"386 154 OFFCURVE",
"413 186 OFFCURVE",
"427 226 OFFCURVE",
"427 246 QCURVE",
"427 292 OFFCURVE",
"373 357 OFFCURVE",
"318 357 QCURVE",
"267 357 OFFCURVE",
"201 299 OFFCURVE",
"201 250 QCURVE",
"201 229 OFFCURVE",
"215 187 OFFCURVE",
"242 155 OFFCURVE",
"285 134 OFFCURVE",
"314 134 QCURVE"
);
}
);
width = 616;
}
);
},
{
color = (153, 249, 255, 255);
glyphname = a;
layers = (
{
layerId = "890F39B9-B224-45DC-BFF4-46A200F8FC77";
paths = (
{
closed = 1;
nodes = (
"284 223 LINE",
"241 223 OFFCURVE",
"194 195 OFFCURVE",
"194 168 QCURVE",
"194 142 OFFCURVE",
"231 114 OFFCURVE",
"262 114 QCURVE",
"284 114 OFFCURVE",
"325 127 OFFCURVE",
"358 155 OFFCURVE",
"376 196 OFFCURVE",
"376 223 QCURVE"
);
},
{
closed = 1;
nodes = (
"381 0 LINE",
"380 68 LINE",
"362 43 OFFCURVE",
"313 10 OFFCURVE",
"254 -8 OFFCURVE",
"211 -8 QCURVE",
"176 -8 OFFCURVE",
"115 11 OFFCURVE",
"65 54 OFFCURVE",
"36 116 OFFCURVE",
"36 158 QCURVE",
"36 203 OFFCURVE",
"78 272 OFFCURVE",
"114 291 QCURVE",
"146 308 OFFCURVE",
"233 321 OFFCURVE",
"281 321 QCURVE",
"375 321 LINE",
"375 358 OFFCURVE",
"332 404 OFFCURVE",
"290 404 QCURVE",
"261 405 OFFCURVE",
"211 383 OFFCURVE",
"206 359 QCURVE",
"46 359 LINE",
"52 407 OFFCURVE",
"96 476 OFFCURVE",
"163 519 OFFCURVE",
"244 538 OFFCURVE",
"288 538 QCURVE",
"358 538 OFFCURVE",
"451 498 OFFCURVE",
"506 429 OFFCURVE",
"527 335 OFFCURVE",
"527 284 QCURVE",
"527 0 LINE"
);
}
);
width = 580;
}
);
leftKerningGroup = _kern27;
rightKerningGroup = _kern27;
unicode = 0061;
},
{
color = (153, 249, 255, 255);
glyphname = c;
layers = (
{
layerId = "890F39B9-B224-45DC-BFF4-46A200F8FC77";
paths = (
{
closed = 1;
nodes = (
"334 134 OFFCURVE",
"378 169 OFFCURVE",
"383 195 QCURVE",
"545 195 LINE",
"540 142 OFFCURVE",
"498 66 OFFCURVE",
"431 16 OFFCURVE",
"345 -8 OFFCURVE",
"299 -8 QCURVE",
"171 -8 OFFCURVE",
"34 134 OFFCURVE",
"34 264 QCURVE",
"34 327 OFFCURVE",
"72 429 OFFCURVE",
"141 500 OFFCURVE",
"240 538 OFFCURVE",
"303 538 QCURVE",
"351 538 OFFCURVE",
"435 512 OFFCURVE",
"498 461 OFFCURVE",
"537 384 OFFCURVE",
"542 333 QCURVE",
"383 333 LINE",
"377 360 OFFCURVE",
"333 393 OFFCURVE",
"298 393 QCURVE",
"268 393 OFFCURVE",
"226 370 OFFCURVE",
"202 333 OFFCURVE",
"192 286 OFFCURVE",
"192 262 QCURVE",
"192 235 OFFCURVE",
"203 190 OFFCURVE",
"229 155 OFFCURVE",
"269 134 OFFCURVE",
"298 134 QCURVE"
);
}
);
width = 574;
}
);
leftKerningGroup = _kern5;
rightKerningGroup = _kern6;
unicode = 0063;
},
{
color = (153, 249, 255, 255);
glyphname = e;
layers = (
{
layerId = "890F39B9-B224-45DC-BFF4-46A200F8FC77";
paths = (
{
closed = 1;
nodes = (
"331 123 OFFCURVE",
"373 144 OFFCURVE",
"383 163 QCURVE",
"543 163 LINE",
"532 117 OFFCURVE",
"486 53 OFFCURVE",
"420 11 OFFCURVE",
"341 -8 OFFCURVE",
"298 -8 QCURVE",
"173 -8 OFFCURVE",
"34 135 OFFCURVE",
"34 266 QCURVE",
"34 324 OFFCURVE",
"71 424 OFFCURVE",
"138 497 OFFCURVE",
"235 538 OFFCURVE",
"296 538 QCURVE",
"357 538 OFFCURVE",
"451 500 OFFCURVE",
"515 430 OFFCURVE",
"548 334 OFFCURVE",
"548 278 QCURVE",
"548 262 OFFCURVE",
"545 233 OFFCURVE",
"542 216 QCURVE",
"192 216 LINE",
"196 178 OFFCURVE",
"247 124 OFFCURVE",
"300 123 QCURVE"
);
},
{
closed = 1;
nodes = (
"397 322 LINE",
"397 359 OFFCURVE",
"344 407 OFFCURVE",
"298 407 QCURVE",
"247 407 OFFCURVE",
"197 356 OFFCURVE",
"194 322 QCURVE"
);
}
);
width = 582;
}
);
leftKerningGroup = _kern5;
rightKerningGroup = _kern6;
unicode = 0065;
},
{
color = (153, 249, 255, 255);
glyphname = f;
layers = (
{
layerId = "890F39B9-B224-45DC-BFF4-46A200F8FC77";
paths = (
{
closed = 1;
nodes = (
"381 527 LINE",
"381 386 LINE",
"256 386 LINE",
"256 0 LINE",
"98 0 LINE",
"98 386 LINE",
"19 386 LINE",
"19 527 LINE",
"98 527 LINE",
"98 582 LINE",
"98 674 OFFCURVE",
"190 756 OFFCURVE",
"286 756 QCURVE",
"381 756 LINE",
"381 616 LINE",
"308 616 LINE",
"256 616 OFFCURVE",
"256 565 QCURVE",
"256 527 LINE"
);
}
);
width = 390;
}
);
unicode = 0066;
},
{
color = (153, 249, 255, 255);
glyphname = g;
layers = (
{
layerId = "890F39B9-B224-45DC-BFF4-46A200F8FC77";
paths = (
{
closed = 1;
nodes = (
"430 55 LINE",
"403 21 OFFCURVE",
"327 -8 OFFCURVE",
"277 -8 QCURVE",
"211 -8 OFFCURVE",
"121 34 OFFCURVE",
"63 109 OFFCURVE",
"34 207 OFFCURVE",
"34 261 QCURVE",
"34 318 OFFCURVE",
"65 416 OFFCURVE",
"129 493 OFFCURVE",
"221 538 OFFCURVE",
"286 538 QCURVE",
"378 538 OFFCURVE",
"435 475 QCURVE",
"450 527 LINE",
"590 527 LINE",
"590 102 LINE",
"590 69 OFFCURVE",
"588 2 OFFCURVE",
"581 -62 OFFCURVE",
"562 -122 OFFCURVE",
"545 -150 QCURVE",
"526 -180 OFFCURVE",
"476 -222 OFFCURVE",
"413 -250 OFFCURVE",
"346 -261 OFFCURVE",
"315 -261 QCURVE",
"268 -261 OFFCURVE",
"181 -237 OFFCURVE",
"111 -189 OFFCURVE",
"64 -113 OFFCURVE",
"56 -61 QCURVE",
"220 -61 LINE",
"225 -83 OFFCURVE",
"275 -115 OFFCURVE",
"315 -115 QCURVE",
"350 -115 OFFCURVE",
"396 -88 OFFCURVE",
"421 -44 OFFCURVE",
"430 11 OFFCURVE",
"430 38 QCURVE"
);
},
{
closed = 1;
nodes = (
"342 133 OFFCURVE",
"388 155 OFFCURVE",
"418 191 OFFCURVE",
"432 238 OFFCURVE",
"432 266 QCURVE",
"432 319 OFFCURVE",
"371 394 OFFCURVE",
"312 394 QCURVE",
"280 394 OFFCURVE",
"234 371 OFFCURVE",
"206 332 OFFCURVE",
"193 284 OFFCURVE",
"193 259 QCURVE",
"193 233 OFFCURVE",
"207 188 OFFCURVE",
"235 154 OFFCURVE",
"281 133 OFFCURVE",
"311 133 QCURVE"
);
}
);
width = 644;
}
);
leftKerningGroup = _kern5;
unicode = 0067;
},
{
color = (153, 249, 255, 255);
glyphname = j;
layers = (
{
layerId = "890F39B9-B224-45DC-BFF4-46A200F8FC77";
paths = (
{
closed = 1;
nodes = (
"63 527 LINE",
"220 527 LINE",
"220 -51 LINE",
"220 -142 OFFCURVE",
"136 -231 OFFCURVE",
"41 -231 QCURVE",
"-44 -231 LINE",
"-44 -90 LINE",
"1 -90 LINE",
"19 -90 OFFCURVE",
"43 -79 OFFCURVE",
"58 -62 OFFCURVE",
"63 -39 OFFCURVE",
"63 -28 QCURVE"
);
},
{
closed = 1;
nodes = (
"184 775 OFFCURVE",
"240 725 OFFCURVE",
"240 680 QCURVE",
"240 632 OFFCURVE",
"184 584 OFFCURVE",
"143 584 QCURVE",
"102 584 OFFCURVE",
"45 633 OFFCURVE",
"45 680 QCURVE",
"45 725 OFFCURVE",
"103 775 OFFCURVE",
"143 775 QCURVE"
);
}
);
width = 287;
}
);
unicode = 006A;
},
{
color = (153, 249, 255, 255);
glyphname = o;
layers = (
{
layerId = "890F39B9-B224-45DC-BFF4-46A200F8FC77";
paths = (
{
closed = 1;
nodes = (
"274 392 OFFCURVE",
"231 371 OFFCURVE",
"203 334 OFFCURVE",
"190 289 OFFCURVE",
"190 265 QCURVE",
"190 238 OFFCURVE",
"203 192 OFFCURVE",
"231 157 OFFCURVE",
"274 136 OFFCURVE",
"304 136 QCURVE",
"334 136 OFFCURVE",
"377 158 OFFCURVE",
"404 192 OFFCURVE",
"416 238 OFFCURVE",
"416 265 QCURVE",
"416 289 OFFCURVE",
"404 334 OFFCURVE",
"377 371 OFFCURVE",
"334 392 OFFCURVE",
"304 392 QCURVE"
);
},
{
closed = 1;
nodes = (
"243 -8 OFFCURVE",
"144 28 OFFCURVE",
"74 98 OFFCURVE",
"34 200 OFFCURVE",
"34 266 QCURVE",
"34 329 OFFCURVE",
"76 430 OFFCURVE",
"148 501 OFFCURVE",
"248 538 OFFCURVE",
"308 538 QCURVE",
"368 538 OFFCURVE",
"466 501 OFFCURVE",
"535 430 OFFCURVE",
"574 329 OFFCURVE",
"574 266 QCURVE",
"574 200 OFFCURVE",
"534 98 OFFCURVE",
"464 28 OFFCURVE",
"364 -8 OFFCURVE",
"303 -8 QCURVE"
);
}
);
width = 608;
}
);
leftKerningGroup = _kern5;
rightKerningGroup = _kern6;
unicode = 006F;
},
{
color = (153, 249, 255, 255);
glyphname = r;
layers = (
{
layerId = "890F39B9-B224-45DC-BFF4-46A200F8FC77";
paths = (
{
closed = 1;
nodes = (
"206 469 LINE",
"237 510 OFFCURVE",
"312 537 OFFCURVE",
"355 537 QCURVE",
"368 537 OFFCURVE",
"393 536 OFFCURVE",
"400 534 QCURVE",
"400 383 LINE",
"386 383 OFFCURVE",
"350 384 OFFCURVE",
"313 381 OFFCURVE",
"278 374 OFFCURVE",
"265 366 QCURVE",
"235 347 OFFCURVE",
"212 284 OFFCURVE",
"212 238 QCURVE",
"212 0 LINE",
"55 0 LINE",
"55 527 LINE",
"196 527 LINE"
);
}
);
width = 404;
}
);
leftKerningGroup = _kern29;
rightKerningGroup = _kern29;
unicode = 0072;
},
{
color = (153, 249, 255, 255);
glyphname = t;
layers = (
{
layerId = "890F39B9-B224-45DC-BFF4-46A200F8FC77";
paths = (
{
closed = 1;
nodes = (
"251 386 LINE",
"251 199 LINE",
"251 173 OFFCURVE",
"275 140 OFFCURVE",
"308 140 QCURVE",
"358 140 LINE",
"358 0 LINE",
"301 0 LINE",
"195 -2 OFFCURVE",
"94 77 OFFCURVE",
"94 176 QCURVE",
"94 386 LINE",
"16 386 LINE",
"16 527 LINE",
"94 527 LINE",
"94 664 LINE",
"251 664 LINE",
"251 527 LINE",
"365 527 LINE",
"365 386 LINE"
);
}
);
width = 381;
}
);
leftKerningGroup = _kern21;
rightKerningGroup = _kern21;
unicode = 0074;
},
{
color = (153, 249, 255, 255);
glyphname = y_alt;
layers = (
{
layerId = "890F39B9-B224-45DC-BFF4-46A200F8FC77";
paths = (
{
closed = 1;
nodes = (
"346 -115 OFFCURVE",
"390 -88 OFFCURVE",
"414 -43 OFFCURVE",
"422 15 OFFCURVE",
"422 47 QCURVE",
"394 15 OFFCURVE",
"313 -8 OFFCURVE",
"269 -8 QCURVE",
"213 -8 OFFCURVE",
"134 26 OFFCURVE",
"84 90 OFFCURVE",
"62 180 OFFCURVE",
"62 234 QCURVE",
"62 527 LINE",
"219 527 LINE",
"219 261 LINE",
"219 238 OFFCURVE",
"226 193 OFFCURVE",
"247 157 OFFCURVE",
"287 134 OFFCURVE",
"319 134 QCURVE",
"348 134 OFFCURVE",
"389 159 OFFCURVE",
"400 175 QCURVE",
"418 200 OFFCURVE",
"421 267 OFFCURVE",
"421 299 QCURVE",
"421 527 LINE",
"579 527 LINE",
"579 105 LINE",
"579 67 OFFCURVE",
"577 -6 OFFCURVE",
"567 -75 OFFCURVE",
"545 -136 OFFCURVE",
"526 -164 QCURVE",
"491 -214 OFFCURVE",
"381 -262 OFFCURVE",
"308 -262 QCURVE",
"261 -262 OFFCURVE",
"176 -238 OFFCURVE",
"109 -190 OFFCURVE",
"63 -114 OFFCURVE",
"55 -62 QCURVE",
"220 -62 LINE",
"225 -84 OFFCURVE",
"273 -115 OFFCURVE",
"311 -115 QCURVE"
);
}
);
width = 633;
}
);
},
{
color = (153, 249, 255, 255);
glyphname = y2_alt;
layers = (
{
layerId = "890F39B9-B224-45DC-BFF4-46A200F8FC77";
paths = (
{
closed = 1;
nodes = (
"416 527 LINE",
"588 527 LINE",
"442 55 LINE",
"418 -23 OFFCURVE",
"366 -141 OFFCURVE",
"293 -222 OFFCURVE",
"192 -264 OFFCURVE",
"119 -264 QCURVE",
"81 -264 LINE",
"81 -110 LINE",
"99 -110 LINE",
"149 -110 OFFCURVE",
"211 -76 OFFCURVE",
"231 -37 QCURVE",
"1 527 LINE",
"187 527 LINE",
"316 153 LINE"
);
}
);
width = 589;
}
);
},
{
color = (153, 249, 255, 255);
glyphname = uni0443;
layers = (
{
layerId = "890F39B9-B224-45DC-BFF4-46A200F8FC77";
paths = (
{
closed = 1;
nodes = (
"414 527 LINE",
"588 527 LINE",
"442 55 LINE",
"418 -23 OFFCURVE",
"366 -141 OFFCURVE",
"293 -222 OFFCURVE",
"192 -264 OFFCURVE",
"119 -264 QCURVE",
"81 -264 LINE",
"81 -110 LINE",
"99 -110 LINE",
"149 -110 OFFCURVE",
"211 -76 OFFCURVE",
"231 -37 QCURVE",
"8 527 LINE",
"194 527 LINE",
"316 154 LINE"
);
}
);
width = 589;
}
);
unicode = 0443;
},
{
color = (153, 249, 255, 255);
glyphname = uni0451;
layers = (
{
layerId = "890F39B9-B224-45DC-BFF4-46A200F8FC77";
paths = (
{
closed = 1;
nodes = (
"212 749 OFFCURVE",
"266 703 OFFCURVE",
"266 661 QCURVE",
"266 617 OFFCURVE",
"212 571 OFFCURVE",
"174 571 QCURVE",
"135 571 OFFCURVE",
"83 617 OFFCURVE",
"83 661 QCURVE",
"83 703 OFFCURVE",
"136 749 OFFCURVE",
"174 749 QCURVE"
);
},
{
closed = 1;
nodes = (
"464 749 OFFCURVE",
"516 703 OFFCURVE",
"516 661 QCURVE",
"516 617 OFFCURVE",
"464 571 OFFCURVE",
"425 571 QCURVE",
"387 571 OFFCURVE",
"334 617 OFFCURVE",
"334 661 QCURVE",
"334 703 OFFCURVE",
"387 749 OFFCURVE",
"425 749 QCURVE"
);
},
{
closed = 1;
nodes = (
"331 123 OFFCURVE",
"373 144 OFFCURVE",
"383 163 QCURVE",
"543 163 LINE",
"532 117 OFFCURVE",
"486 53 OFFCURVE",
"420 11 OFFCURVE",
"341 -8 OFFCURVE",
"298 -8 QCURVE",
"173 -8 OFFCURVE",
"34 135 OFFCURVE",
"34 266 QCURVE",
"34 324 OFFCURVE",
"71 424 OFFCURVE",
"138 497 OFFCURVE",
"235 538 OFFCURVE",
"296 538 QCURVE",
"357 538 OFFCURVE",
"451 500 OFFCURVE",
"515 430 OFFCURVE",
"548 334 OFFCURVE",
"548 278 QCURVE",
"548 262 OFFCURVE",
"545 233 OFFCURVE",
"542 216 QCURVE",
"192 216 LINE",
"196 178 OFFCURVE",
"247 124 OFFCURVE",
"300 123 QCURVE"
);
},
{
closed = 1;
nodes = (
"397 322 LINE",
"397 359 OFFCURVE",
"344 407 OFFCURVE",
"298 407 QCURVE",
"247 407 OFFCURVE",
"197 356 OFFCURVE",
"194 322 QCURVE"
);
}
);
width = 582;
}
);
leftKerningGroup = _kern9;
rightKerningGroup = _kern10;
unicode = 0451;
},
{
color = (153, 249, 255, 255);
glyphname = uni0437;
layers = (
{
layerId = "890F39B9-B224-45DC-BFF4-46A200F8FC77";
paths = (
{
closed = 1;
nodes = (
"485 269 OFFCURVE",
"517 204 OFFCURVE",
"517 168 QCURVE",
"515 115 OFFCURVE",
"471 46 OFFCURVE",
"401 7 OFFCURVE",
"315 -8 OFFCURVE",
"273 -8 QCURVE",
"231 -8 OFFCURVE",
"146 11 OFFCURVE",
"76 55 OFFCURVE",
"28 126 OFFCURVE",
"24 179 QCURVE",
"178 179 LINE",
"181 163 OFFCURVE",
"200 141 OFFCURVE",
"229 128 OFFCURVE",
"263 123 OFFCURVE",
"280 123 QCURVE",
"295 123 OFFCURVE",
"325 127 OFFCURVE",
"349 138 OFFCURVE",
"366 156 OFFCURVE",
"366 169 QCURVE",
"366 209 OFFCURVE",
"304 209 QCURVE",
"218 209 LINE",
"218 322 LINE",
"284 322 LINE",
"322 322 OFFCURVE",
"354 344 OFFCURVE",
"354 366 QCURVE",
"354 378 OFFCURVE",
"340 395 OFFCURVE",
"318 404 OFFCURVE",
"291 408 OFFCURVE",
"277 408 QCURVE",
"262 408 OFFCURVE",
"230 402 OFFCURVE",
"204 390 OFFCURVE",
"185 370 OFFCURVE",
"183 355 QCURVE",
"34 355 LINE",
"41 410 OFFCURVE",
"90 482 OFFCURVE",
"159 522 OFFCURVE",
"241 538 OFFCURVE",
"284 538 QCURVE",
"321 538 OFFCURVE",
"399 523 OFFCURVE",
"462 487 OFFCURVE",
"501 424 OFFCURVE",
"501 377 QCURVE",
"501 346 OFFCURVE",
"473 299 OFFCURVE",
"452 285 QCURVE"
);
}
);
width = 547;
}
);
leftKerningGroup = _kern9;
rightKerningGroup = _kern10;
unicode = 0437;
},
{
color = (153, 249, 255, 255);
glyphname = uni044D;
layers = (
{
layerId = "890F39B9-B224-45DC-BFF4-46A200F8FC77";
paths = (
{
closed = 1;
nodes = (
"328 125 OFFCURVE",
"379 173 OFFCURVE",
"379 201 QCURVE",
"202 201 LINE",
"202 326 LINE",
"378 326 LINE",
"374 357 OFFCURVE",
"325 400 OFFCURVE",
"280 400 QCURVE",
"248 400 OFFCURVE",
"195 375 OFFCURVE",
"187 356 QCURVE",
"26 356 LINE",
"35 401 OFFCURVE",
"84 469 OFFCURVE",
"152 514 OFFCURVE",
"234 536 OFFCURVE",
"279 536 QCURVE",
"403 536 OFFCURVE",
"534 392 OFFCURVE",
"534 264 QCURVE",
"534 137 OFFCURVE",
"404 -9 OFFCURVE",
"274 -9 QCURVE",
"234 -9 OFFCURVE",
"155 9 OFFCURVE",
"87 51 OFFCURVE",
"36 115 OFFCURVE",
"26 162 QCURVE",
"186 162 LINE",
"199 144 OFFCURVE",
"249 125 OFFCURVE",
"280 125 QCURVE"
);
}
);
width = 565;
}
);
leftKerningGroup = _kern9;
rightKerningGroup = _kern10;
unicode = 044D;
},
{
color = (153, 249, 255, 255);
glyphname = C;
layers = (
{
layerId = "890F39B9-B224-45DC-BFF4-46A200F8FC77";
paths = (
{
closed = 1;
nodes = (
"203 316 OFFCURVE",
"223 240 OFFCURVE",
"266 180 OFFCURVE",
"335 143 OFFCURVE",
"383 143 QCURVE",
"445 143 OFFCURVE",
"522 197 OFFCURVE",
"533 247 QCURVE",
"690 247 LINE",
"685 184 OFFCURVE",
"631 89 OFFCURVE",
"547 25 OFFCURVE",
"439 -7 OFFCURVE",
"381 -7 QCURVE",
"298 -7 OFFCURVE",
"170 45 OFFCURVE",
"81 140 OFFCURVE",
"35 273 OFFCURVE",
"35 355 QCURVE",
"35 435 OFFCURVE",
"83 568 OFFCURVE",
"172 664 OFFCURVE",
"301 717 OFFCURVE",
"382 717 QCURVE",
"442 717 OFFCURVE",
"547 686 OFFCURVE",
"628 623 OFFCURVE",
"680 527 OFFCURVE",
"686 461 QCURVE",
"531 461 LINE",
"519 511 OFFCURVE",
"445 567 OFFCURVE",
"383 567 QCURVE",
"334 567 OFFCURVE",
"266 532 OFFCURVE",
"223 473 OFFCURVE",
"203 397 OFFCURVE",
"203 356 QCURVE"
);
}
);
width = 719;
}
);
leftKerningGroup = _kern3;
rightKerningGroup = _kern4;
unicode = 0043;
},
{
color = (153, 249, 255, 255);
glyphname = S;
layers = (
{
layerId = "890F39B9-B224-45DC-BFF4-46A200F8FC77";
paths = (
{
closed = 1;
nodes = (
"445 492 LINE",
"439 530 OFFCURVE",
"376 570 OFFCURVE",
"325 570 QCURVE",
"307 570 OFFCURVE",
"272 563 OFFCURVE",
"244 548 OFFCURVE",
"227 524 OFFCURVE",
"227 508 QCURVE",
"227 491 OFFCURVE",
"242 469 OFFCURVE",
"271 453 OFFCURVE",
"312 441 OFFCURVE",
"338 434 QCURVE",
"390 420 OFFCURVE",
"490 398 OFFCURVE",
"569 356 OFFCURVE",
"618 282 OFFCURVE",
"620 216 QCURVE",
"620 157 OFFCURVE",
"576 72 OFFCURVE",
"501 18 OFFCURVE",
"401 -8 OFFCURVE",
"346 -8 QCURVE",
"291 -8 OFFCURVE",
"187 17 OFFCURVE",
"103 74 OFFCURVE",
"49 164 OFFCURVE",
"44 229 QCURVE",
"209 229 LINE",
"215 204 OFFCURVE",
"243 171 OFFCURVE",
"282 151 OFFCURVE",
"331 142 OFFCURVE",
"357 142 QCURVE",
"373 142 OFFCURVE",
"409 148 OFFCURVE",
"437 163 OFFCURVE",
"456 188 OFFCURVE",
"456 206 QCURVE",
"456 232 OFFCURVE",
"419 259 OFFCURVE",
"391 266 QCURVE",
"323 281 OFFCURVE",
"205 311 OFFCURVE",
"116 359 OFFCURVE",
"65 437 OFFCURVE",
"65 501 QCURVE",
"65 565 OFFCURVE",
"117 649 OFFCURVE",
"198 698 OFFCURVE",
"294 717 OFFCURVE",
"345 717 QCURVE",
"398 717 OFFCURVE",
"487 688 OFFCURVE",
"555 632 OFFCURVE",
"598 549 OFFCURVE",
"604 492 QCURVE"
);
}
);
width = 665;
}
);
leftKerningGroup = _kern3;
rightKerningGroup = _kern4;
unicode = 0053;
},
{
color = (153, 249, 255, 255);
glyphname = uni0421;
layers = (
{
layerId = "890F39B9-B224-45DC-BFF4-46A200F8FC77";
paths = (
{
closed = 1;
nodes = (
"203 316 OFFCURVE",
"223 240 OFFCURVE",
"266 180 OFFCURVE",
"334 143 OFFCURVE",
"382 143 QCURVE",
"444 143 OFFCURVE",
"522 197 OFFCURVE",
"533 247 QCURVE",
"690 247 LINE",
"685 184 OFFCURVE",
"631 89 OFFCURVE",
"546 25 OFFCURVE",
"438 -7 OFFCURVE",
"380 -7 QCURVE",
"297 -7 OFFCURVE",
"169 45 OFFCURVE",
"81 140 OFFCURVE",
"35 273 OFFCURVE",
"35 355 QCURVE",
"35 435 OFFCURVE",
"82 568 OFFCURVE",
"172 664 OFFCURVE",
"300 717 OFFCURVE",
"381 717 QCURVE",
"441 717 OFFCURVE",
"546 686 OFFCURVE",
"628 623 OFFCURVE",
"680 527 OFFCURVE",
"686 461 QCURVE",
"531 461 LINE",
"519 511 OFFCURVE",
"444 567 OFFCURVE",
"382 567 QCURVE",
"333 567 OFFCURVE",
"265 531 OFFCURVE",
"222 472 OFFCURVE",
"203 396 OFFCURVE",
"203 356 QCURVE"
);
}
);
width = 725;
}
);
leftKerningGroup = _kern7;
rightKerningGroup = _kern8;
unicode = 0421;
},
{
color = (153, 249, 255, 255);
glyphname = G;
layers = (
{
layerId = "890F39B9-B224-45DC-BFF4-46A200F8FC77";
paths = (
{
closed = 1;
nodes = (
"203 314 OFFCURVE",
"223 237 OFFCURVE",
"268 178 OFFCURVE",
"339 143 OFFCURVE",
"389 143 QCURVE",
"416 143 OFFCURVE",
"467 155 OFFCURVE",
"508 181 OFFCURVE",
"535 222 OFFCURVE",
"539 250 QCURVE",
"366 250 LINE",
"366 385 LINE",
"705 385 LINE",
"705 345 OFFCURVE",
"700 267 OFFCURVE",
"685 194 OFFCURVE",
"655 126 OFFCURVE",
"630 96 QCURVE",
"589 47 OFFCURVE",
"463 -7 OFFCURVE",
"385 -7 QCURVE",
"302 -7 OFFCURVE",
"172 45 OFFCURVE",
"82 140 OFFCURVE",
"35 273 OFFCURVE",
"35 354 QCURVE",
"35 437 OFFCURVE",
"82 571 OFFCURVE",
"172 666 OFFCURVE",
"302 717 OFFCURVE",
"385 717 QCURVE",
"443 717 OFFCURVE",
"548 686 OFFCURVE",
"631 624 OFFCURVE",
"685 530 OFFCURVE",
"692 467 QCURVE",
"532 467 LINE",
"522 516 OFFCURVE",
"444 567 OFFCURVE",
"386 567 QCURVE",
"336 567 OFFCURVE",
"266 530 OFFCURVE",
"223 470 OFFCURVE",
"203 394 OFFCURVE",
"203 355 QCURVE"
);
}
);
width = 740;
}
);
leftKerningGroup = _kern3;
rightKerningGroup = _kern4;
unicode = 0047;
},
{
color = (153, 249, 255, 255);
glyphname = uni041E;
layers = (
{
layerId = "890F39B9-B224-45DC-BFF4-46A200F8FC77";
paths = (
{
closed = 1;
nodes = (
"473 717 OFFCURVE",
"604 666 OFFCURVE",
"697 571 OFFCURVE",
"747 439 OFFCURVE",
"747 358 QCURVE",
"747 278 OFFCURVE",
"697 144 OFFCURVE",
"604 46 OFFCURVE",
"472 -8 OFFCURVE",
"390 -7 QCURVE",
"307 -7 OFFCURVE",
"176 46 OFFCURVE",
"84 142 OFFCURVE",
"35 275 OFFCURVE",
"35 355 QCURVE",
"35 436 OFFCURVE",
"86 569 OFFCURVE",
"179 665 OFFCURVE",
"311 717 OFFCURVE",
"392 717 QCURVE"
);
},
{
closed = 1;
nodes = (
"202 315 OFFCURVE",
"225 239 OFFCURVE",
"272 180 OFFCURVE",
"344 144 OFFCURVE",
"394 143 QCURVE",
"442 143 OFFCURVE",
"512 179 OFFCURVE",
"558 239 OFFCURVE",
"580 315 OFFCURVE",
"580 354 QCURVE",
"580 393 OFFCURVE",
"559 469 OFFCURVE",
"513 529 OFFCURVE",
"442 567 OFFCURVE",
"392 567 QCURVE",
"343 567 OFFCURVE",
"271 531 OFFCURVE",
"225 472 OFFCURVE",
"202 396 OFFCURVE",
"202 356 QCURVE"
);
}
);
width = 782;
}
);
leftKerningGroup = _kern7;
rightKerningGroup = _kern8;
unicode = 041E;
},
{
color = (153, 249, 255, 255);
glyphname = Q;
layers = (
{
layerId = "890F39B9-B224-45DC-BFF4-46A200F8FC77";
paths = (
{
closed = 1;
nodes = (
"202 315 OFFCURVE",
"224 239 OFFCURVE",
"270 179 OFFCURVE",
"343 143 OFFCURVE",
"393 143 QCURVE",
"441 143 OFFCURVE",
"512 179 OFFCURVE",
"558 239 OFFCURVE",
"581 315 OFFCURVE",
"581 355 QCURVE",
"581 395 OFFCURVE",
"559 471 OFFCURVE",
"513 531 OFFCURVE",
"441 567 OFFCURVE",
"392 567 QCURVE",
"342 567 OFFCURVE",
"271 530 OFFCURVE",
"224 471 OFFCURVE",
"202 395 OFFCURVE",
"202 356 QCURVE"
);
},
{
closed = 1;
nodes = (
"619 -111 LINE",
"594 -79 OFFCURVE",
"545 -17 OFFCURVE",
"519 15 QCURVE",
"490 4 OFFCURVE",
"423 -7 OFFCURVE",
"391 -7 QCURVE",
"308 -7 OFFCURVE",
"176 46 OFFCURVE",
"84 141 OFFCURVE",
"35 274 OFFCURVE",
"35 354 QCURVE",
"35 435 OFFCURVE",
"86 569 OFFCURVE",
"179 664 OFFCURVE",
"311 717 OFFCURVE",
"393 717 QCURVE",
"474 717 OFFCURVE",
"605 666 OFFCURVE",
"698 572 OFFCURVE",
"748 439 OFFCURVE",
"748 358 QCURVE",
"748 277 OFFCURVE",
"698 150 OFFCURVE",
"652 102 QCURVE",
"675 73 OFFCURVE",
"721 14 OFFCURVE",
"744 -15 QCURVE"
);
}
);
width = 783;
}
);
leftKerningGroup = _kern3;
rightKerningGroup = _kern4;
unicode = 0051;
},
{
color = (153, 249, 255, 255);
glyphname = J;
layers = (
{
layerId = "890F39B9-B224-45DC-BFF4-46A200F8FC77";
paths = (
{
closed = 1;
nodes = (
"533 254 LINE",
"533 127 OFFCURVE",
"414 -7 OFFCURVE",
"289 -7 QCURVE",
"164 -7 OFFCURVE",
"29 126 OFFCURVE",
"29 244 QCURVE",
"29 253 LINE",
"192 253 LINE",
"192 233 OFFCURVE",
"200 193 OFFCURVE",
"221 161 OFFCURVE",
"257 141 OFFCURVE",
"284 141 QCURVE",
"330 141 OFFCURVE",
"370 200 OFFCURVE",
"370 240 QCURVE",
"370 708 LINE",
"533 708 LINE"
);
}
);
width = 602;
}
);
unicode = 004A;
},
{
color = (153, 249, 255, 255);
glyphname = K_alt;
layers = (
{
layerId = "890F39B9-B224-45DC-BFF4-46A200F8FC77";
paths = (
{
closed = 1;
nodes = (
"237 421 LINE",
"500 708 LINE",
"704 708 LINE",
"414 400 LINE",
"693 0 LINE",
"499 0 LINE",
"296 293 LINE",
"237 235 LINE",
"237 0 LINE",
"74 0 LINE",
"74 708 LINE",
"237 708 LINE"
);
}
);
width = 705;
}
);
leftKerningGroup = _kern16;
rightKerningGroup = _kern16;
},
{
color = (153, 249, 255, 255);
glyphname = K;
layers = (
{
layerId = "890F39B9-B224-45DC-BFF4-46A200F8FC77";
paths = (
{
closed = 1;
nodes = (
"237 278 LINE",
"237 0 LINE",
"74 0 LINE",
"74 708 LINE",
"237 708 LINE",
"237 426 LINE",
"323 426 LINE",
"502 708 LINE",
"689 708 LINE",
"459 370 LINE",
"690 0 LINE",
"500 0 LINE",
"332 278 LINE"
);
}
);
width = 691;
}
);
leftKerningGroup = _kern1;
rightKerningGroup = _kern16;
unicode = 004B;
},
{
color = (153, 249, 255, 255);
glyphname = k_alt;
layers = (
{
layerId = "890F39B9-B224-45DC-BFF4-46A200F8FC77";
paths = (
{
closed = 1;
nodes = (
"385 527 LINE",
"582 527 LINE",
"371 308 LINE",
"580 0 LINE",
"401 0 LINE",
"261 207 LINE",
"212 159 LINE",
"212 0 LINE",
"55 0 LINE",
"55 708 LINE",
"212 708 LINE",
"212 336 LINE"
);
}
);
width = 583;
}
);
leftKerningGroup = _kern17;
rightKerningGroup = _kern17;
},
{
color = (153, 249, 255, 255);
glyphname = k;
layers = (
{
layerId = "890F39B9-B224-45DC-BFF4-46A200F8FC77";
paths = (
{
closed = 1;
nodes = (
"212 192 LINE",
"212 0 LINE",
"55 0 LINE",
"55 708 LINE",
"212 708 LINE",
"212 332 LINE",
"273 332 LINE",
"385 527 LINE",
"565 527 LINE",
"405 276 LINE",
"578 0 LINE",
"393 0 LINE",
"277 192 LINE"
);
}
);
width = 580;
}
);
leftKerningGroup = _kern17;
rightKerningGroup = _kern17;
unicode = 006B;
},
{
color = (153, 249, 255, 255);
glyphname = i_alt;
layers = (
{
layerId = "890F39B9-B224-45DC-BFF4-46A200F8FC77";
paths = (
{
closed = 1;
nodes = (
"-1 527 LINE",
"234 527 LINE",
"234 0 LINE",
"77 0 LINE",
"77 386 LINE",
"-1 386 LINE"
);
},
{
closed = 1;
nodes = (
"195 777 OFFCURVE",
"250 727 OFFCURVE",
"250 682 QCURVE",
"250 635 OFFCURVE",
"195 587 OFFCURVE",
"154 587 QCURVE",
"112 587 OFFCURVE",
"57 636 OFFCURVE",
"57 682 QCURVE",
"57 727 OFFCURVE",
"114 777 OFFCURVE",
"154 777 QCURVE"
);
}
);
width = 297;
}
);
},
{
color = (153, 249, 255, 255);
glyphname = j_alt;
layers = (
{
layerId = "890F39B9-B224-45DC-BFF4-46A200F8FC77";
paths = (
{
closed = 1;
nodes = (
"195 778 OFFCURVE",
"251 727 OFFCURVE",
"251 682 QCURVE",
"251 635 OFFCURVE",
"195 587 OFFCURVE",
"155 587 QCURVE",
"112 587 OFFCURVE",
"56 636 OFFCURVE",
"56 682 QCURVE",
"56 727 OFFCURVE",
"114 778 OFFCURVE",
"155 778 QCURVE"
);
},
{
closed = 1;
nodes = (
"-9 527 LINE",
"232 527 LINE",
"232 -49 LINE",
"234 -140 OFFCURVE",
"148 -231 OFFCURVE",
"54 -231 QCURVE",
"-31 -231 LINE",
"-31 -89 LINE",
"5 -89 LINE",
"27 -89 OFFCURVE",
"55 -77 OFFCURVE",
"70 -57 OFFCURVE",
"75 -31 OFFCURVE",
"75 -18 QCURVE",
"75 386 LINE",
"-9 386 LINE"
);
}
);
width = 298;
}
);
},
{
color = (153, 249, 255, 255);
glyphname = s_alt;
layers = (
{
layerId = "890F39B9-B224-45DC-BFF4-46A200F8FC77";
paths = (
{
closed = 1;
nodes = (
"244 410 OFFCURVE",
"201 395 OFFCURVE",
"201 373 QCURVE",
"201 359 OFFCURVE",
"228 342 OFFCURVE",
"249 336 QCURVE",
"294 324 OFFCURVE",
"391 311 OFFCURVE",
"473 282 OFFCURVE",
"525 221 OFFCURVE",
"525 163 QCURVE",
"525 110 OFFCURVE",
"477 43 OFFCURVE",
"406 4 OFFCURVE",
"325 -11 OFFCURVE",
"292 -11 QCURVE",
"244 -11 OFFCURVE",
"154 11 OFFCURVE",
"81 58 OFFCURVE",
"33 131 OFFCURVE",
"30 183 QCURVE",
"189 183 LINE",
"191 166 OFFCURVE",
"211 142 OFFCURVE",
"240 127 OFFCURVE",
"277 121 OFFCURVE",
"295 121 QCURVE",
"371 121 OFFCURVE",
"371 161 QCURVE",
"371 181 OFFCURVE",
"323 199 OFFCURVE",
"251 212 OFFCURVE",
"168 227 OFFCURVE",
"96 261 OFFCURVE",
"48 321 OFFCURVE",
"48 372 QCURVE",
"48 420 OFFCURVE",
"93 484 OFFCURVE",
"161 522 OFFCURVE",
"241 538 OFFCURVE",
"279 538 QCURVE",
"323 538 OFFCURVE",
"405 518 OFFCURVE",
"470 474 OFFCURVE",
"510 403 OFFCURVE",
"513 354 QCURVE",
"361 354 LINE",
"359 385 OFFCURVE",
"309 408 OFFCURVE",
"274 409 QCURVE"
);
}
);
width = 557;
}
);
leftKerningGroup = _kern5;
rightKerningGroup = _kern6;
},
{
color = (153, 249, 255, 255);
glyphname = s;
layers = (
{
layerId = "890F39B9-B224-45DC-BFF4-46A200F8FC77";
paths = (
{
closed = 1;
nodes = (
"229 409 OFFCURVE",
"195 394 OFFCURVE",
"193 375 QCURVE",
"193 361 OFFCURVE",
"210 344 OFFCURVE",
"233 338 QCURVE",
"273 327 OFFCURVE",
"363 312 OFFCURVE",
"439 282 OFFCURVE",
"491 221 OFFCURVE",
"492 166 QCURVE",
"491 117 OFFCURVE",
"452 51 OFFCURVE",
"391 9 OFFCURVE",
"313 -8 OFFCURVE",
"274 -8 QCURVE",
"231 -8 OFFCURVE",
"147 10 OFFCURVE",
"79 53 OFFCURVE",
"32 121 OFFCURVE",
"26 173 QCURVE",
"188 173 LINE",
"194 146 OFFCURVE",
"243 121 OFFCURVE",
"276 121 QCURVE",
"303 121 OFFCURVE",
"335 140 OFFCURVE",
"337 159 QCURVE",
"337 176 OFFCURVE",
"319 191 OFFCURVE",
"292 199 OFFCURVE",
"260 206 OFFCURVE",
"244 209 QCURVE",
"205 217 OFFCURVE",
"131 240 OFFCURVE",
"77 272 OFFCURVE",
"40 328 OFFCURVE",
"40 370 QCURVE",
"40 416 OFFCURVE",
"78 481 OFFCURVE",
"139 520 OFFCURVE",
"218 538 OFFCURVE",
"259 538 QCURVE",
"301 538 OFFCURVE",
"378 519 OFFCURVE",
"436 477 OFFCURVE",
"474 410 OFFCURVE",
"478 363 QCURVE",
"325 363 LINE",
"323 388 OFFCURVE",
"281 409 OFFCURVE",
"253 409 QCURVE"
);
}
);
width = 518;
}
);
leftKerningGroup = _kern5;
rightKerningGroup = _kern6;
unicode = 0073;
},
{
color = (153, 249, 255, 255);
glyphname = c_alt;
layers = (
{
layerId = "890F39B9-B224-45DC-BFF4-46A200F8FC77";
paths = (
{
closed = 1;
nodes = (
"321 132 OFFCURVE",
"364 152 OFFCURVE",
"373 169 QCURVE",
"537 169 LINE",
"528 121 OFFCURVE",
"481 55 OFFCURVE",
"416 12 OFFCURVE",
"335 -8 OFFCURVE",
"293 -8 QCURVE",
"164 -8 OFFCURVE",
"30 135 OFFCURVE",
"30 265 QCURVE",
"30 326 OFFCURVE",
"67 426 OFFCURVE",
"135 498 OFFCURVE",
"235 537 OFFCURVE",
"298 537 QCURVE",
"345 537 OFFCURVE",
"429 513 OFFCURVE",
"493 463 OFFCURVE",
"535 388 OFFCURVE",
"541 336 QCURVE",
"379 336 LINE",
"372 363 OFFCURVE",
"327 394 OFFCURVE",
"292 394 QCURVE",
"263 394 OFFCURVE",
"223 372 OFFCURVE",
"197 335 OFFCURVE",
"186 289 OFFCURVE",
"186 265 QCURVE",
"186 236 OFFCURVE",
"197 188 OFFCURVE",
"223 153 OFFCURVE",
"265 132 OFFCURVE",
"294 132 QCURVE"
);
}
);
width = 572;
}
);
leftKerningGroup = _kern5;
rightKerningGroup = _kern6;
},
{
color = (153, 249, 255, 255);
glyphname = copyright;
layers = (
{
layerId = "890F39B9-B224-45DC-BFF4-46A200F8FC77";
paths = (
{
closed = 1;
nodes = (
"366 -87 OFFCURVE",
"213 -31 OFFCURVE",
"105 74 OFFCURVE",
"46 225 OFFCURVE",
"46 321 QCURVE",
"46 415 OFFCURVE",
"106 566 OFFCURVE",
"215 672 OFFCURVE",
"368 729 OFFCURVE",
"461 729 QCURVE",
"552 729 OFFCURVE",
"703 670 OFFCURVE",
"812 562 OFFCURVE",
"872 412 OFFCURVE",
"872 321 QCURVE",
"872 225 OFFCURVE",
"813 73 OFFCURVE",
"705 -32 OFFCURVE",
"553 -87 OFFCURVE",
"461 -87 QCURVE"
);
},
{
closed = 1;
nodes = (
"535 26 OFFCURVE",
"645 68 OFFCURVE",
"719 145 OFFCURVE",
"758 254 OFFCURVE",
"758 320 QCURVE",
"758 384 OFFCURVE",
"719 492 OFFCURVE",
"644 570 OFFCURVE",
"535 614 OFFCURVE",
"465 614 QCURVE",
"396 614 OFFCURVE",
"285 570 OFFCURVE",
"207 492 OFFCURVE",
"166 384 OFFCURVE",
"166 320 QCURVE",
"166 254 OFFCURVE",
"206 146 OFFCURVE",
"282 68 OFFCURVE",
"394 26 OFFCURVE",
"465 26 QCURVE"
);
},
{
closed = 1;
nodes = (
"496 224 OFFCURVE",
"530 249 OFFCURVE",
"533 267 QCURVE",
"659 267 LINE",
"653 225 OFFCURVE",
"620 165 OFFCURVE",
"569 128 OFFCURVE",
"504 111 OFFCURVE",
"467 111 QCURVE",
"371 111 OFFCURVE",
"264 219 OFFCURVE",
"264 322 QCURVE",
"264 372 OFFCURVE",
"295 449 OFFCURVE",
"350 502 OFFCURVE",
"426 530 OFFCURVE",
"472 530 QCURVE",
"547 530 OFFCURVE",
"647 456 OFFCURVE",
"658 373 QCURVE",
"532 373 LINE",
"530 393 OFFCURVE",
"494 418 OFFCURVE",
"468 418 QCURVE",
"444 418 OFFCURVE",
"413 402 OFFCURVE",
"395 375 OFFCURVE",
"388 340 OFFCURVE",
"388 322 QCURVE",
"388 303 OFFCURVE",
"395 268 OFFCURVE",
"413 241 OFFCURVE",
"444 224 OFFCURVE",
"469 224 QCURVE"
);
}
);
width = 918;
}
);
unicode = 00A9;
},
{
color = (153, 249, 255, 255);
glyphname = ampersand;
layers = (
{
layerId = "890F39B9-B224-45DC-BFF4-46A200F8FC77";
paths = (
{
closed = 1;
nodes = (
"526 0 LINE",
"479 48 LINE",
"440 16 OFFCURVE",
"339 -12 OFFCURVE",
"284 -12 QCURVE",
"239 -12 OFFCURVE",
"156 12 OFFCURVE",
"92 62 OFFCURVE",
"54 138 OFFCURVE",
"54 190 QCURVE",
"54 258 OFFCURVE",
"121 350 OFFCURVE",
"169 379 QCURVE",
"142 408 OFFCURVE",
"108 478 OFFCURVE",
"108 520 QCURVE",
"108 569 OFFCURVE",
"143 642 OFFCURVE",
"204 690 OFFCURVE",
"284 714 OFFCURVE",
"329 714 QCURVE",
"366 712 OFFCURVE",
"436 689 OFFCURVE",
"488 645 OFFCURVE",
"520 582 OFFCURVE",
"520 541 QCURVE",
"520 507 OFFCURVE",
"498 452 OFFCURVE",
"462 405 OFFCURVE",
"415 368 OFFCURVE",
"390 352 QCURVE",
"482 252 LINE",
"493 274 OFFCURVE",
"504 325 OFFCURVE",
"505 344 QCURVE",
"640 344 LINE",
"635 293 OFFCURVE",
"607 198 OFFCURVE",
"579 154 QCURVE",
"720 0 LINE"
);
},
{
closed = 1;
nodes = (
"260 287 LINE",
"226 265 OFFCURVE",
"198 220 OFFCURVE",
"198 197 QCURVE",
"198 176 OFFCURVE",
"216 147 OFFCURVE",
"245 129 OFFCURVE",
"283 121 OFFCURVE",
"303 121 QCURVE",
"327 121 OFFCURVE",
"374 136 OFFCURVE",
"390 147 QCURVE"
);
},
{
closed = 1;
nodes = (
"311 448 OFFCURVE",
"339 469 OFFCURVE",
"362 492 OFFCURVE",
"377 518 OFFCURVE",
"377 530 QCURVE",
"377 552 OFFCURVE",
"346 587 OFFCURVE",
"316 587 QCURVE",
"283 587 OFFCURVE",
"247 552 OFFCURVE",
"247 526 QCURVE",
"247 503 OFFCURVE",
"276 461 OFFCURVE",
"297 441 QCURVE"
);
}
);
width = 731;
}
);
unicode = 0026;
},
{
color = (153, 249, 255, 255);
glyphname = dollar;
layers = (
{
layerId = "890F39B9-B224-45DC-BFF4-46A200F8FC77";
paths = (
{
closed = 1;
nodes = (
"457 486 LINE",
"452 530 OFFCURVE",
"384 569 OFFCURVE",
"336 571 QCURVE",
"317 572 OFFCURVE",
"279 567 OFFCURVE",
"248 553 OFFCURVE",
"229 528 OFFCURVE",
"229 508 QCURVE",
"229 483 OFFCURVE",
"267 453 OFFCURVE",
"298 444 QCURVE",
"345 430 OFFCURVE",
"409 418 OFFCURVE",
"437 411 QCURVE",
"477 401 OFFCURVE",
"547 376 OFFCURVE",
"598 334 OFFCURVE",
"627 267 OFFCURVE",
"627 216 QCURVE",
"627 162 OFFCURVE",
"591 84 OFFCURVE",
"531 31 OFFCURVE",
"451 2 OFFCURVE",
"407 -3 QCURVE",
"407 -140 LINE",
"262 -140 LINE",
"262 1 LINE",
"167 21 OFFCURVE",
"50 137 OFFCURVE",
"46 237 QCURVE",
"207 237 LINE",
"211 211 OFFCURVE",
"239 175 OFFCURVE",
"279 152 OFFCURVE",
"328 142 OFFCURVE",
"353 142 QCURVE",
"374 142 OFFCURVE",
"415 148 OFFCURVE",
"446 162 OFFCURVE",
"466 187 OFFCURVE",
"466 206 QCURVE",
"466 233 OFFCURVE",
"425 257 OFFCURVE",
"399 264 QCURVE",
"394 265 OFFCURVE",
"381 268 OFFCURVE",
"360 273 OFFCURVE",
"329 280 OFFCURVE",
"305 285 QCURVE",
"249 297 OFFCURVE",
"162 330 OFFCURVE",
"100 381 OFFCURVE",
"68 452 OFFCURVE",
"68 502 QCURVE",
"68 550 OFFCURVE",
"101 623 OFFCURVE",
"155 674 OFFCURVE",
"227 705 OFFCURVE",
"266 710 QCURVE",
"266 852 LINE",
"410 852 LINE",
"410 709 LINE",
"454 704 OFFCURVE",
"527 668 OFFCURVE",
"581 611 OFFCURVE",
"611 533 OFFCURVE",
"613 486 QCURVE"
);
}
);
width = 674;
}
);
unicode = 0024;
},
{
color = (153, 249, 255, 255);
glyphname = parenleft;
layers = (
{
layerId = "890F39B9-B224-45DC-BFF4-46A200F8FC77";
paths = (
{
closed = 1;
nodes = (
"52 442 OFFCURVE",
"133 696 OFFCURVE",
"217 806 QCURVE",
"409 806 LINE",
"359 753 OFFCURVE",
"286 633 OFFCURVE",
"238 504 OFFCURVE",
"214 372 OFFCURVE",
"213 308 QCURVE",
"214 244 OFFCURVE",
"238 112 OFFCURVE",
"286 -16 OFFCURVE",
"359 -137 OFFCURVE",
"409 -189 QCURVE",
"217 -189 LINE",
"133 -80 OFFCURVE",
"52 174 OFFCURVE",
"52 308 QCURVE"
);
}
);
width = 366;
}
);
unicode = 0028;
},
{
color = (153, 249, 255, 255);
glyphname = parenright;
layers = (
{
layerId = "890F39B9-B224-45DC-BFF4-46A200F8FC77";
paths = (
{
closed = 1;
nodes = (
"314 174 OFFCURVE",
"232 -80 OFFCURVE",
"149 -189 QCURVE",
"-43 -189 LINE",
"6 -137 OFFCURVE",
"80 -16 OFFCURVE",
"128 112 OFFCURVE",
"152 244 OFFCURVE",
"153 308 QCURVE",
"152 372 OFFCURVE",
"128 504 OFFCURVE",
"80 633 OFFCURVE",
"6 753 OFFCURVE",
"-43 806 QCURVE",
"149 806 LINE",
"232 696 OFFCURVE",
"314 442 OFFCURVE",
"314 308 QCURVE"
);
}
);
width = 366;
}
);
unicode = 0029;
},
{
color = (153, 249, 255, 255);
glyphname = cent;
layers = (
{
layerId = "890F39B9-B224-45DC-BFF4-46A200F8FC77";
paths = (
{
closed = 1;
nodes = (
"348 132 OFFCURVE",
"393 168 OFFCURVE",
"398 193 QCURVE",
"563 193 LINE",
"553 108 OFFCURVE",
"456 9 OFFCURVE",
"383 -5 QCURVE",
"383 -145 LINE",
"236 -145 LINE",
"236 -4 LINE",
"140 16 OFFCURVE",
"46 155 OFFCURVE",
"46 264 QCURVE",
"46 317 OFFCURVE",
"73 407 OFFCURVE",
"122 477 OFFCURVE",
"192 523 OFFCURVE",
"236 532 QCURVE",
"236 682 LINE",
"382 682 LINE",
"382 534 LINE",
"455 522 OFFCURVE",
"550 422 OFFCURVE",
"559 335 QCURVE",
"398 335 LINE",
"393 362 OFFCURVE",
"347 398 OFFCURVE",
"312 398 QCURVE",
"282 398 OFFCURVE",
"240 376 OFFCURVE",
"215 337 OFFCURVE",
"204 289 OFFCURVE",
"204 264 QCURVE",
"204 237 OFFCURVE",
"215 190 OFFCURVE",
"240 154 OFFCURVE",
"283 132 OFFCURVE",
"313 132 QCURVE"
);
}
);
width = 609;
}
);
unicode = 00A2;
},
{
color = (153, 249, 255, 255);
glyphname = section;
layers = (
{
layerId = "890F39B9-B224-45DC-BFF4-46A200F8FC77";
paths = (
{
closed = 1;
nodes = (
"279 597 OFFCURVE",
"259 596 OFFCURVE",
"237 587 OFFCURVE",
"224 572 OFFCURVE",
"224 560 QCURVE",
"224 547 OFFCURVE",
"243 530 OFFCURVE",
"270 520 OFFCURVE",
"298 515 OFFCURVE",
"308 513 QCURVE",
"348 506 OFFCURVE",
"427 490 OFFCURVE",
"488 458 OFFCURVE",
"526 404 OFFCURVE",
"526 359 QCURVE",
"526 330 OFFCURVE",
"502 275 OFFCURVE",
"480 255 QCURVE",
"503 235 OFFCURVE",
"524 179 OFFCURVE",
"523 150 QCURVE",
"522 106 OFFCURVE",
"481 44 OFFCURVE",
"416 5 OFFCURVE",
"335 -13 OFFCURVE",
"296 -13 QCURVE",
"247 -13 OFFCURVE",
"158 6 OFFCURVE",
"90 50 OFFCURVE",
"48 121 OFFCURVE",
"46 172 QCURVE",
"203 172 LINE",
"209 140 OFFCURVE",
"261 110 OFFCURVE",
"293 109 QCURVE",
"322 108 OFFCURVE",
"365 127 OFFCURVE",
"365 147 QCURVE",
"365 162 OFFCURVE",
"345 178 OFFCURVE",
"327 182 QCURVE",
"273 192 OFFCURVE",
"176 214 OFFCURVE",
"103 251 OFFCURVE",
"60 309 OFFCURVE",
"60 355 QCURVE",
"60 386 OFFCURVE",
"91 440 OFFCURVE",
"117 457 QCURVE",
"94 472 OFFCURVE",
"66 528 OFFCURVE",
"66 560 QCURVE",
"66 605 OFFCURVE",
"108 665 OFFCURVE",
"174 701 OFFCURVE",
"253 716 OFFCURVE",
"290 716 QCURVE",
"334 716 OFFCURVE",
"413 698 OFFCURVE",
"474 658 OFFCURVE",
"512 595 OFFCURVE",
"515 550 QCURVE",
"360 550 LINE",
"357 576 OFFCURVE",
"316 596 OFFCURVE",
"288 597 QCURVE"
);
},
{
closed = 1;
nodes = (
"223 402 OFFCURVE",
"212 379 OFFCURVE",
"212 367 QCURVE",
"212 349 OFFCURVE",
"238 327 OFFCURVE",
"280 314 OFFCURVE",
"330 306 OFFCURVE",
"354 301 QCURVE",
"365 309 OFFCURVE",
"377 332 OFFCURVE",
"377 344 QCURVE",
"377 365 OFFCURVE",
"343 384 OFFCURVE",
"325 389 QCURVE",
"295 397 OFFCURVE",
"251 405 OFFCURVE",
"235 409 QCURVE"
);
}
);
width = 573;
}
);
unicode = 00A7;
},
{
color = (153, 249, 255, 255);
glyphname = uni04C1;
layers = (
{
layerId = "890F39B9-B224-45DC-BFF4-46A200F8FC77";
paths = (
{
closed = 1;
nodes = (
"416 759 OFFCURVE",
"308 840 OFFCURVE",
"301 926 QCURVE",
"433 926 LINE",
"437 897 OFFCURVE",
"474 867 OFFCURVE",
"501 867 QCURVE",
"529 867 OFFCURVE",
"565 897 OFFCURVE",
"568 926 QCURVE",
"701 926 LINE",
"693 840 OFFCURVE",
"586 759 OFFCURVE",
"501 759 QCURVE"
);
},
{
closed = 1;
nodes = (
"581 279 LINE",
"581 0 LINE",
"418 0 LINE",
"418 279 LINE",
"349 279 LINE",
"191 0 LINE",
"1 0 LINE",
"218 369 LINE",
"2 708 LINE",
"189 708 LINE",
"354 425 LINE",
"418 425 LINE",
"418 708 LINE",
"581 708 LINE",
"581 425 LINE",
"644 425 LINE",
"810 708 LINE",
"997 708 LINE",
"781 369 LINE",
"998 0 LINE",
"807 0 LINE",
"650 279 LINE"
);
}
);
width = 999;
}
);
unicode = 04C1;
},
{
color = (153, 249, 255, 255);
glyphname = uni04C2;
layers = (
{
layerId = "890F39B9-B224-45DC-BFF4-46A200F8FC77";
paths = (
{
closed = 1;
nodes = (
"340 567 OFFCURVE",
"231 647 OFFCURVE",
"224 736 QCURVE",
"358 736 LINE",
"362 707 OFFCURVE",
"399 676 OFFCURVE",
"426 676 QCURVE",
"455 676 OFFCURVE",
"491 707 OFFCURVE",
"494 736 QCURVE",
"628 736 LINE",
"620 647 OFFCURVE",
"512 567 OFFCURVE",
"426 567 QCURVE"
);
},
{
closed = 1;
nodes = (
"505 191 LINE",
"505 0 LINE",
"347 0 LINE",
"347 191 LINE",
"284 191 LINE",
"184 0 LINE",
"1 0 LINE",
"158 276 LINE",
"9 527 LINE",
"184 527 LINE",
"288 331 LINE",
"347 331 LINE",
"347 527 LINE",
"505 527 LINE",
"505 331 LINE",
"566 331 LINE",
"668 527 LINE",
"843 527 LINE",
"694 276 LINE",
"851 0 LINE",
"668 0 LINE",
"569 191 LINE"
);
}
);
width = 852;
}
);
unicode = 04C2;
},
{
color = (153, 249, 255, 255);
glyphname = w_alt;
layers = (
{
layerId = "890F39B9-B224-45DC-BFF4-46A200F8FC77";
paths = (
{
closed = 1;
nodes = (
"165 0 LINE",
"1 527 LINE",
"175 527 LINE",
"264 186 LINE",
"342 423 LINE",
"495 423 LINE",
"573 186 LINE",
"663 527 LINE",
"829 527 LINE",
"665 0 LINE",
"495 0 LINE",
"416 255 LINE",
"338 0 LINE"
);
}
);
width = 830;
}
);
leftKerningGroup = _kern20;
rightKerningGroup = _kern20;
},
{
color = (153, 249, 255, 255);
glyphname = W_alt;
layers = (
{
layerId = "890F39B9-B224-45DC-BFF4-46A200F8FC77";
paths = (
{
closed = 1;
nodes = (
"379 0 LINE",
"176 0 LINE",
"0 708 LINE",
"184 708 LINE",
"284 206 LINE",
"384 558 LINE",
"568 558 LINE",
"668 206 LINE",
"768 708 LINE",
"951 708 LINE",
"775 0 LINE",
"570 0 LINE",
"475 342 LINE"
);
}
);
width = 951;
}
);
leftKerningGroup = _kern19;
rightKerningGroup = _kern19;
},
{
color = (153, 249, 255, 255);
glyphname = zero;
layers = (
{
layerId = "890F39B9-B224-45DC-BFF4-46A200F8FC77";
paths = (
{
closed = 1;
nodes = (
"365 141 OFFCURVE",
"414 175 OFFCURVE",
"442 234 OFFCURVE",
"454 311 OFFCURVE",
"454 355 QCURVE",
"454 397 OFFCURVE",
"443 474 OFFCURVE",
"414 533 OFFCURVE",
"367 567 OFFCURVE",
"331 567 QCURVE",
"294 567 OFFCURVE",
"245 533 OFFCURVE",
"216 475 OFFCURVE",
"204 398 OFFCURVE",
"204 355 QCURVE",
"204 312 OFFCURVE",
"215 234 OFFCURVE",
"244 176 OFFCURVE",
"292 141 OFFCURVE",
"329 141 QCURVE"
);
},
{
closed = 1;
nodes = (
"401 717 OFFCURVE",
"507 667 OFFCURVE",
"578 573 OFFCURVE",
"614 439 OFFCURVE",
"614 355 QCURVE",
"614 270 OFFCURVE",
"579 136 OFFCURVE",
"508 43 OFFCURVE",
"401 -7 OFFCURVE",
"329 -7 QCURVE",
"257 -7 OFFCURVE",
"149 43 OFFCURVE",
"79 136 OFFCURVE",
"44 270 OFFCURVE",
"44 355 QCURVE",
"44 439 OFFCURVE",
"80 574 OFFCURVE",
"152 667 OFFCURVE",
"260 717 OFFCURVE",
"331 717 QCURVE"
);
}
);
width = 657;
}
);
unicode = 0030;
},
{
color = (153, 249, 255, 255);
glyphname = one;
layers = (
{
layerId = "890F39B9-B224-45DC-BFF4-46A200F8FC77";
paths = (
{
closed = 1;
nodes = (
"314 0 LINE",
"151 0 LINE",
"151 504 LINE",
"12 504 LINE",
"12 624 LINE",
"72 624 OFFCURVE",
"166 661 OFFCURVE",
"194 708 QCURVE",
"314 708 LINE"
);
}
);
width = 408;
}
);
unicode = 0031;
},
{
color = (153, 249, 255, 255);
glyphname = two;
layers = (
{
layerId = "890F39B9-B224-45DC-BFF4-46A200F8FC77";
paths = (
{
closed = 1;
nodes = (
"22 133 LINE",
"70 172 OFFCURVE",
"165 251 OFFCURVE",
"213 293 QCURVE",
"281 353 OFFCURVE",
"326 399 OFFCURVE",
"357 454 OFFCURVE",
"357 485 QCURVE",
"357 519 OFFCURVE",
"314 566 OFFCURVE",
"269 566 QCURVE",
"218 566 OFFCURVE",
"173 522 OFFCURVE",
"168 491 QCURVE",
"17 491 LINE",
"19 547 OFFCURVE",
"61 632 OFFCURVE",
"131 688 OFFCURVE",
"224 716 OFFCURVE",
"277 716 QCURVE",
"326 716 OFFCURVE",
"415 688 OFFCURVE",
"481 633 OFFCURVE",
"520 551 OFFCURVE",
"520 496 QCURVE",
"520 437 OFFCURVE",
"469 335 OFFCURVE",
"391 253 OFFCURVE",
"299 180 OFFCURVE",
"257 147 QCURVE",
"512 147 LINE",
"512 0 LINE",
"22 0 LINE"
);
}
);
width = 557;
}
);
unicode = 0032;
},
{
color = (153, 249, 255, 255);
glyphname = three;
layers = (
{
layerId = "890F39B9-B224-45DC-BFF4-46A200F8FC77";
paths = (
{
closed = 1;
nodes = (
"40 497 LINE",
"45 554 OFFCURVE",
"90 637 OFFCURVE",
"160 691 OFFCURVE",
"251 717 OFFCURVE",
"303 717 QCURVE",
"349 717 OFFCURVE",
"438 696 OFFCURVE",
"507 650 OFFCURVE",
"549 577 OFFCURVE",
"549 524 QCURVE",
"549 481 OFFCURVE",
"506 405 OFFCURVE",
"470 384 QCURVE",
"523 364 OFFCURVE",
"576 273 OFFCURVE",
"575 216 QCURVE",
"574 151 OFFCURVE",
"523 65 OFFCURVE",
"441 13 OFFCURVE",
"348 -7 OFFCURVE",
"302 -7 QCURVE",
"187 -7 OFFCURVE",
"27 112 OFFCURVE",
"20 223 QCURVE",
"180 223 LINE",
"190 179 OFFCURVE",
"260 142 OFFCURVE",
"304 142 QCURVE",
"324 142 OFFCURVE",
"361 150 OFFCURVE",
"389 169 OFFCURVE",
"406 200 OFFCURVE",
"406 222 QCURVE",
"406 250 OFFCURVE",
"368 292 OFFCURVE",
"320 292 QCURVE",
"238 292 LINE",
"238 426 LINE",
"293 426 LINE",
"322 426 OFFCURVE",
"358 443 OFFCURVE",
"377 467 OFFCURVE",
"382 494 OFFCURVE",
"382 503 QCURVE",
"381 534 OFFCURVE",
"334 569 OFFCURVE",
"298 569 QCURVE",
"257 569 OFFCURVE",
"204 531 OFFCURVE",
"198 497 QCURVE"
);
}
);
width = 620;
}
);
unicode = 0033;
},
{
color = (153, 249, 255, 255);
glyphname = four;
layers = (
{
layerId = "890F39B9-B224-45DC-BFF4-46A200F8FC77";
paths = (
{
closed = 1;
nodes = (
"537 272 LINE",
"613 272 LINE",
"613 127 LINE",
"537 127 LINE",
"537 0 LINE",
"374 0 LINE",
"374 127 LINE",
"29 127 LINE",
"29 247 LINE",
"346 708 LINE",
"537 708 LINE"
);
},
{
closed = 1;
nodes = (
"213 272 LINE",
"374 272 LINE",
"374 519 LINE"
);
}
);
width = 637;
}
);
unicode = 0034;
},
{
color = (153, 249, 255, 255);
glyphname = seven;
layers = (
{
layerId = "890F39B9-B224-45DC-BFF4-46A200F8FC77";
paths = (
{
closed = 1;
nodes = (
"60 0 LINE",
"320 559 LINE",
"-1 559 LINE",
"-1 708 LINE",
"506 708 LINE",
"506 589 LINE",
"242 0 LINE"
);
}
);
width = 516;
}
);
unicode = 0037;
},
{
color = (153, 249, 255, 255);
glyphname = eight;
layers = (
{
layerId = "890F39B9-B224-45DC-BFF4-46A200F8FC77";
paths = (
{
closed = 1;
nodes = (
"583 148 OFFCURVE",
"536 67 OFFCURVE",
"460 16 OFFCURVE",
"364 -8 OFFCURVE",
"315 -8 QCURVE",
"264 -8 OFFCURVE",
"168 16 OFFCURVE",
"92 67 OFFCURVE",
"45 149 OFFCURVE",
"44 208 QCURVE",
"44 268 OFFCURVE",
"91 357 OFFCURVE",
"145 381 QCURVE",
"110 404 OFFCURVE",
"70 477 OFFCURVE",
"70 519 QCURVE",
"70 574 OFFCURVE",
"112 649 OFFCURVE",
"181 696 OFFCURVE",
"269 717 OFFCURVE",
"316 717 QCURVE",
"362 717 OFFCURVE",
"450 696 OFFCURVE",
"517 648 OFFCURVE",
"558 573 OFFCURVE",
"558 519 QCURVE",
"558 477 OFFCURVE",
"516 402 OFFCURVE",
"482 381 QCURVE",
"535 358 OFFCURVE",
"584 269 OFFCURVE",
"584 206 QCURVE"
);
},
{
closed = 1;
nodes = (
"273 578 OFFCURVE",
"227 538 OFFCURVE",
"227 502 QCURVE",
"227 467 OFFCURVE",
"274 425 OFFCURVE",
"314 425 QCURVE",
"356 425 OFFCURVE",
"400 468 OFFCURVE",
"400 503 QCURVE",
"400 538 OFFCURVE",
"352 578 OFFCURVE",
"314 578 QCURVE"
);
},
{
closed = 1;
nodes = (
"421 264 OFFCURVE",
"359 306 OFFCURVE",
"313 306 QCURVE",
"267 306 OFFCURVE",
"205 263 OFFCURVE",
"205 221 QCURVE",
"205 199 OFFCURVE",
"222 166 OFFCURVE",
"252 145 OFFCURVE",
"292 134 OFFCURVE",
"314 134 QCURVE",
"336 134 OFFCURVE",
"375 145 OFFCURVE",
"404 166 OFFCURVE",
"421 199 OFFCURVE",
"421 221 QCURVE"
);
}
);
width = 628;
}
);
unicode = 0038;
},
{
color = (153, 249, 255, 255);
glyphname = nine;
layers = (
{
layerId = "890F39B9-B224-45DC-BFF4-46A200F8FC77";
paths = (
{
closed = 1;
nodes = (
"256 570 OFFCURVE",
"201 519 OFFCURVE",
"201 477 QCURVE",
"201 435 OFFCURVE",
"254 381 OFFCURVE",
"303 381 QCURVE",
"327 381 OFFCURVE",
"364 397 OFFCURVE",
"389 423 OFFCURVE",
"401 456 OFFCURVE",
"401 473 QCURVE",
"401 516 OFFCURVE",
"347 570 OFFCURVE",
"304 570 QCURVE"
);
},
{
closed = 1;
nodes = (
"198 199 LINE",
"206 169 OFFCURVE",
"264 139 OFFCURVE",
"299 139 QCURVE",
"331 139 OFFCURVE",
"380 167 OFFCURVE",
"412 215 OFFCURVE",
"429 276 OFFCURVE",
"430 309 QCURVE",
"413 290 OFFCURVE",
"373 265 OFFCURVE",
"331 250 OFFCURVE",
"289 244 OFFCURVE",
"271 244 QCURVE",
"219 244 OFFCURVE",
"134 275 OFFCURVE",
"74 334 OFFCURVE",
"41 417 OFFCURVE",
"41 469 QCURVE",
"41 529 OFFCURVE",
"83 621 OFFCURVE",
"155 683 OFFCURVE",
"251 715 OFFCURVE",
"305 715 QCURVE",
"385 715 OFFCURVE",
"491 650 OFFCURVE",
"554 546 OFFCURVE",
"580 415 OFFCURVE",
"580 349 QCURVE",
"580 280 OFFCURVE",
"550 151 OFFCURVE",
"482 52 OFFCURVE",
"375 -7 OFFCURVE",
"298 -7 QCURVE",
"249 -7 OFFCURVE",
"161 17 OFFCURVE",
"93 68 OFFCURVE",
"49 146 OFFCURVE",
"43 199 QCURVE"
);
}
);
width = 623;
}
);
unicode = 0039;
},
{
color = (153, 249, 255, 255);
glyphname = uni0430;
layers = (
{
layerId = "890F39B9-B224-45DC-BFF4-46A200F8FC77";
paths = (
{
closed = 1;
nodes = (
"284 223 LINE",
"241 223 OFFCURVE",
"194 195 OFFCURVE",
"194 168 QCURVE",
"194 142 OFFCURVE",
"231 114 OFFCURVE",
"262 114 QCURVE",
"284 114 OFFCURVE",
"325 127 OFFCURVE",
"358 155 OFFCURVE",
"376 196 OFFCURVE",
"376 223 QCURVE"
);
},
{
closed = 1;
nodes = (
"381 0 LINE",
"380 68 LINE",
"362 43 OFFCURVE",
"313 10 OFFCURVE",
"254 -8 OFFCURVE",
"211 -8 QCURVE",
"176 -8 OFFCURVE",
"115 11 OFFCURVE",
"65 54 OFFCURVE",
"36 116 OFFCURVE",
"36 158 QCURVE",
"36 203 OFFCURVE",
"78 272 OFFCURVE",
"112 290 QCURVE",
"146 308 OFFCURVE",
"233 321 OFFCURVE",
"281 321 QCURVE",
"375 321 LINE",
"375 358 OFFCURVE",
"332 404 OFFCURVE",
"290 404 QCURVE",
"261 405 OFFCURVE",
"211 383 OFFCURVE",
"206 359 QCURVE",
"46 359 LINE",
"52 407 OFFCURVE",
"96 476 OFFCURVE",
"163 519 OFFCURVE",
"244 538 OFFCURVE",
"288 538 QCURVE",
"359 538 OFFCURVE",
"451 498 OFFCURVE",
"506 429 OFFCURVE",
"527 335 OFFCURVE",
"527 284 QCURVE",
"527 0 LINE"
);
}
);
width = 580;
}
);
leftKerningGroup = _kern27;
rightKerningGroup = _kern27;
unicode = 0430;
},
{
color = (153, 249, 255, 255);
glyphname = uni0435;
layers = (
{
layerId = "890F39B9-B224-45DC-BFF4-46A200F8FC77";
paths = (
{
closed = 1;
nodes = (
"331 123 OFFCURVE",
"373 144 OFFCURVE",
"383 163 QCURVE",
"543 163 LINE",
"532 117 OFFCURVE",
"486 53 OFFCURVE",
"420 11 OFFCURVE",
"341 -8 OFFCURVE",
"298 -8 QCURVE",
"173 -8 OFFCURVE",
"34 135 OFFCURVE",
"34 266 QCURVE",
"34 324 OFFCURVE",
"71 424 OFFCURVE",
"138 497 OFFCURVE",
"235 538 OFFCURVE",
"296 538 QCURVE",
"357 538 OFFCURVE",
"451 500 OFFCURVE",
"515 430 OFFCURVE",
"548 334 OFFCURVE",
"548 278 QCURVE",
"548 262 OFFCURVE",
"545 233 OFFCURVE",
"542 216 QCURVE",
"192 216 LINE",
"196 178 OFFCURVE",
"247 124 OFFCURVE",
"300 123 QCURVE"
);
},
{
closed = 1;
nodes = (
"397 322 LINE",
"397 359 OFFCURVE",
"344 407 OFFCURVE",
"298 407 QCURVE",
"247 407 OFFCURVE",
"197 356 OFFCURVE",
"194 322 QCURVE"
);
}
);
width = 582;
}
);
leftKerningGroup = _kern9;
rightKerningGroup = _kern10;
unicode = 0435;
},
{
color = (153, 249, 255, 255);
glyphname = uni043E;
layers = (
{
layerId = "890F39B9-B224-45DC-BFF4-46A200F8FC77";
paths = (
{
closed = 1;
nodes = (
"274 392 OFFCURVE",
"231 371 OFFCURVE",
"203 334 OFFCURVE",
"190 289 OFFCURVE",
"190 265 QCURVE",
"190 238 OFFCURVE",
"203 192 OFFCURVE",
"231 157 OFFCURVE",
"274 136 OFFCURVE",
"304 136 QCURVE",
"334 136 OFFCURVE",
"377 158 OFFCURVE",
"404 192 OFFCURVE",
"416 238 OFFCURVE",
"416 265 QCURVE",
"416 289 OFFCURVE",
"404 334 OFFCURVE",
"377 371 OFFCURVE",
"334 392 OFFCURVE",
"304 392 QCURVE"
);
},
{
closed = 1;
nodes = (
"243 -8 OFFCURVE",
"144 28 OFFCURVE",
"74 98 OFFCURVE",
"34 200 OFFCURVE",
"34 266 QCURVE",
"34 329 OFFCURVE",
"76 430 OFFCURVE",
"148 501 OFFCURVE",
"248 538 OFFCURVE",
"308 538 QCURVE",
"368 538 OFFCURVE",
"466 501 OFFCURVE",
"535 430 OFFCURVE",
"574 329 OFFCURVE",
"574 266 QCURVE",
"574 200 OFFCURVE",
"534 98 OFFCURVE",
"464 28 OFFCURVE",
"364 -8 OFFCURVE",
"303 -8 QCURVE"
);
}
);
width = 608;
}
);
leftKerningGroup = _kern9;
rightKerningGroup = _kern10;
unicode = 043E;
},
{
color = (153, 249, 255, 255);
glyphname = uni0441;
layers = (
{
layerId = "890F39B9-B224-45DC-BFF4-46A200F8FC77";
paths = (
{
closed = 1;
nodes = (
"334 134 OFFCURVE",
"378 169 OFFCURVE",
"383 195 QCURVE",
"545 195 LINE",
"540 142 OFFCURVE",
"498 66 OFFCURVE",
"431 16 OFFCURVE",
"345 -8 OFFCURVE",
"299 -8 QCURVE",
"171 -8 OFFCURVE",
"34 134 OFFCURVE",
"34 264 QCURVE",
"34 327 OFFCURVE",
"72 429 OFFCURVE",
"141 500 OFFCURVE",
"240 538 OFFCURVE",
"303 538 QCURVE",
"351 538 OFFCURVE",
"435 512 OFFCURVE",
"498 461 OFFCURVE",
"537 384 OFFCURVE",
"542 333 QCURVE",
"383 333 LINE",
"377 360 OFFCURVE",
"333 393 OFFCURVE",
"298 393 QCURVE",
"268 393 OFFCURVE",
"227 371 OFFCURVE",
"202 334 OFFCURVE",
"192 287 OFFCURVE",
"192 263 QCURVE",
"192 236 OFFCURVE",
"203 190 OFFCURVE",
"229 156 OFFCURVE",
"269 134 OFFCURVE",
"298 134 QCURVE"
);
}
);
width = 574;
}
);
leftKerningGroup = _kern9;
rightKerningGroup = _kern10;
unicode = 0441;
},
{
color = (153, 249, 255, 255);
glyphname = uni0218;
layers = (
{
layerId = "890F39B9-B224-45DC-BFF4-46A200F8FC77";
paths = (
{
closed = 1;
nodes = (
"290 -178 OFFCURVE",
"253 -145 OFFCURVE",
"253 -115 QCURVE",
"253 -82 OFFCURVE",
"293 -46 OFFCURVE",
"325 -46 QCURVE",
"365 -47 OFFCURVE",
"406 -100 OFFCURVE",
"406 -136 QCURVE",
"406 -165 OFFCURVE",
"385 -217 OFFCURVE",
"350 -261 OFFCURVE",
"303 -292 OFFCURVE",
"279 -301 QCURVE",
"246 -253 LINE",
"256 -247 OFFCURVE",
"279 -231 OFFCURVE",
"298 -212 OFFCURVE",
"313 -190 OFFCURVE",
"316 -180 QCURVE"
);
},
{
closed = 1;
nodes = (
"436 492 LINE",
"430 530 OFFCURVE",
"367 570 OFFCURVE",
"316 570 QCURVE",
"298 570 OFFCURVE",
"263 563 OFFCURVE",
"235 548 OFFCURVE",
"218 524 OFFCURVE",
"218 508 QCURVE",
"218 491 OFFCURVE",
"233 469 OFFCURVE",
"262 453 OFFCURVE",
"303 441 OFFCURVE",
"329 434 QCURVE",
"381 420 OFFCURVE",
"481 398 OFFCURVE",
"560 356 OFFCURVE",
"609 282 OFFCURVE",
"611 216 QCURVE",
"611 156 OFFCURVE",
"566 72 OFFCURVE",
"491 18 OFFCURVE",
"392 -7 OFFCURVE",
"338 -7 QCURVE",
"282 -7 OFFCURVE",
"178 18 OFFCURVE",
"94 74 OFFCURVE",
"40 164 OFFCURVE",
"35 229 QCURVE",
"200 229 LINE",
"206 204 OFFCURVE",
"234 171 OFFCURVE",
"273 151 OFFCURVE",
"322 142 OFFCURVE",
"348 142 QCURVE",
"364 142 OFFCURVE",
"400 148 OFFCURVE",
"428 163 OFFCURVE",
"447 188 OFFCURVE",
"447 206 QCURVE",
"447 232 OFFCURVE",
"410 259 OFFCURVE",
"382 266 QCURVE",
"314 282 OFFCURVE",
"196 311 OFFCURVE",
"107 360 OFFCURVE",
"56 437 OFFCURVE",
"56 501 QCURVE",
"56 565 OFFCURVE",
"108 649 OFFCURVE",
"189 698 OFFCURVE",
"289 717 OFFCURVE",
"337 717 QCURVE",
"389 715 OFFCURVE",
"478 688 OFFCURVE",
"546 632 OFFCURVE",
"589 549 OFFCURVE",
"595 492 QCURVE"
);
}
);
width = 647;
}
);
unicode = 0218;
},
{
color = (153, 249, 255, 255);
glyphname = uni0219;
layers = (
{
layerId = "890F39B9-B224-45DC-BFF4-46A200F8FC77";
paths = (
{
closed = 1;
nodes = (
"236 409 OFFCURVE",
"198 394 OFFCURVE",
"197 375 QCURVE",
"196 361 OFFCURVE",
"214 343 OFFCURVE",
"237 337 QCURVE",
"264 330 OFFCURVE",
"322 320 OFFCURVE",
"380 307 OFFCURVE",
"431 287 OFFCURVE",
"471 254 OFFCURVE",
"495 203 OFFCURVE",
"496 166 QCURVE",
"495 117 OFFCURVE",
"457 52 OFFCURVE",
"396 11 OFFCURVE",
"319 -6 OFFCURVE",
"281 -6 QCURVE",
"238 -6 OFFCURVE",
"154 11 OFFCURVE",
"84 53 OFFCURVE",
"36 121 OFFCURVE",
"30 173 QCURVE",
"192 173 LINE",
"198 146 OFFCURVE",
"247 121 OFFCURVE",
"280 121 QCURVE",
"301 121 OFFCURVE",
"341 137 OFFCURVE",
"341 158 QCURVE",
"341 173 OFFCURVE",
"323 190 OFFCURVE",
"296 199 OFFCURVE",
"264 205 OFFCURVE",
"248 209 QCURVE",
"209 216 OFFCURVE",
"135 238 OFFCURVE",
"79 274 OFFCURVE",
"44 328 OFFCURVE",
"44 370 QCURVE",
"44 416 OFFCURVE",
"82 481 OFFCURVE",
"143 520 OFFCURVE",
"222 538 OFFCURVE",
"263 538 QCURVE",
"305 538 OFFCURVE",
"382 519 OFFCURVE",
"440 477 OFFCURVE",
"478 410 OFFCURVE",
"482 363 QCURVE",
"329 363 LINE",
"326 389 OFFCURVE",
"285 409 OFFCURVE",
"257 409 QCURVE"
);
},
{
closed = 1;
nodes = (
"242 -180 OFFCURVE",
"205 -146 OFFCURVE",
"205 -116 QCURVE",
"205 -83 OFFCURVE",
"248 -46 OFFCURVE",
"281 -46 QCURVE",
"319 -46 OFFCURVE",
"360 -101 OFFCURVE",
"360 -137 QCURVE",
"360 -167 OFFCURVE",
"338 -219 OFFCURVE",
"303 -264 OFFCURVE",
"256 -295 OFFCURVE",
"231 -304 QCURVE",
"198 -256 LINE",
"208 -249 OFFCURVE",
"231 -233 OFFCURVE",
"250 -214 OFFCURVE",
"266 -192 OFFCURVE",
"269 -182 QCURVE"
);
}
);
width = 527;
}
);
leftKerningGroup = _kern5;
rightKerningGroup = _kern6;
unicode = 0219;
},
{
color = (153, 249, 255, 255);
glyphname = uni021A;
layers = (
{
layerId = "890F39B9-B224-45DC-BFF4-46A200F8FC77";
paths = (
{
closed = 1;
nodes = (
"5 559 LINE",
"5 708 LINE",
"598 708 LINE",
"598 559 LINE",
"383 559 LINE",
"383 0 LINE",
"220 0 LINE",
"220 559 LINE"
);
},
{
closed = 1;
nodes = (
"264 -178 OFFCURVE",
"227 -145 OFFCURVE",
"227 -115 QCURVE",
"227 -82 OFFCURVE",
"271 -45 OFFCURVE",
"302 -46 QCURVE",
"340 -46 OFFCURVE",
"380 -100 OFFCURVE",
"380 -136 QCURVE",
"380 -165 OFFCURVE",
"359 -217 OFFCURVE",
"324 -261 OFFCURVE",
"277 -292 OFFCURVE",
"253 -301 QCURVE",
"220 -253 LINE",
"230 -247 OFFCURVE",
"253 -231 OFFCURVE",
"272 -212 OFFCURVE",
"287 -190 OFFCURVE",
"290 -180 QCURVE"
);
}
);
width = 603;
}
);
leftKerningGroup = _kern28;
rightKerningGroup = _kern28;
unicode = 021A;
},
{
color = (153, 249, 255, 255);
glyphname = uni021B;
layers = (
{
layerId = "890F39B9-B224-45DC-BFF4-46A200F8FC77";
paths = (
{
closed = 1;
nodes = (
"251 386 LINE",
"251 199 LINE",
"251 173 OFFCURVE",
"276 140 OFFCURVE",
"308 140 QCURVE",
"358 140 LINE",
"358 0 LINE",
"291 0 LINE",
"241 0 OFFCURVE",
"168 17 OFFCURVE",
"118 59 OFFCURVE",
"94 125 OFFCURVE",
"94 176 QCURVE",
"94 386 LINE",
"16 386 LINE",
"16 527 LINE",
"94 527 LINE",
"94 664 LINE",
"251 664 LINE",
"251 527 LINE",
"363 527 LINE",
"363 386 LINE"
);
},
{
closed = 1;
nodes = (
"186 -180 OFFCURVE",
"148 -146 OFFCURVE",
"148 -116 QCURVE",
"148 -83 OFFCURVE",
"193 -45 OFFCURVE",
"224 -46 QCURVE",
"263 -46 OFFCURVE",
"303 -101 OFFCURVE",
"303 -137 QCURVE",
"303 -167 OFFCURVE",
"282 -219 OFFCURVE",
"246 -264 OFFCURVE",
"199 -295 OFFCURVE",
"175 -304 QCURVE",
"141 -256 LINE",
"152 -249 OFFCURVE",
"175 -233 OFFCURVE",
"194 -214 OFFCURVE",
"209 -192 OFFCURVE",
"212 -182 QCURVE"
);
}
);
width = 389;
}
);
leftKerningGroup = _kern21;
rightKerningGroup = _kern21;
unicode = 021B;
},
{
color = (153, 249, 255, 255);
glyphname = question;
layers = (
{
layerId = "890F39B9-B224-45DC-BFF4-46A200F8FC77";
paths = (
{
closed = 1;
nodes = (
"301 181 OFFCURVE",
"356 133 OFFCURVE",
"356 86 QCURVE",
"356 38 OFFCURVE",
"301 -9 OFFCURVE",
"260 -9 QCURVE",
"218 -9 OFFCURVE",
"163 38 OFFCURVE",
"163 86 QCURVE",
"163 133 OFFCURVE",
"218 181 OFFCURVE",
"260 181 QCURVE"
);
},
{
closed = 1;
nodes = (
"184 233 LINE",
"182 245 OFFCURVE",
"181 266 OFFCURVE",
"181 276 QCURVE",
"182 306 OFFCURVE",
"206 353 OFFCURVE",
"240 392 OFFCURVE",
"281 425 OFFCURVE",
"315 457 OFFCURVE",
"338 490 OFFCURVE",
"338 510 QCURVE",
"338 539 OFFCURVE",
"300 570 OFFCURVE",
"265 570 QCURVE",
"225 570 OFFCURVE",
"179 537 OFFCURVE",
"177 499 QCURVE",
"24 499 LINE",
"24 603 OFFCURVE",
"150 717 OFFCURVE",
"268 717 QCURVE",
"312 717 OFFCURVE",
"395 697 OFFCURVE",
"459 651 OFFCURVE",
"498 578 OFFCURVE",
"498 525 QCURVE",
"497 504 OFFCURVE",
"487 466 OFFCURVE",
"465 426 OFFCURVE",
"427 381 OFFCURVE",
"398 353 QCURVE",
"371 326 OFFCURVE",
"329 273 OFFCURVE",
"330 233 QCURVE"
);
}
);
width = 540;
}
);
unicode = 003F;
},
{
color = (153, 249, 255, 255);
glyphname = uni2116;
layers = (
{
layerId = "890F39B9-B224-45DC-BFF4-46A200F8FC77";
paths = (
{
closed = 1;
nodes = (
"200 708 LINE",
"462 290 LINE",
"462 708 LINE",
"622 708 LINE",
"622 0 LINE",
"470 0 LINE",
"206 416 LINE",
"206 0 LINE",
"46 0 LINE",
"46 708 LINE"
);
},
{
closed = 1;
nodes = (
"708 334 LINE",
"1031 334 LINE",
"1031 214 LINE",
"708 214 LINE"
);
},
{
closed = 1;
nodes = (
"830 366 OFFCURVE",
"764 391 OFFCURVE",
"717 437 OFFCURVE",
"691 502 OFFCURVE",
"691 542 QCURVE",
"691 582 OFFCURVE",
"717 646 OFFCURVE",
"763 692 OFFCURVE",
"829 717 OFFCURVE",
"870 717 QCURVE",
"912 717 OFFCURVE",
"978 692 OFFCURVE",
"1024 645 OFFCURVE",
"1049 581 OFFCURVE",
"1049 542 QCURVE",
"1049 502 OFFCURVE",
"1023 437 OFFCURVE",
"975 391 OFFCURVE",
"909 366 OFFCURVE",
"870 366 QCURVE"
);
},
{
closed = 1;
nodes = (
"854 601 OFFCURVE",
"832 590 OFFCURVE",
"818 572 OFFCURVE",
"812 551 OFFCURVE",
"812 542 QCURVE",
"812 521 OFFCURVE",
"838 483 OFFCURVE",
"870 483 QCURVE",
"901 483 OFFCURVE",
"927 521 OFFCURVE",
"927 542 QCURVE",
"927 551 OFFCURVE",
"921 572 OFFCURVE",
"907 590 OFFCURVE",
"885 601 OFFCURVE",
"870 601 QCURVE"
);
}
);
width = 1095;
}
);
unicode = 2116;
},
{
color = (153, 249, 255, 255);
glyphname = uni0401;
layers = (
{
layerId = "890F39B9-B224-45DC-BFF4-46A200F8FC77";
paths = (
{
closed = 1;
nodes = (
"594 708 LINE",
"594 559 LINE",
"237 559 LINE",
"237 423 LINE",
"540 423 LINE",
"540 278 LINE",
"237 278 LINE",
"237 147 LINE",
"594 147 LINE",
"594 0 LINE",
"74 0 LINE",
"74 708 LINE"
);
},
{
closed = 1;
nodes = (
"253 941 OFFCURVE",
"305 896 OFFCURVE",
"305 854 QCURVE",
"305 812 OFFCURVE",
"253 766 OFFCURVE",
"215 766 QCURVE",
"177 766 OFFCURVE",
"125 812 OFFCURVE",
"125 854 QCURVE",
"125 895 OFFCURVE",
"177 941 OFFCURVE",
"215 941 QCURVE"
);
},
{
closed = 1;
nodes = (
"501 941 OFFCURVE",
"553 896 OFFCURVE",
"553 854 QCURVE",
"553 812 OFFCURVE",
"501 766 OFFCURVE",
"463 766 QCURVE",
"425 766 OFFCURVE",
"373 812 OFFCURVE",
"373 854 QCURVE",
"373 895 OFFCURVE",
"425 941 OFFCURVE",
"463 941 QCURVE"
);
}
);
width = 629;
}
);
unicode = 0401;
},
{
color = (153, 249, 255, 255);
glyphname = asciitilde;
layers = (
{
layerId = "890F39B9-B224-45DC-BFF4-46A200F8FC77";
paths = (
{
closed = 1;
nodes = (
"75 238 LINE",
"73 280 OFFCURVE",
"84 366 OFFCURVE",
"122 436 OFFCURVE",
"190 481 OFFCURVE",
"245 481 QCURVE",
"285 481 OFFCURVE",
"343 450 OFFCURVE",
"386 414 OFFCURVE",
"421 383 OFFCURVE",
"438 383 QCURVE",
"453 383 OFFCURVE",
"468 404 OFFCURVE",
"474 433 OFFCURVE",
"473 464 OFFCURVE",
"472 474 QCURVE",
"616 474 LINE",
"618 434 OFFCURVE",
"608 349 OFFCURVE",
"573 278 OFFCURVE",
"508 232 OFFCURVE",
"454 232 QCURVE",
"413 232 OFFCURVE",
"353 264 OFFCURVE",
"307 302 OFFCURVE",
"271 334 OFFCURVE",
"255 334 QCURVE",
"239 334 OFFCURVE",
"223 312 OFFCURVE",
"217 282 OFFCURVE",
"218 249 OFFCURVE",
"220 238 QCURVE"
);
}
);
width = 691;
}
);
unicode = 007E;
},
{
color = (153, 249, 255, 255);
glyphname = trademark;
layers = (
{
layerId = "890F39B9-B224-45DC-BFF4-46A200F8FC77";
paths = (
{
closed = 1;
nodes = (
"139 599 LINE",
"46 599 LINE",
"46 708 LINE",
"345 708 LINE",
"345 599 LINE",
"251 599 LINE",
"251 384 LINE",
"139 384 LINE"
);
},
{
closed = 1;
nodes = (
"551 438 LINE",
"534 464 OFFCURVE",
"498 521 OFFCURVE",
"480 547 QCURVE",
"480 384 LINE",
"379 384 LINE",
"379 708 LINE",
"485 708 LINE",
"504 677 OFFCURVE",
"542 616 OFFCURVE",
"562 586 QCURVE",
"638 708 LINE",
"743 708 LINE",
"743 384 LINE",
"643 384 LINE",
"643 547 LINE",
"625 521 OFFCURVE",
"590 464 OFFCURVE",
"573 438 QCURVE"
);
}
);
width = 789;
}
);
unicode = 2122;
},
{
color = (153, 249, 255, 255);
glyphname = registered;
layers = (
{
layerId = "890F39B9-B224-45DC-BFF4-46A200F8FC77";
paths = (
{
closed = 1;
nodes = (
"289 734 OFFCURVE",
"363 707 OFFCURVE",
"417 656 OFFCURVE",
"447 581 OFFCURVE",
"447 534 QCURVE",
"447 487 OFFCURVE",
"417 414 OFFCURVE",
"363 364 OFFCURVE",
"288 338 OFFCURVE",
"244 338 QCURVE",
"199 338 OFFCURVE",
"124 364 OFFCURVE",
"69 413 OFFCURVE",
"39 486 OFFCURVE",
"39 534 QCURVE",
"39 582 OFFCURVE",
"70 656 OFFCURVE",
"125 707 OFFCURVE",
"200 734 OFFCURVE",
"244 734 QCURVE"
);
},
{
closed = 1;
nodes = (
"181 674 OFFCURVE",
"103 602 OFFCURVE",
"103 534 QCURVE",
"103 467 OFFCURVE",
"181 399 OFFCURVE",
"243 399 QCURVE",
"305 399 OFFCURVE",
"383 467 OFFCURVE",
"383 534 QCURVE",
"383 602 OFFCURVE",
"306 674 OFFCURVE",
"243 674 QCURVE"
);
},
{
closed = 1;
nodes = (
"341 441 LINE",
"278 441 LINE",
"237 506 LINE",
"222 506 LINE",
"222 441 LINE",
"167 441 LINE",
"167 641 LINE",
"249 641 LINE",
"284 641 OFFCURVE",
"329 609 OFFCURVE",
"329 574 QCURVE",
"331 531 OFFCURVE",
"293 514 QCURVE"
);
},
{
closed = 1;
nodes = (
"222 593 LINE",
"222 552 LINE",
"250 552 LINE",
"261 552 OFFCURVE",
"276 561 OFFCURVE",
"276 573 QCURVE",
"276 586 OFFCURVE",
"261 593 OFFCURVE",
"249 593 QCURVE"
);
}
);
width = 486;
}
);
unicode = 00AE;
},
{
color = (153, 249, 255, 255);
glyphname = degree;
layers = (
{
layerId = "890F39B9-B224-45DC-BFF4-46A200F8FC77";
paths = (
{
closed = 1;
nodes = (
"247 755 OFFCURVE",
"308 733 OFFCURVE",
"353 690 OFFCURVE",
"378 629 OFFCURVE",
"378 590 QCURVE",
"378 551 OFFCURVE",
"353 491 OFFCURVE",
"308 450 OFFCURVE",
"247 430 OFFCURVE",
"212 430 QCURVE",
"177 430 OFFCURVE",
"117 450 OFFCURVE",
"72 491 OFFCURVE",
"46 551 OFFCURVE",
"46 590 QCURVE",
"46 629 OFFCURVE",
"72 690 OFFCURVE",
"117 732 OFFCURVE",
"177 755 OFFCURVE",
"212 755 QCURVE"
);
},
{
closed = 1;
nodes = (
"187 651 OFFCURVE",
"154 619 OFFCURVE",
"154 591 QCURVE",
"154 563 OFFCURVE",
"187 532 OFFCURVE",
"213 532 QCURVE",
"239 532 OFFCURVE",
"273 563 OFFCURVE",
"273 591 QCURVE",
"273 619 OFFCURVE",
"239 651 OFFCURVE",
"213 651 QCURVE"
);
}
);
width = 424;
}
);
unicode = 00B0;
},
{
color = (153, 249, 255, 255);
glyphname = bullet;
layers = (
{
layerId = "890F39B9-B224-45DC-BFF4-46A200F8FC77";
paths = (
{
closed = 1;
nodes = (
"224 509 OFFCURVE",
"278 488 OFFCURVE",
"316 450 OFFCURVE",
"338 396 OFFCURVE",
"338 363 QCURVE",
"338 294 OFFCURVE",
"256 218 OFFCURVE",
"193 218 QCURVE",
"129 218 OFFCURVE",
"46 294 OFFCURVE",
"46 363 QCURVE",
"46 432 OFFCURVE",
"129 509 OFFCURVE",
"193 509 QCURVE"
);
}
);
width = 384;
}
);
unicode = 2022;
},
{
color = (153, 249, 255, 255);
glyphname = uni27F5;
layers = (
{
layerId = "890F39B9-B224-45DC-BFF4-46A200F8FC77";
paths = (
{
closed = 1;
nodes = (
"506 494 LINE",
"323 342 LINE",
"1360 342 LINE",
"1360 204 LINE",
"323 204 LINE",
"506 51 LINE",
"419 -57 LINE",
"46 274 LINE",
"418 604 LINE"
);
}
);
width = 1406;
}
);
unicode = 27F5;
},
{
color = (153, 249, 255, 255);
glyphname = uni27F6;
layers = (
{
layerId = "890F39B9-B224-45DC-BFF4-46A200F8FC77";
paths = (
{
closed = 1;
nodes = (
"987 604 LINE",
"1360 274 LINE",
"987 -57 LINE",
"900 51 LINE",
"1082 204 LINE",
"46 204 LINE",
"46 342 LINE",
"1082 342 LINE",
"900 494 LINE"
);
}
);
width = 1406;
}
);
unicode = 27F6;
},
{
color = (153, 249, 255, 255);
glyphname = arrowup;
layers = (
{
layerId = "890F39B9-B224-45DC-BFF4-46A200F8FC77";
paths = (
{
closed = 1;
nodes = (
"46 320 LINE",
"382 680 LINE",
"719 320 LINE",
"610 228 LINE",
"451 414 LINE",
"451 0 LINE",
"315 0 LINE",
"315 414 LINE",
"155 228 LINE"
);
}
);
width = 765;
}
);
unicode = 2191;
},
{
color = (153, 249, 255, 255);
glyphname = arrowdown;
layers = (
{
layerId = "890F39B9-B224-45DC-BFF4-46A200F8FC77";
paths = (
{
closed = 1;
nodes = (
"155 449 LINE",
"315 263 LINE",
"315 677 LINE",
"451 677 LINE",
"451 263 LINE",
"610 449 LINE",
"719 356 LINE",
"382 -3 LINE",
"46 356 LINE"
);
}
);
width = 765;
}
);
unicode = 2193;
},
{
color = (153, 249, 255, 255);
glyphname = uni21BA;
layers = (
{
layerId = "890F39B9-B224-45DC-BFF4-46A200F8FC77";
paths = (
{
closed = 1;
nodes = (
"736 619 LINE",
"766 593 OFFCURVE",
"814 527 OFFCURVE",
"847 450 OFFCURVE",
"864 368 OFFCURVE",
"864 328 QCURVE",
"863 245 OFFCURVE",
"803 109 OFFCURVE",
"696 10 OFFCURVE",
"546 -44 OFFCURVE",
"454 -44 QCURVE",
"362 -44 OFFCURVE",
"213 14 OFFCURVE",
"107 119 OFFCURVE",
"48 266 OFFCURVE",
"47 354 QCURVE",
"47 454 OFFCURVE",
"129 626 OFFCURVE",
"214 686 QCURVE",
"310 578 LINE",
"250 534 OFFCURVE",
"196 414 OFFCURVE",
"196 353 QCURVE",
"196 304 OFFCURVE",
"229 212 OFFCURVE",
"295 140 OFFCURVE",
"392 96 OFFCURVE",
"456 96 QCURVE",
"517 96 OFFCURVE",
"613 136 OFFCURVE",
"679 204 OFFCURVE",
"714 291 OFFCURVE",
"714 339 QCURVE",
"714 355 OFFCURVE",
"709 401 OFFCURVE",
"692 453 OFFCURVE",
"659 510 OFFCURVE",
"632 539 QCURVE",
"632 494 OFFCURVE",
"633 405 OFFCURVE",
"633 360 QCURVE",
"508 360 LINE",
"510 460 OFFCURVE",
"514 658 OFFCURVE",
"516 758 QCURVE",
"921 723 LINE",
"907 598 LINE"
);
}
);
width = 967;
}
);
unicode = 21BA;
},
{
color = (153, 249, 255, 255);
glyphname = uni21BB;
layers = (
{
layerId = "890F39B9-B224-45DC-BFF4-46A200F8FC77";
paths = (
{
closed = 1;
nodes = (
"60 598 LINE",
"56 630 OFFCURVE",
"49 691 OFFCURVE",
"46 723 QCURVE",
"451 758 LINE",
"453 658 OFFCURVE",
"457 460 OFFCURVE",
"459 360 QCURVE",
"333 360 LINE",
"335 539 LINE",
"289 494 OFFCURVE",
"251 392 OFFCURVE",
"251 345 QCURVE",
"251 298 OFFCURVE",
"284 210 OFFCURVE",
"349 141 OFFCURVE",
"445 98 OFFCURVE",
"507 97 QCURVE",
"571 97 OFFCURVE",
"669 139 OFFCURVE",
"736 209 OFFCURVE",
"771 300 OFFCURVE",
"771 350 QCURVE",
"771 412 OFFCURVE",
"718 533 OFFCURVE",
"657 578 QCURVE",
"680 605 OFFCURVE",
"729 659 OFFCURVE",
"752 686 QCURVE",
"837 627 OFFCURVE",
"919 456 OFFCURVE",
"919 357 QCURVE",
"919 268 OFFCURVE",
"861 120 OFFCURVE",
"754 14 OFFCURVE",
"603 -45 OFFCURVE",
"510 -45 QCURVE",
"418 -45 OFFCURVE",
"267 11 OFFCURVE",
"161 112 OFFCURVE",
"103 250 OFFCURVE",
"103 333 QCURVE",
"103 372 OFFCURVE",
"120 453 OFFCURVE",
"153 528 OFFCURVE",
"200 594 OFFCURVE",
"230 619 QCURVE"
);
}
);
width = 966;
}
);
unicode = 21BB;
},
{
color = (153, 249, 255, 255);
glyphname = uni21B7;
layers = (
{
layerId = "890F39B9-B224-45DC-BFF4-46A200F8FC77";
paths = (
{
closed = 1;
nodes = (
"951 237 LINE",
"1001 111 LINE",
"619 -36 LINE",
"480 344 LINE",
"610 388 LINE",
"664 211 LINE",
"681 240 OFFCURVE",
"701 312 OFFCURVE",
"701 346 QCURVE",
"701 397 OFFCURVE",
"666 487 OFFCURVE",
"600 553 OFFCURVE",
"505 591 OFFCURVE",
"446 591 QCURVE",
"391 591 OFFCURVE",
"299 555 OFFCURVE",
"231 490 OFFCURVE",
"192 398 OFFCURVE",
"191 342 QCURVE",
"46 342 LINE",
"48 433 OFFCURVE",
"109 578 OFFCURVE",
"217 679 OFFCURVE",
"364 733 OFFCURVE",
"452 733 QCURVE",
"539 733 OFFCURVE",
"682 679 OFFCURVE",
"786 582 OFFCURVE",
"843 445 OFFCURVE",
"845 361 QCURVE",
"847 310 OFFCURVE",
"819 213 OFFCURVE",
"793 171 QCURVE"
);
}
);
width = 1047;
}
);
unicode = 21B7;
},
{
color = (153, 249, 255, 255);
glyphname = uni21B6;
layers = (
{
layerId = "890F39B9-B224-45DC-BFF4-46A200F8FC77";
paths = (
{
closed = 1;
nodes = (
"254 171 LINE",
"228 213 OFFCURVE",
"200 311 OFFCURVE",
"201 362 QCURVE",
"202 446 OFFCURVE",
"261 582 OFFCURVE",
"365 680 OFFCURVE",
"509 733 OFFCURVE",
"596 733 QCURVE",
"683 733 OFFCURVE",
"830 679 OFFCURVE",
"938 578 OFFCURVE",
"999 433 OFFCURVE",
"1001 342 QCURVE",
"856 342 LINE",
"854 398 OFFCURVE",
"815 490 OFFCURVE",
"748 555 OFFCURVE",
"657 591 OFFCURVE",
"602 591 QCURVE",
"542 591 OFFCURVE",
"447 553 OFFCURVE",
"381 487 OFFCURVE",
"346 397 OFFCURVE",
"346 346 QCURVE",
"346 312 OFFCURVE",
"366 245 OFFCURVE",
"383 216 QCURVE",
"437 387 LINE",
"567 343 LINE",
"428 -36 LINE",
"46 111 LINE",
"96 237 LINE"
);
}
);
width = 1047;
}
);
unicode = 21B6;
},
{
color = (153, 249, 255, 255);
glyphname = five;
layers = (
{
layerId = "890F39B9-B224-45DC-BFF4-46A200F8FC77";
paths = (
{
closed = 1;
nodes = (
"61 297 LINE",
"68 400 OFFCURVE",
"83 607 OFFCURVE",
"88 708 QCURVE",
"548 708 LINE",
"548 562 LINE",
"230 562 LINE",
"228 533 OFFCURVE",
"223 473 OFFCURVE",
"220 444 QCURVE",
"252 461 OFFCURVE",
"315 474 OFFCURVE",
"346 474 QCURVE",
"401 474 OFFCURVE",
"487 441 OFFCURVE",
"546 381 OFFCURVE",
"576 296 OFFCURVE",
"576 244 QCURVE",
"576 184 OFFCURVE",
"535 91 OFFCURVE",
"464 26 OFFCURVE",
"366 -7 OFFCURVE",
"309 -7 QCURVE",
"198 -7 OFFCURVE",
"62 100 OFFCURVE",
"49 219 QCURVE",
"208 219 LINE",
"215 187 OFFCURVE",
"266 144 OFFCURVE",
"306 142 QCURVE",
"361 142 OFFCURVE",
"411 196 OFFCURVE",
"411 238 QCURVE",
"411 256 OFFCURVE",
"398 291 OFFCURVE",
"372 318 OFFCURVE",
"335 335 OFFCURVE",
"310 335 QCURVE",
"278 335 OFFCURVE",
"226 315 OFFCURVE",
"203 297 QCURVE"
);
}
);
width = 617;
}
);
unicode = 0035;
},
{
color = (153, 249, 255, 255);
glyphname = six;
layers = (
{
layerId = "890F39B9-B224-45DC-BFF4-46A200F8FC77";
paths = (
{
closed = 1;
nodes = (
"369 139 OFFCURVE",
"422 194 OFFCURVE",
"422 232 QCURVE",
"422 274 OFFCURVE",
"373 329 OFFCURVE",
"322 328 QCURVE",
"281 327 OFFCURVE",
"228 275 OFFCURVE",
"226 239 QCURVE",
"226 220 OFFCURVE",
"237 184 OFFCURVE",
"261 157 OFFCURVE",
"298 140 OFFCURVE",
"323 139 QCURVE"
);
},
{
closed = 1;
nodes = (
"430 509 LINE",
"422 538 OFFCURVE",
"372 570 OFFCURVE",
"336 570 QCURVE",
"300 570 OFFCURVE",
"246 539 OFFCURVE",
"211 490 OFFCURVE",
"194 427 OFFCURVE",
"194 395 QCURVE",
"211 415 OFFCURVE",
"253 442 OFFCURVE",
"296 458 OFFCURVE",
"339 465 OFFCURVE",
"357 465 QCURVE",
"463 465 OFFCURVE",
"584 348 OFFCURVE",
"584 238 QCURVE",
"584 181 OFFCURVE",
"543 91 OFFCURVE",
"474 28 OFFCURVE",
"383 -6 OFFCURVE",
"332 -6 QCURVE",
"253 -6 OFFCURVE",
"143 51 OFFCURVE",
"75 147 OFFCURVE",
"45 273 OFFCURVE",
"45 342 QCURVE",
"45 412 OFFCURVE",
"75 543 OFFCURVE",
"148 652 OFFCURVE",
"264 715 OFFCURVE",
"343 716 QCURVE",
"391 716 OFFCURVE",
"471 692 OFFCURVE",
"536 641 OFFCURVE",
"578 563 OFFCURVE",
"583 509 QCURVE"
);
}
);
width = 625;
}
);
unicode = 0036;
},
{
color = (153, 249, 255, 255);
glyphname = dieresis;
layers = (
{
layerId = "890F39B9-B224-45DC-BFF4-46A200F8FC77";
paths = (
{
closed = 1;
nodes = (
"222 760 OFFCURVE",
"274 714 OFFCURVE",
"274 672 QCURVE",
"274 629 OFFCURVE",
"222 583 OFFCURVE",
"184 583 QCURVE",
"146 583 OFFCURVE",
"94 629 OFFCURVE",
"94 672 QCURVE",
"94 713 OFFCURVE",
"146 760 OFFCURVE",
"184 760 QCURVE"
);
},
{
closed = 1;
nodes = (
"490 760 OFFCURVE",
"543 714 OFFCURVE",
"543 672 QCURVE",
"543 629 OFFCURVE",
"490 583 OFFCURVE",
"452 583 QCURVE",
"414 583 OFFCURVE",
"362 629 OFFCURVE",
"362 672 QCURVE",
"362 713 OFFCURVE",
"415 760 OFFCURVE",
"452 760 QCURVE"
);
}
);
width = 637;
}
);
unicode = 00A8;
},
{
color = (153, 249, 255, 255);
glyphname = cedilla;
layers = (
{
layerId = "890F39B9-B224-45DC-BFF4-46A200F8FC77";
paths = (
{
closed = 1;
nodes = (
"348 39 LINE",
"328 -22 LINE",
"372 -22 OFFCURVE",
"433 -71 OFFCURVE",
"433 -122 QCURVE",
"433 -158 OFFCURVE",
"404 -208 OFFCURVE",
"357 -240 OFFCURVE",
"299 -255 OFFCURVE",
"270 -255 QCURVE",
"237 -255 OFFCURVE",
"204 -249 QCURVE",
"204 -158 LINE",
"219 -160 OFFCURVE",
"245 -163 OFFCURVE",
"256 -163 QCURVE",
"288 -163 OFFCURVE",
"316 -144 OFFCURVE",
"316 -127 QCURVE",
"316 -110 OFFCURVE",
"282 -93 OFFCURVE",
"257 -93 QCURVE",
"242 -93 OFFCURVE",
"214 -96 OFFCURVE",
"206 -98 QCURVE",
"249 39 LINE"
);
}
);
width = 621;
}
);
unicode = 00B8;
},
{
color = (153, 249, 255, 255);
glyphname = dotlessi;
layers = (
{
layerId = "890F39B9-B224-45DC-BFF4-46A200F8FC77";
paths = (
{
closed = 1;
nodes = (
"212 0 LINE",
"55 0 LINE",
"55 527 LINE",
"212 527 LINE"
);
}
);
width = 267;
}
);
unicode = 0131;
},
{
color = (153, 249, 255, 255);
glyphname = ccedilla;
layers = (
{
layerId = "890F39B9-B224-45DC-BFF4-46A200F8FC77";
paths = (
{
closed = 1;
nodes = (
"331 134 OFFCURVE",
"375 169 OFFCURVE",
"380 195 QCURVE",
"542 195 LINE",
"538 148 OFFCURVE",
"503 78 OFFCURVE",
"448 28 OFFCURVE",
"377 -1 OFFCURVE",
"337 -5 QCURVE",
"329 -35 LINE",
"337 -35 LINE",
"378 -35 OFFCURVE",
"435 -82 OFFCURVE",
"435 -135 QCURVE",
"435 -171 OFFCURVE",
"407 -222 OFFCURVE",
"362 -257 OFFCURVE",
"304 -274 OFFCURVE",
"274 -274 QCURVE",
"253 -274 OFFCURVE",
"220 -270 OFFCURVE",
"204 -267 QCURVE",
"204 -175 LINE",
"219 -177 OFFCURVE",
"244 -180 OFFCURVE",
"256 -180 QCURVE",
"289 -180 OFFCURVE",
"317 -160 OFFCURVE",
"317 -142 QCURVE",
"317 -123 OFFCURVE",
"285 -108 OFFCURVE",
"262 -108 QCURVE",
"244 -108 OFFCURVE",
"215 -111 OFFCURVE",
"206 -112 QCURVE",
"236 -3 LINE",
"135 12 OFFCURVE",
"31 150 OFFCURVE",
"31 264 QCURVE",
"31 327 OFFCURVE",
"69 429 OFFCURVE",
"138 500 OFFCURVE",
"237 538 OFFCURVE",
"300 538 QCURVE",
"348 538 OFFCURVE",
"432 512 OFFCURVE",
"495 461 OFFCURVE",
"534 384 OFFCURVE",
"539 333 QCURVE",
"380 333 LINE",
"374 360 OFFCURVE",
"330 393 OFFCURVE",
"295 393 QCURVE",
"265 393 OFFCURVE",
"223 370 OFFCURVE",
"199 332 OFFCURVE",
"189 285 OFFCURVE",
"189 261 QCURVE",
"189 234 OFFCURVE",
"200 189 OFFCURVE",
"226 155 OFFCURVE",
"266 134 OFFCURVE",
"295 134 QCURVE"
);
}
);
width = 571;
}
);
leftKerningGroup = _kern5;
rightKerningGroup = _kern6;
unicode = 00E7;
},
{
color = (153, 249, 255, 255);
glyphname = uni0162;
layers = (
{
layerId = "890F39B9-B224-45DC-BFF4-46A200F8FC77";
paths = (
{
closed = 1;
nodes = (
"5 559 LINE",
"5 708 LINE",
"601 708 LINE",
"601 559 LINE",
"385 559 LINE",
"385 0 LINE",
"352 0 LINE",
"342 -35 LINE",
"350 -35 LINE",
"370 -35 OFFCURVE",
"406 -47 OFFCURVE",
"433 -71 OFFCURVE",
"448 -109 OFFCURVE",
"448 -136 QCURVE",
"446 -171 OFFCURVE",
"417 -220 OFFCURVE",
"373 -253 OFFCURVE",
"317 -268 OFFCURVE",
"288 -268 QCURVE",
"267 -268 OFFCURVE",
"235 -264 OFFCURVE",
"218 -262 QCURVE",
"218 -239 OFFCURVE",
"219 -194 OFFCURVE",
"219 -171 QCURVE",
"234 -173 OFFCURVE",
"260 -176 OFFCURVE",
"271 -176 QCURVE",
"303 -176 OFFCURVE",
"330 -156 OFFCURVE",
"330 -141 QCURVE",
"330 -122 OFFCURVE",
"296 -106 OFFCURVE",
"270 -106 QCURVE",
"255 -106 OFFCURVE",
"228 -108 OFFCURVE",
"220 -110 QCURVE",
"252 0 LINE",
"222 0 LINE",
"222 559 LINE"
);
}
);
width = 606;
}
);
leftKerningGroup = _kern28;
rightKerningGroup = _kern28;
unicode = 0162;
},
{
color = (153, 249, 255, 255);
glyphname = uni0163;
layers = (
{
layerId = "890F39B9-B224-45DC-BFF4-46A200F8FC77";
paths = (
{
closed = 1;
nodes = (
"251 386 LINE",
"251 199 LINE",
"251 173 OFFCURVE",
"275 140 OFFCURVE",
"308 140 QCURVE",
"358 140 LINE",
"358 0 LINE",
"269 0 LINE",
"259 -35 LINE",
"267 -35 LINE",
"309 -35 OFFCURVE",
"366 -85 OFFCURVE",
"366 -139 QCURVE",
"364 -206 OFFCURVE",
"273 -274 OFFCURVE",
"195 -274 QCURVE",
"178 -274 OFFCURVE",
"148 -270 OFFCURVE",
"134 -267 QCURVE",
"134 -175 LINE",
"149 -177 OFFCURVE",
"175 -180 OFFCURVE",
"186 -180 QCURVE",
"219 -180 OFFCURVE",
"246 -160 OFFCURVE",
"246 -142 QCURVE",
"246 -131 OFFCURVE",
"236 -117 OFFCURVE",
"219 -110 OFFCURVE",
"197 -108 OFFCURVE",
"186 -108 QCURVE",
"171 -108 OFFCURVE",
"143 -110 OFFCURVE",
"135 -112 QCURVE",
"174 20 LINE",
"131 38 OFFCURVE",
"94 115 OFFCURVE",
"94 176 QCURVE",
"94 386 LINE",
"16 386 LINE",
"16 527 LINE",
"94 527 LINE",
"94 664 LINE",
"251 664 LINE",
"251 527 LINE",
"363 527 LINE",
"363 386 LINE"
);
}
);
width = 392;
}
);
leftKerningGroup = _kern21;
rightKerningGroup = _kern21;
unicode = 0163;
},
{
color = (153, 249, 255, 255);
glyphname = Ccedilla;
layers = (
{
layerId = "890F39B9-B224-45DC-BFF4-46A200F8FC77";
paths = (
{
closed = 1;
nodes = (
"203 316 OFFCURVE",
"223 240 OFFCURVE",
"266 180 OFFCURVE",
"335 143 OFFCURVE",
"383 143 QCURVE",
"445 143 OFFCURVE",
"522 197 OFFCURVE",
"533 247 QCURVE",
"690 247 LINE",
"685 190 OFFCURVE",
"639 101 OFFCURVE",
"568 38 OFFCURVE",
"475 1 OFFCURVE",
"424 -4 QCURVE",
"416 -34 LINE",
"424 -34 LINE",
"464 -34 OFFCURVE",
"521 -81 OFFCURVE",
"521 -133 QCURVE",
"521 -168 OFFCURVE",
"493 -218 OFFCURVE",
"448 -251 OFFCURVE",
"390 -267 OFFCURVE",
"361 -267 QCURVE",
"340 -267 OFFCURVE",
"308 -263 OFFCURVE",
"292 -261 QCURVE",
"292 -170 LINE",
"307 -172 OFFCURVE",
"332 -174 OFFCURVE",
"343 -174 QCURVE",
"376 -174 OFFCURVE",
"404 -155 OFFCURVE",
"404 -138 QCURVE",
"404 -120 OFFCURVE",
"371 -105 OFFCURVE",
"344 -105 QCURVE",
"328 -105 OFFCURVE",
"301 -107 OFFCURVE",
"294 -109 QCURVE",
"324 -3 LINE",
"255 5 OFFCURVE",
"147 63 OFFCURVE",
"73 156 OFFCURVE",
"35 281 OFFCURVE",
"35 355 QCURVE",
"35 435 OFFCURVE",
"83 568 OFFCURVE",
"172 664 OFFCURVE",
"301 717 OFFCURVE",
"382 717 QCURVE",
"442 717 OFFCURVE",
"547 686 OFFCURVE",
"628 623 OFFCURVE",
"680 527 OFFCURVE",
"686 461 QCURVE",
"531 461 LINE",
"519 511 OFFCURVE",
"445 567 OFFCURVE",
"383 567 QCURVE",
"334 567 OFFCURVE",
"266 531 OFFCURVE",
"223 472 OFFCURVE",
"203 396 OFFCURVE",
"203 356 QCURVE"
);
}
);
width = 725;
}
);
leftKerningGroup = _kern3;
rightKerningGroup = _kern4;
unicode = 00C7;
},
{
color = (153, 249, 255, 255);
glyphname = scedilla;
layers = (
{
layerId = "890F39B9-B224-45DC-BFF4-46A200F8FC77";
paths = (
{
closed = 1;
nodes = (
"232 409 OFFCURVE",
"198 393 OFFCURVE",
"197 374 QCURVE",
"197 360 OFFCURVE",
"214 345 OFFCURVE",
"237 339 QCURVE",
"263 332 OFFCURVE",
"321 322 OFFCURVE",
"378 309 OFFCURVE",
"430 289 OFFCURVE",
"471 255 OFFCURVE",
"495 203 OFFCURVE",
"496 166 QCURVE",
"495 121 OFFCURVE",
"463 59 OFFCURVE",
"409 17 OFFCURVE",
"341 -4 OFFCURVE",
"305 -7 QCURVE",
"297 -37 LINE",
"305 -37 LINE",
"345 -37 OFFCURVE",
"402 -84 OFFCURVE",
"403 -135 QCURVE",
"403 -172 OFFCURVE",
"374 -224 OFFCURVE",
"327 -258 OFFCURVE",
"271 -273 OFFCURVE",
"242 -273 QCURVE",
"223 -273 OFFCURVE",
"190 -270 OFFCURVE",
"172 -267 QCURVE",
"172 -243 OFFCURVE",
"173 -198 OFFCURVE",
"173 -175 QCURVE",
"188 -177 OFFCURVE",
"213 -180 OFFCURVE",
"224 -180 QCURVE",
"257 -180 OFFCURVE",
"285 -160 OFFCURVE",
"285 -142 QCURVE",
"285 -124 OFFCURVE",
"254 -109 OFFCURVE",
"228 -109 QCURVE",
"213 -109 OFFCURVE",
"183 -112 OFFCURVE",
"174 -113 QCURVE",
"206 -1 LINE",
"175 4 OFFCURVE",
"115 29 OFFCURVE",
"67 72 OFFCURVE",
"34 132 OFFCURVE",
"30 173 QCURVE",
"192 173 LINE",
"198 146 OFFCURVE",
"247 121 OFFCURVE",
"280 121 QCURVE",
"310 121 OFFCURVE",
"341 140 OFFCURVE",
"341 159 QCURVE",
"341 176 OFFCURVE",
"313 194 OFFCURVE",
"289 199 QCURVE",
"249 209 OFFCURVE",
"162 228 OFFCURVE",
"90 263 OFFCURVE",
"44 321 OFFCURVE",
"44 371 QCURVE",
"44 417 OFFCURVE",
"83 481 OFFCURVE",
"144 520 OFFCURVE",
"222 538 OFFCURVE",
"263 538 QCURVE",
"305 538 OFFCURVE",
"382 519 OFFCURVE",
"440 477 OFFCURVE",
"478 410 OFFCURVE",
"482 363 QCURVE",
"329 363 LINE",
"326 389 OFFCURVE",
"284 409 OFFCURVE",
"256 409 QCURVE"
);
}
);
width = 527;
}
);
leftKerningGroup = _kern5;
rightKerningGroup = _kern6;
unicode = 015F;
},
{
color = (153, 249, 255, 255);
glyphname = uni21A9;
layers = (
{
layerId = "890F39B9-B224-45DC-BFF4-46A200F8FC77";
paths = (
{
closed = 1;
nodes = (
"167 536 LINE",
"167 674 LINE",
"811 674 LINE",
"883 674 OFFCURVE",
"1004 622 OFFCURVE",
"1093 531 OFFCURVE",
"1143 408 OFFCURVE",
"1143 336 QCURVE",
"1143 265 OFFCURVE",
"1092 143 OFFCURVE",
"1003 52 OFFCURVE",
"882 0 OFFCURVE",
"811 0 QCURVE",
"321 0 LINE",
"504 -154 LINE",
"419 -262 LINE",
"46 69 LINE",
"418 399 LINE",
"504 290 LINE",
"322 137 LINE",
"793 137 LINE",
"837 137 OFFCURVE",
"913 167 OFFCURVE",
"968 220 OFFCURVE",
"999 294 OFFCURVE",
"999 338 QCURVE",
"999 382 OFFCURVE",
"967 455 OFFCURVE",
"912 507 OFFCURVE",
"836 536 OFFCURVE",
"793 536 QCURVE"
);
}
);
width = 1189;
}
);
unicode = 21A9;
},
{
color = (153, 249, 255, 255);
glyphname = uni2713;
layers = (
{
layerId = "890F39B9-B224-45DC-BFF4-46A200F8FC77";
paths = (
{
closed = 1;
nodes = (
"400 209 LINE",
"938 826 LINE",
"1046 723 LINE",
"402 -16 LINE",
"46 372 LINE",
"151 477 LINE"
);
}
);
width = 1092;
}
);
unicode = 2713;
},
{
color = (153, 249, 255, 255);
glyphname = divide;
layers = (
{
layerId = "890F39B9-B224-45DC-BFF4-46A200F8FC77";
paths = (
{
closed = 1;
nodes = (
"46 294 LINE",
"46 428 LINE",
"521 428 LINE",
"521 294 LINE"
);
},
{
closed = 1;
nodes = (
"322 653 OFFCURVE",
"374 603 OFFCURVE",
"374 560 QCURVE",
"374 515 OFFCURVE",
"322 468 OFFCURVE",
"282 468 QCURVE",
"243 468 OFFCURVE",
"189 514 OFFCURVE",
"189 560 QCURVE",
"189 603 OFFCURVE",
"244 653 OFFCURVE",
"282 653 QCURVE"
);
},
{
closed = 1;
nodes = (
"322 253 OFFCURVE",
"374 203 OFFCURVE",
"374 159 QCURVE",
"374 114 OFFCURVE",
"322 67 OFFCURVE",
"282 67 QCURVE",
"243 67 OFFCURVE",
"189 114 OFFCURVE",
"189 159 QCURVE",
"189 203 OFFCURVE",
"244 253 OFFCURVE",
"282 253 QCURVE"
);
}
);
width = 567;
}
);
unicode = 00F7;
},
{
color = (153, 249, 255, 255);
glyphname = multiply;
layers = (
{
layerId = "890F39B9-B224-45DC-BFF4-46A200F8FC77";
paths = (
{
closed = 1;
nodes = (
"298 267 LINE",
"146 113 LINE",
"50 210 LINE",
"202 361 LINE",
"50 511 LINE",
"147 606 LINE",
"299 455 LINE",
"447 606 LINE",
"545 512 LINE",
"393 361 LINE",
"547 211 LINE",
"449 113 LINE"
);
}
);
width = 597;
}
);
unicode = 00D7;
},
{
color = (153, 249, 255, 255);
glyphname = yen;
layers = (
{
layerId = "890F39B9-B224-45DC-BFF4-46A200F8FC77";
paths = (
{
closed = 1;
nodes = (
"542 708 LINE",
"729 708 LINE",
"675 621 OFFCURVE",
"570 450 OFFCURVE",
"517 363 QCURVE",
"614 363 LINE",
"614 248 LINE",
"460 248 LINE",
"460 193 LINE",
"614 193 LINE",
"614 80 LINE",
"460 80 LINE",
"460 0 LINE",
"297 0 LINE",
"297 80 LINE",
"142 80 LINE",
"142 193 LINE",
"297 193 LINE",
"297 248 LINE",
"142 248 LINE",
"142 363 LINE",
"239 363 LINE",
"238 363 LINE",
"184 450 OFFCURVE",
"79 621 OFFCURVE",
"26 708 QCURVE",
"214 708 LINE",
"380 413 LINE"
);
}
);
width = 755;
}
);
unicode = 00A5;
},
{
color = (153, 249, 255, 255);
glyphname = uni20BD;
layers = (
{
layerId = "890F39B9-B224-45DC-BFF4-46A200F8FC77";
paths = (
{
closed = 1;
nodes = (
"390 708 LINE",
"448 708 OFFCURVE",
"550 687 OFFCURVE",
"626 635 OFFCURVE",
"669 547 OFFCURVE",
"669 480 QCURVE",
"669 419 OFFCURVE",
"627 333 OFFCURVE",
"555 278 OFFCURVE",
"458 253 OFFCURVE",
"403 253 QCURVE",
"290 253 LINE",
"290 193 LINE",
"472 193 LINE",
"472 72 LINE",
"290 72 LINE",
"290 0 LINE",
"127 0 LINE",
"127 72 LINE",
"46 72 LINE",
"46 193 LINE",
"127 193 LINE",
"127 253 LINE",
"46 253 LINE",
"46 383 LINE",
"128 383 LINE",
"127 383 LINE",
"127 708 LINE"
);
},
{
closed = 1;
nodes = (
"385 383 LINE",
"411 383 OFFCURVE",
"456 393 OFFCURVE",
"489 414 OFFCURVE",
"508 448 OFFCURVE",
"508 472 QCURVE",
"508 523 OFFCURVE",
"442 559 OFFCURVE",
"384 559 QCURVE",
"290 559 LINE",
"290 383 LINE"
);
}
);
width = 705;
}
);
unicode = 20BD;
},
{
color = (153, 249, 255, 255);
glyphname = uni20B4;
layers = (
{
layerId = "890F39B9-B224-45DC-BFF4-46A200F8FC77";
paths = (
{
closed = 1;
nodes = (
"358 715 OFFCURVE",
"439 698 OFFCURVE",
"505 657 OFFCURVE",
"548 591 OFFCURVE",
"548 542 QCURVE",
"548 525 OFFCURVE",
"537 484 OFFCURVE",
"526 470 QCURVE",
"565 470 LINE",
"565 373 LINE",
"446 373 LINE",
"374 328 LINE",
"565 328 LINE",
"565 233 LINE",
"242 233 LINE",
"231 226 OFFCURVE",
"218 203 OFFCURVE",
"218 193 QCURVE",
"218 165 OFFCURVE",
"262 137 OFFCURVE",
"298 136 QCURVE",
"339 135 OFFCURVE",
"389 161 OFFCURVE",
"394 193 QCURVE",
"549 193 LINE",
"549 136 OFFCURVE",
"505 58 OFFCURVE",
"433 11 OFFCURVE",
"340 -10 OFFCURVE",
"291 -10 QCURVE",
"253 -10 OFFCURVE",
"171 8 OFFCURVE",
"103 48 OFFCURVE",
"59 115 OFFCURVE",
"59 164 QCURVE",
"59 183 OFFCURVE",
"70 222 OFFCURVE",
"79 233 QCURVE",
"34 233 LINE",
"34 328 LINE",
"158 328 LINE",
"175 338 OFFCURVE",
"219 365 OFFCURVE",
"233 373 QCURVE",
"34 373 LINE",
"34 469 LINE",
"360 469 LINE",
"374 477 OFFCURVE",
"388 504 OFFCURVE",
"388 516 QCURVE",
"388 538 OFFCURVE",
"348 568 OFFCURVE",
"309 569 QCURVE",
"289 569 OFFCURVE",
"262 564 OFFCURVE",
"236 552 OFFCURVE",
"218 528 OFFCURVE",
"216 510 QCURVE",
"60 510 LINE",
"60 569 OFFCURVE",
"106 648 OFFCURVE",
"180 695 OFFCURVE",
"272 715 OFFCURVE",
"319 715 QCURVE"
);
}
);
width = 599;
}
);
unicode = 20B4;
},
{
color = (153, 249, 255, 255);
glyphname = sterling;
layers = (
{
layerId = "890F39B9-B224-45DC-BFF4-46A200F8FC77";
paths = (
{
closed = 1;
nodes = (
"496 407 LINE",
"496 268 LINE",
"287 268 LINE",
"287 147 LINE",
"587 147 LINE",
"587 0 LINE",
"47 0 LINE",
"47 147 LINE",
"129 147 LINE",
"129 268 LINE",
"46 268 LINE",
"46 407 LINE",
"130 407 LINE",
"129 407 LINE",
"129 502 LINE",
"129 556 OFFCURVE",
"165 637 OFFCURVE",
"227 691 OFFCURVE",
"311 717 OFFCURVE",
"360 717 QCURVE",
"463 717 OFFCURVE",
"575 620 OFFCURVE",
"579 511 QCURVE",
"431 511 LINE",
"430 526 OFFCURVE",
"423 554 OFFCURVE",
"407 575 OFFCURVE",
"380 587 OFFCURVE",
"360 587 QCURVE",
"319 587 OFFCURVE",
"287 538 OFFCURVE",
"287 506 QCURVE",
"287 407 LINE"
);
}
);
width = 633;
}
);
unicode = 00A3;
},
{
color = (153, 249, 255, 255);
glyphname = Scedilla;
layers = (
{
layerId = "890F39B9-B224-45DC-BFF4-46A200F8FC77";
paths = (
{
closed = 1;
nodes = (
"436 492 LINE",
"430 530 OFFCURVE",
"367 570 OFFCURVE",
"316 570 QCURVE",
"298 570 OFFCURVE",
"263 563 OFFCURVE",
"235 548 OFFCURVE",
"218 524 OFFCURVE",
"218 508 QCURVE",
"218 491 OFFCURVE",
"237 467 OFFCURVE",
"270 450 OFFCURVE",
"314 437 OFFCURVE",
"340 431 QCURVE",
"416 413 LINE",
"455 404 OFFCURVE",
"525 378 OFFCURVE",
"577 334 OFFCURVE",
"609 267 OFFCURVE",
"611 216 QCURVE",
"611 160 OFFCURVE",
"572 79 OFFCURVE",
"506 25 OFFCURVE",
"418 -3 OFFCURVE",
"369 -6 QCURVE",
"362 -36 LINE",
"370 -36 LINE",
"410 -36 OFFCURVE",
"467 -83 OFFCURVE",
"467 -136 QCURVE",
"467 -171 OFFCURVE",
"438 -221 OFFCURVE",
"393 -254 OFFCURVE",
"335 -270 OFFCURVE",
"307 -270 QCURVE",
"286 -270 OFFCURVE",
"254 -266 OFFCURVE",
"238 -263 QCURVE",
"238 -172 LINE",
"254 -175 OFFCURVE",
"279 -177 OFFCURVE",
"290 -177 QCURVE",
"322 -177 OFFCURVE",
"350 -158 OFFCURVE",
"350 -141 QCURVE",
"350 -122 OFFCURVE",
"318 -108 OFFCURVE",
"293 -108 QCURVE",
"278 -108 OFFCURVE",
"250 -110 OFFCURVE",
"240 -112 QCURVE",
"270 -3 LINE",
"224 3 OFFCURVE",
"143 36 OFFCURVE",
"80 93 OFFCURVE",
"39 175 OFFCURVE",
"35 229 QCURVE",
"200 229 LINE",
"206 204 OFFCURVE",
"234 171 OFFCURVE",
"274 151 OFFCURVE",
"323 143 OFFCURVE",
"349 143 QCURVE",
"368 143 OFFCURVE",
"403 149 OFFCURVE",
"430 163 OFFCURVE",
"447 188 OFFCURVE",
"447 206 QCURVE",
"447 221 OFFCURVE",
"433 242 OFFCURVE",
"410 256 OFFCURVE",
"380 266 OFFCURVE",
"363 270 QCURVE",
"299 285 LINE",
"246 297 OFFCURVE",
"157 328 OFFCURVE",
"92 377 OFFCURVE",
"56 448 OFFCURVE",
"56 501 QCURVE",
"56 563 OFFCURVE",
"106 646 OFFCURVE",
"185 696 OFFCURVE",
"282 717 OFFCURVE",
"329 717 QCURVE",
"383 717 OFFCURVE",
"475 690 OFFCURVE",
"545 634 OFFCURVE",
"589 549 OFFCURVE",
"595 492 QCURVE"
);
}
);
width = 647;
}
);
leftKerningGroup = _kern3;
rightKerningGroup = _kern4;
unicode = 015E;
},
{
color = (153, 249, 255, 255);
glyphname = t_alt;
layers = (
{
layerId = "890F39B9-B224-45DC-BFF4-46A200F8FC77";
paths = (
{
closed = 1;
nodes = (
"251 386 LINE",
"251 200 LINE",
"251 174 OFFCURVE",
"277 140 OFFCURVE",
"309 140 QCURVE",
"358 140 LINE",
"358 0 LINE",
"301 0 LINE",
"195 -2 OFFCURVE",
"94 77 OFFCURVE",
"94 176 QCURVE",
"94 386 LINE",
"16 386 LINE",
"16 527 LINE",
"97 527 LINE",
"121 664 LINE",
"251 664 LINE",
"251 527 LINE",
"363 527 LINE",
"363 386 LINE"
);
}
);
width = 389;
}
);
leftKerningGroup = _kern21;
rightKerningGroup = _kern21;
},
{
color = (153, 249, 255, 255);
glyphname = alt_1;
layers = (
{
layerId = "890F39B9-B224-45DC-BFF4-46A200F8FC77";
paths = (
{
closed = 1;
nodes = (
"204 505 LINE",
"56 505 LINE",
"56 626 LINE",
"85 626 OFFCURVE",
"143 633 OFFCURVE",
"193 651 OFFCURVE",
"234 683 OFFCURVE",
"247 708 QCURVE",
"368 708 LINE",
"368 145 LINE",
"522 145 LINE",
"522 0 LINE",
"34 0 LINE",
"34 145 LINE",
"204 145 LINE"
);
}
);
width = 528;
}
);
},
{
color = (153, 249, 255, 255);
glyphname = colon.uc;
layers = (
{
layerId = "890F39B9-B224-45DC-BFF4-46A200F8FC77";
paths = (
{
closed = 1;
nodes = (
"192 606 OFFCURVE",
"246 554 OFFCURVE",
"246 509 QCURVE",
"246 461 OFFCURVE",
"192 413 OFFCURVE",
"150 413 QCURVE",
"109 413 OFFCURVE",
"54 461 OFFCURVE",
"54 509 QCURVE",
"54 554 OFFCURVE",
"110 606 OFFCURVE",
"150 606 QCURVE"
);
},
{
closed = 1;
nodes = (
"192 262 OFFCURVE",
"246 210 OFFCURVE",
"246 165 QCURVE",
"246 117 OFFCURVE",
"192 69 OFFCURVE",
"150 69 QCURVE",
"109 69 OFFCURVE",
"54 117 OFFCURVE",
"54 165 QCURVE",
"54 210 OFFCURVE",
"110 262 OFFCURVE",
"150 262 QCURVE"
);
}
);
width = 300;
}
);
},
{
color = (153, 249, 255, 255);
glyphname = t2.alt;
layers = (
{
layerId = "890F39B9-B224-45DC-BFF4-46A200F8FC77";
paths = (
{
closed = 1;
nodes = (
"343 138 OFFCURVE",
"384 155 OFFCURVE",
"394 162 QCURVE",
"436 38 LINE",
"421 26 OFFCURVE",
"382 9 OFFCURVE",
"341 -2 OFFCURVE",
"302 -7 OFFCURVE",
"287 -7 QCURVE",
"190 -7 OFFCURVE",
"95 94 OFFCURVE",
"95 184 QCURVE",
"95 386 LINE",
"16 386 LINE",
"16 527 LINE",
"95 527 LINE",
"95 665 LINE",
"253 665 LINE",
"253 527 LINE",
"409 527 LINE",
"409 386 LINE",
"253 386 LINE",
"253 221 LINE",
"253 188 OFFCURVE",
"280 139 OFFCURVE",
"320 138 QCURVE"
);
}
);
width = 438;
}
);
},
{
color = (153, 249, 255, 255);
glyphname = hyphen.uc;
layers = (
{
layerId = "890F39B9-B224-45DC-BFF4-46A200F8FC77";
paths = (
{
closed = 1;
nodes = (
"404 290 LINE",
"61 290 LINE",
"61 428 LINE",
"404 428 LINE"
);
}
);
width = 465;
}
);
},
{
color = (153, 249, 255, 255);
glyphname = uni00AD.uc;
layers = (
{
layerId = "890F39B9-B224-45DC-BFF4-46A200F8FC77";
paths = (
{
closed = 1;
nodes = (
"404 290 LINE",
"61 290 LINE",
"61 428 LINE",
"404 428 LINE"
);
}
);
width = 465;
}
);
},
{
color = (153, 249, 255, 255);
glyphname = endash.uc;
layers = (
{
layerId = "890F39B9-B224-45DC-BFF4-46A200F8FC77";
paths = (
{
closed = 1;
nodes = (
"61 290 LINE",
"61 428 LINE",
"571 428 LINE",
"571 290 LINE"
);
}
);
width = 632;
}
);
},
{
color = (153, 249, 255, 255);
glyphname = emdash.uc;
layers = (
{
layerId = "890F39B9-B224-45DC-BFF4-46A200F8FC77";
paths = (
{
closed = 1;
nodes = (
"61 290 LINE",
"61 428 LINE",
"791 428 LINE",
"791 290 LINE"
);
}
);
width = 852;
}
);
},
{
color = (153, 249, 255, 255);
glyphname = uni2117;
layers = (
{
layerId = "890F39B9-B224-45DC-BFF4-46A200F8FC77";
paths = (
{
closed = 1;
nodes = (
"370 -84 OFFCURVE",
"218 -29 OFFCURVE",
"108 74 OFFCURVE",
"46 225 OFFCURVE",
"46 321 QCURVE",
"46 415 OFFCURVE",
"109 565 OFFCURVE",
"220 670 OFFCURVE",
"372 727 OFFCURVE",
"461 727 QCURVE",
"548 727 OFFCURVE",
"698 669 OFFCURVE",
"809 562 OFFCURVE",
"872 412 OFFCURVE",
"872 321 QCURVE",
"872 225 OFFCURVE",
"812 75 OFFCURVE",
"703 -29 OFFCURVE",
"552 -84 OFFCURVE",
"461 -84 QCURVE"
);
},
{
closed = 1;
nodes = (
"536 30 OFFCURVE",
"645 71 OFFCURVE",
"718 147 OFFCURVE",
"756 254 OFFCURVE",
"756 320 QCURVE",
"756 384 OFFCURVE",
"717 491 OFFCURVE",
"642 567 OFFCURVE",
"534 610 OFFCURVE",
"465 610 QCURVE",
"396 610 OFFCURVE",
"286 568 OFFCURVE",
"209 492 OFFCURVE",
"168 385 OFFCURVE",
"168 320 QCURVE",
"168 254 OFFCURVE",
"208 146 OFFCURVE",
"284 71 OFFCURVE",
"394 30 OFFCURVE",
"465 30 QCURVE"
);
},
{
closed = 1;
nodes = (
"425 219 LINE",
"425 87 LINE",
"315 87 LINE",
"315 538 LINE",
"488 538 LINE",
"527 538 OFFCURVE",
"593 522 OFFCURVE",
"641 484 OFFCURVE",
"668 423 OFFCURVE",
"668 378 QCURVE",
"667 337 OFFCURVE",
"640 278 OFFCURVE",
"593 238 OFFCURVE",
"530 219 OFFCURVE",
"493 219 QCURVE"
);
},
{
closed = 1;
nodes = (
"425 440 LINE",
"425 312 LINE",
"489 312 LINE",
"522 312 OFFCURVE",
"560 348 OFFCURVE",
"560 376 QCURVE",
"560 440 OFFCURVE",
"488 440 QCURVE"
);
}
);
width = 918;
}
);
unicode = 2117;
},
{
color = (153, 249, 255, 255);
glyphname = f_alt;
layers = (
{
layerId = "890F39B9-B224-45DC-BFF4-46A200F8FC77";
paths = (
{
closed = 1;
nodes = (
"379 527 LINE",
"379 386 LINE",
"253 386 LINE",
"253 0 LINE",
"95 0 LINE",
"95 386 LINE",
"16 386 LINE",
"16 527 LINE",
"95 527 LINE",
"95 574 LINE",
"95 622 OFFCURVE",
"125 692 OFFCURVE",
"181 737 OFFCURVE",
"256 759 OFFCURVE",
"298 759 QCURVE",
"331 759 OFFCURVE",
"395 746 OFFCURVE",
"421 731 QCURVE",
"381 604 LINE",
"370 611 OFFCURVE",
"339 620 OFFCURVE",
"320 620 QCURVE",
"288 621 OFFCURVE",
"253 587 OFFCURVE",
"253 558 QCURVE",
"253 527 LINE"
);
}
);
width = 385;
}
);
},
{
color = (153, 249, 255, 255);
glyphname = g_alt;
layers = (
{
layerId = "890F39B9-B224-45DC-BFF4-46A200F8FC77";
paths = (
{
closed = 1;
nodes = (
"413 35 OFFCURVE",
"375 11 OFFCURVE",
"332 -2 OFFCURVE",
"288 -8 OFFCURVE",
"268 -8 QCURVE",
"209 -7 OFFCURVE",
"120 34 OFFCURVE",
"61 106 OFFCURVE",
"30 203 OFFCURVE",
"30 261 QCURVE",
"30 320 OFFCURVE",
"64 421 OFFCURVE",
"127 495 OFFCURVE",
"219 536 OFFCURVE",
"279 536 QCURVE",
"316 536 OFFCURVE",
"397 513 OFFCURVE",
"431 476 QCURVE",
"446 527 LINE",
"586 527 LINE",
"586 108 LINE",
"586 72 OFFCURVE",
"585 -3 OFFCURVE",
"572 -75 OFFCURVE",
"546 -140 OFFCURVE",
"524 -168 QCURVE",
"486 -215 OFFCURVE",
"365 -261 OFFCURVE",
"292 -261 QCURVE",
"228 -261 OFFCURVE",
"106 -228 OFFCURVE",
"56 -196 QCURVE",
"69 -164 OFFCURVE",
"91 -97 OFFCURVE",
"102 -65 QCURVE",
"128 -82 OFFCURVE",
"215 -112 OFFCURVE",
"270 -112 QCURVE",
"318 -112 OFFCURVE",
"380 -85 OFFCURVE",
"415 -39 OFFCURVE",
"428 21 OFFCURVE",
"428 55 QCURVE"
);
},
{
closed = 1;
nodes = (
"339 133 OFFCURVE",
"385 155 OFFCURVE",
"414 191 OFFCURVE",
"428 238 OFFCURVE",
"428 266 QCURVE",
"428 291 OFFCURVE",
"413 336 OFFCURVE",
"383 372 OFFCURVE",
"338 392 OFFCURVE",
"309 392 QCURVE",
"277 392 OFFCURVE",
"231 370 OFFCURVE",
"202 333 OFFCURVE",
"189 285 OFFCURVE",
"189 260 QCURVE",
"189 234 OFFCURVE",
"204 189 OFFCURVE",
"233 154 OFFCURVE",
"278 133 OFFCURVE",
"308 133 QCURVE"
);
}
);
width = 640;
}
);
},
{
color = (153, 249, 255, 255);
glyphname = y;
layers = (
{
layerId = "890F39B9-B224-45DC-BFF4-46A200F8FC77";
paths = (
{
closed = 1;
nodes = (
"298 -112 OFFCURVE",
"352 -97 OFFCURVE",
"395 -60 OFFCURVE",
"420 3 OFFCURVE",
"419 51 QCURVE",
"405 33 OFFCURVE",
"368 11 OFFCURVE",
"326 -2 OFFCURVE",
"285 -8 OFFCURVE",
"267 -8 QCURVE",
"215 -8 OFFCURVE",
"138 22 OFFCURVE",
"113 48 QCURVE",
"84 80 OFFCURVE",
"60 173 OFFCURVE",
"60 235 QCURVE",
"60 527 LINE",
"217 527 LINE",
"217 261 LINE",
"217 238 OFFCURVE",
"225 193 OFFCURVE",
"246 157 OFFCURVE",
"286 134 OFFCURVE",
"317 134 QCURVE",
"348 134 OFFCURVE",
"388 160 OFFCURVE",
"411 197 OFFCURVE",
"419 242 OFFCURVE",
"419 263 QCURVE",
"419 527 LINE",
"577 527 LINE",
"577 110 LINE",
"577 74 OFFCURVE",
"576 -2 OFFCURVE",
"564 -74 OFFCURVE",
"538 -139 OFFCURVE",
"516 -167 QCURVE",
"476 -215 OFFCURVE",
"356 -261 OFFCURVE",
"281 -261 QCURVE",
"221 -261 OFFCURVE",
"106 -229 OFFCURVE",
"55 -196 QCURVE",
"67 -163 OFFCURVE",
"91 -96 OFFCURVE",
"104 -64 QCURVE",
"130 -83 OFFCURVE",
"219 -112 OFFCURVE",
"269 -112 QCURVE"
);
}
);
width = 631;
}
);
unicode = 0079;
},
{
color = (153, 249, 255, 255);
glyphname = a_alt;
layers = (
{
layerId = "890F39B9-B224-45DC-BFF4-46A200F8FC77";
paths = (
{
closed = 1;
nodes = (
"352 226 OFFCURVE",
"290 222 OFFCURVE",
"228 212 OFFCURVE",
"194 186 OFFCURVE",
"194 165 QCURVE",
"194 140 OFFCURVE",
"228 115 OFFCURVE",
"257 115 QCURVE",
"282 115 OFFCURVE",
"325 133 OFFCURVE",
"357 164 OFFCURVE",
"375 204 OFFCURVE",
"376 227 QCURVE"
);
},
{
closed = 1;
nodes = (
"383 0 LINE",
"382 14 OFFCURVE",
"380 44 OFFCURVE",
"378 59 QCURVE",
"361 37 OFFCURVE",
"300 3 OFFCURVE",
"243 -8 OFFCURVE",
"216 -8 QCURVE",
"184 -8 OFFCURVE",
"121 8 OFFCURVE",
"69 45 OFFCURVE",
"36 106 OFFCURVE",
"36 150 QCURVE",
"36 208 OFFCURVE",
"97 283 OFFCURVE",
"146 301 QCURVE",
"173 311 OFFCURVE",
"234 324 OFFCURVE",
"294 330 OFFCURVE",
"350 332 OFFCURVE",
"375 333 QCURVE",
"375 372 OFFCURVE",
"331 405 OFFCURVE",
"293 405 QCURVE",
"263 405 OFFCURVE",
"214 385 OFFCURVE",
"206 359 QCURVE",
"45 359 LINE",
"52 409 OFFCURVE",
"96 478 OFFCURVE",
"163 519 OFFCURVE",
"244 537 OFFCURVE",
"288 537 QCURVE",
"348 537 OFFCURVE",
"445 504 OFFCURVE",
"481 465 QCURVE",
"509 429 OFFCURVE",
"527 337 OFFCURVE",
"527 284 QCURVE",
"527 0 LINE"
);
}
);
width = 580;
}
);
leftKerningGroup = _kern27;
rightKerningGroup = _kern27;
},
{
color = (153, 249, 255, 255);
glyphname = uni0490;
layers = (
{
layerId = "890F39B9-B224-45DC-BFF4-46A200F8FC77";
paths = (
{
closed = 1;
nodes = (
"74 0 LINE",
"74 708 LINE",
"412 708 LINE",
"412 869 LINE",
"575 869 LINE",
"575 559 LINE",
"237 559 LINE",
"237 0 LINE"
);
}
);
width = 595;
}
);
leftKerningGroup = _kern23;
rightKerningGroup = _kern23;
unicode = 0490;
},
{
color = (153, 249, 255, 255);
glyphname = uni0491;
layers = (
{
layerId = "890F39B9-B224-45DC-BFF4-46A200F8FC77";
paths = (
{
closed = 1;
nodes = (
"452 682 LINE",
"452 387 LINE",
"212 387 LINE",
"212 0 LINE",
"55 0 LINE",
"55 527 LINE",
"298 527 LINE",
"298 682 LINE"
);
}
);
width = 468;
}
);
leftKerningGroup = _kern24;
rightKerningGroup = _kern24;
unicode = 0491;
},
{
color = (153, 249, 255, 255);
glyphname = uni0406;
layers = (
{
layerId = "890F39B9-B224-45DC-BFF4-46A200F8FC77";
paths = (
{
closed = 1;
nodes = (
"237 0 LINE",
"74 0 LINE",
"74 708 LINE",
"237 708 LINE"
);
}
);
width = 311;
}
);
unicode = 0406;
},
{
color = (153, 249, 255, 255);
glyphname = uni0456;
layers = (
{
layerId = "890F39B9-B224-45DC-BFF4-46A200F8FC77";
paths = (
{
closed = 1;
nodes = (
"222 0 LINE",
"65 0 LINE",
"65 527 LINE",
"222 527 LINE"
);
},
{
closed = 1;
nodes = (
"185 774 OFFCURVE",
"240 724 OFFCURVE",
"240 680 QCURVE",
"240 634 OFFCURVE",
"185 585 OFFCURVE",
"143 585 QCURVE",
"103 585 OFFCURVE",
"46 633 OFFCURVE",
"46 680 QCURVE",
"46 724 OFFCURVE",
"104 774 OFFCURVE",
"143 774 QCURVE"
);
}
);
width = 287;
}
);
unicode = 0456;
},
{
color = (153, 249, 255, 255);
glyphname = uni0404;
layers = (
{
layerId = "890F39B9-B224-45DC-BFF4-46A200F8FC77";
paths = (
{
closed = 1;
nodes = (
"468 425 LINE",
"468 283 LINE",
"206 283 LINE",
"208 248 OFFCURVE",
"237 196 OFFCURVE",
"282 161 OFFCURVE",
"341 143 OFFCURVE",
"373 143 QCURVE",
"399 143 OFFCURVE",
"450 153 OFFCURVE",
"493 177 OFFCURVE",
"526 216 OFFCURVE",
"533 244 QCURVE",
"690 244 LINE",
"683 181 OFFCURVE",
"628 86 OFFCURVE",
"542 24 OFFCURVE",
"434 -7 OFFCURVE",
"374 -7 QCURVE",
"291 -7 OFFCURVE",
"165 46 OFFCURVE",
"79 142 OFFCURVE",
"35 275 OFFCURVE",
"35 355 QCURVE",
"35 436 OFFCURVE",
"80 570 OFFCURVE",
"167 665 OFFCURVE",
"294 717 OFFCURVE",
"377 717 QCURVE",
"437 717 OFFCURVE",
"544 684 OFFCURVE",
"626 620 OFFCURVE",
"679 525 OFFCURVE",
"686 464 QCURVE",
"528 464 LINE",
"521 492 OFFCURVE",
"489 532 OFFCURVE",
"446 557 OFFCURVE",
"395 568 OFFCURVE",
"368 568 QCURVE",
"300 568 OFFCURVE",
"212 494 OFFCURVE",
"207 425 QCURVE"
);
}
);
width = 725;
}
);
unicode = 0404;
},
{
color = (153, 249, 255, 255);
glyphname = uni0454;
layers = (
{
layerId = "890F39B9-B224-45DC-BFF4-46A200F8FC77";
paths = (
{
closed = 1;
nodes = (
"315 125 OFFCURVE",
"367 139 OFFCURVE",
"379 162 QCURVE",
"537 162 LINE",
"528 118 OFFCURVE",
"482 54 OFFCURVE",
"418 11 OFFCURVE",
"339 -9 OFFCURVE",
"298 -9 QCURVE",
"167 -9 OFFCURVE",
"30 134 OFFCURVE",
"30 264 QCURVE",
"30 325 OFFCURVE",
"65 426 OFFCURVE",
"132 498 OFFCURVE",
"231 536 OFFCURVE",
"296 536 QCURVE",
"339 536 OFFCURVE",
"419 514 OFFCURVE",
"483 469 OFFCURVE",
"528 401 OFFCURVE",
"537 356 QCURVE",
"378 356 LINE",
"367 382 OFFCURVE",
"315 400 OFFCURVE",
"289 400 QCURVE",
"253 400 OFFCURVE",
"192 365 OFFCURVE",
"187 326 QCURVE",
"365 326 LINE",
"365 201 LINE",
"186 201 LINE",
"186 181 OFFCURVE",
"206 153 OFFCURVE",
"236 134 OFFCURVE",
"274 125 OFFCURVE",
"291 125 QCURVE"
);
}
);
width = 564;
}
);
unicode = 0454;
},
{
color = (153, 249, 255, 255);
glyphname = uni0407;
layers = (
{
layerId = "890F39B9-B224-45DC-BFF4-46A200F8FC77";
paths = (
{
closed = 1;
nodes = (
"99 928 OFFCURVE",
"145 883 OFFCURVE",
"145 843 QCURVE",
"145 803 OFFCURVE",
"99 757 OFFCURVE",
"61 757 QCURVE",
"24 757 OFFCURVE",
"-22 803 OFFCURVE",
"-22 843 QCURVE",
"-22 882 OFFCURVE",
"25 928 OFFCURVE",
"61 928 QCURVE"
);
},
{
closed = 1;
nodes = (
"287 928 OFFCURVE",
"333 883 OFFCURVE",
"333 843 QCURVE",
"333 803 OFFCURVE",
"287 757 OFFCURVE",
"250 757 QCURVE",
"212 757 OFFCURVE",
"166 803 OFFCURVE",
"166 843 QCURVE",
"166 882 OFFCURVE",
"214 928 OFFCURVE",
"250 928 QCURVE"
);
},
{
closed = 1;
nodes = (
"237 0 LINE",
"74 0 LINE",
"74 708 LINE",
"237 708 LINE"
);
}
);
width = 311;
}
);
unicode = 0407;
},
{
color = (153, 249, 255, 255);
glyphname = uni0457;
layers = (
{
layerId = "890F39B9-B224-45DC-BFF4-46A200F8FC77";
paths = (
{
closed = 1;
nodes = (
"86 763 OFFCURVE",
"132 717 OFFCURVE",
"132 677 QCURVE",
"132 635 OFFCURVE",
"86 589 OFFCURVE",
"47 589 QCURVE",
"10 589 OFFCURVE",
"-36 635 OFFCURVE",
"-36 677 QCURVE",
"-36 716 OFFCURVE",
"11 763 OFFCURVE",
"47 763 QCURVE"
);
},
{
closed = 1;
nodes = (
"276 763 OFFCURVE",
"322 717 OFFCURVE",
"322 677 QCURVE",
"322 635 OFFCURVE",
"276 589 OFFCURVE",
"238 589 QCURVE",
"200 589 OFFCURVE",
"154 635 OFFCURVE",
"154 677 QCURVE",
"154 716 OFFCURVE",
"202 763 OFFCURVE",
"238 763 QCURVE"
);
},
{
closed = 1;
nodes = (
"222 0 LINE",
"65 0 LINE",
"65 527 LINE",
"222 527 LINE"
);
}
);
width = 286;
}
);
unicode = 0457;
},
{
color = (153, 249, 255, 255);
glyphname = map;
layers = (
{
layerId = "890F39B9-B224-45DC-BFF4-46A200F8FC77";
paths = (
{
closed = 1;
nodes = (
"51 684 LINE",
"52 685 OFFCURVE",
"54 686 OFFCURVE",
"55 686 CURVE",
"94 686 LINE",
"96 686 OFFCURVE",
"97 686 OFFCURVE",
"98 687 CURVE",
"117 706 LINE",
"118 707 OFFCURVE",
"120 708 OFFCURVE",
"121 708 CURVE",
"217 708 LINE",
"218 708 OFFCURVE",
"220 707 OFFCURVE",
"221 706 CURVE",
"267 660 LINE",
"268 659 OFFCURVE",
"269 659 OFFCURVE",
"270 659 CURVE",
"303 659 LINE",
"306 659 OFFCURVE",
"308 657 OFFCURVE",
"308 654 CURVE",
"308 629 LINE",
"308 626 OFFCURVE",
"311 624 OFFCURVE",
"314 624 CURVE",
"320 624 LINE",
"321 624 OFFCURVE",
"323 624 OFFCURVE",
"324 625 CURVE",
"340 642 LINE",
"341 643 OFFCURVE",
"343 643 OFFCURVE",
"344 643 CURVE",
"376 643 LINE",
"379 643 OFFCURVE",
"381 641 OFFCURVE",
"381 638 CURVE",
"381 612 LINE",
"381 611 OFFCURVE",
"382 609 OFFCURVE",
"383 608 CURVE",
"403 588 LINE",
"405 586 OFFCURVE",
"408 586 OFFCURVE",
"410 588 CURVE",
"420 598 LINE",
"421 599 OFFCURVE",
"422 599 OFFCURVE",
"424 599 CURVE",
"430 599 LINE",
"433 599 OFFCURVE",
"436 597 OFFCURVE",
"436 594 CURVE",
"436 515 LINE",
"436 513 OFFCURVE",
"435 512 OFFCURVE",
"434 511 CURVE",
"428 505 LINE",
"426 503 OFFCURVE",
"426 499 OFFCURVE",
"428 497 CURVE",
"487 438 LINE",
"488 437 OFFCURVE",
"489 437 OFFCURVE",
"490 437 CURVE",
"502 437 LINE",
"505 437 OFFCURVE",
"507 434 OFFCURVE",
"507 432 CURVE",
"507 398 LINE",
"507 361 LINE",
"507 360 OFFCURVE",
"508 358 OFFCURVE",
"509 357 CURVE",
"531 335 LINE",
"532 334 OFFCURVE",
"534 333 OFFCURVE",
"535 333 CURVE",
"547 333 LINE",
"548 333 OFFCURVE",
"550 333 OFFCURVE",
"551 332 CURVE",
"567 315 LINE",
"568 314 OFFCURVE",
"569 313 OFFCURVE",
"569 311 CURVE",
"569 274 LINE",
"569 273 OFFCURVE",
"568 271 OFFCURVE",
"567 270 CURVE",
"561 265 LINE",
"559 263 OFFCURVE",
"559 259 OFFCURVE",
"561 257 CURVE",
"582 237 LINE",
"583 236 OFFCURVE",
"583 235 OFFCURVE",
"583 233 CURVE",
"583 230 OFFCURVE",
"581 228 OFFCURVE",
"578 228 CURVE",
"559 228 LINE",
"545 228 LINE",
"544 228 OFFCURVE",
"543 228 OFFCURVE",
"542 229 CURVE",
"533 238 LINE",
"531 240 OFFCURVE",
"528 240 OFFCURVE",
"526 238 CURVE",
"515 227 LINE",
"512 225 OFFCURVE",
"509 225 OFFCURVE",
"507 227 CURVE",
"492 242 LINE",
"490 244 OFFCURVE",
"487 244 OFFCURVE",
"484 242 CURVE",
"457 215 LINE",
"456 214 OFFCURVE",
"455 213 OFFCURVE",
"454 213 CURVE",
"445 213 LINE",
"443 213 OFFCURVE",
"440 216 OFFCURVE",
"440 219 CURVE",
"440 253 LINE",
"440 258 OFFCURVE",
"434 260 OFFCURVE",
"431 257 CURVE",
"409 235 LINE",
"408 234 OFFCURVE",
"408 233 OFFCURVE",
"408 232 CURVE",
"408 205 LINE",
"408 203 OFFCURVE",
"408 202 OFFCURVE",
"409 201 CURVE",
"419 191 LINE",
"421 189 OFFCURVE",
"421 186 OFFCURVE",
"419 184 CURVE",
"399 164 LINE",
"398 163 OFFCURVE",
"398 162 OFFCURVE",
"398 160 CURVE",
"398 135 LINE",
"398 134 OFFCURVE",
"397 132 OFFCURVE",
"396 131 CURVE",
"374 109 LINE",
"373 108 OFFCURVE",
"373 107 OFFCURVE",
"373 106 CURVE",
"373 94 LINE",
"373 92 OFFCURVE",
"372 91 OFFCURVE",
"371 90 CURVE",
"359 78 LINE",
"358 77 OFFCURVE",
"357 76 OFFCURVE",
"356 76 CURVE",
"347 76 LINE",
"346 76 OFFCURVE",
"345 76 OFFCURVE",
"344 75 CURVE",
"334 65 LINE",
"333 64 OFFCURVE",
"332 63 OFFCURVE",
"332 61 CURVE",
"332 23 LINE",
"332 20 OFFCURVE",
"330 17 OFFCURVE",
"327 17 CURVE",
"307 17 LINE",
"306 17 OFFCURVE",
"304 17 OFFCURVE",
"303 16 CURVE",
"289 1 LINE",
"288 1 OFFCURVE",
"287 0 OFFCURVE",
"285 0 CURVE",
"282 0 LINE",
"279 0 OFFCURVE",
"277 2 OFFCURVE",
"277 5 CURVE",
"277 28 LINE",
"277 29 OFFCURVE",
"276 31 OFFCURVE",
"275 32 CURVE",
"266 41 LINE",
"264 43 OFFCURVE",
"264 46 OFFCURVE",
"266 48 CURVE",
"278 60 LINE",
"281 62 OFFCURVE",
"281 66 OFFCURVE",
"278 68 CURVE",
"266 80 LINE",
"265 81 OFFCURVE",
"265 82 OFFCURVE",
"265 84 CURVE",
"265 169 LINE",
"265 170 OFFCURVE",
"265 172 OFFCURVE",
"266 173 CURVE",
"280 186 LINE",
"281 187 OFFCURVE",
"281 189 OFFCURVE",
"281 190 CURVE",
"281 309 LINE",
"281 310 OFFCURVE",
"281 312 OFFCURVE",
"280 313 CURVE",
"267 325 LINE",
"266 326 OFFCURVE",
"266 328 OFFCURVE",
"266 329 CURVE",
"266 352 LINE",
"266 353 OFFCURVE",
"265 355 OFFCURVE",
"264 355 CURVE",
"218 402 LINE",
"217 403 OFFCURVE",
"216 404 OFFCURVE",
"216 406 CURVE",
"216 427 LINE",
"216 429 OFFCURVE",
"216 430 OFFCURVE",
"215 431 CURVE",
"169 477 LINE",
"168 478 OFFCURVE",
"167 479 OFFCURVE",
"167 480 CURVE",
"167 506 LINE",
"167 507 OFFCURVE",
"167 509 OFFCURVE",
"166 510 CURVE",
"135 540 LINE",
"134 541 OFFCURVE",
"134 543 OFFCURVE",
"134 544 CURVE",
"134 573 LINE",
"134 574 OFFCURVE",
"133 576 OFFCURVE",
"132 577 CURVE",
"111 598 LINE",
"110 599 OFFCURVE",
"109 600 OFFCURVE",
"109 602 CURVE",
"109 628 LINE",
"109 630 OFFCURVE",
"109 631 OFFCURVE",
"108 632 CURVE",
"85 655 LINE",
"84 656 OFFCURVE",
"82 657 OFFCURVE",
"81 657 CURVE",
"39 657 LINE",
"36 657 OFFCURVE",
"34 659 OFFCURVE",
"34 662 CURVE",
"34 664 LINE",
"34 666 OFFCURVE",
"34 667 OFFCURVE",
"35 668 CURVE"
);
}
);
width = 657;
}
);
},
